SplineFontDB: 3.0
FontName: CoelacanthLight
FullName: CoelacanthLight
FamilyName: Coelacanth
Weight: Light

StartChar: a
Encoding: 97 97 0
GlifName: a
Width: 413
VWidth: 1159
Flags: HMW
AnchorPoint: "Bottom" 203 -15 basechar 0
AnchorPoint: "Ogonek" 354 18 basechar 0
AnchorPoint: "Top" 201 465 basechar 0
LayerCount: 2
Fore
SplineSet
262.091 164.129 m 1
 254.83 165.39 248.83 165.39 241.569 165.39 c 1
 214.481 165.651 175.233003568 160.274550114 161.871 154.912 c 0
 125.129 140.695 94.387 122.129 94.387 84.953 c 3
 94.387 54.4064628906 108.733 28.519 141.777 28.519 c 3
 176.912 28.519 220.783 47.997 261.135 68.346 c 1
 259.613 80.868 259.613 97.129 259.613 115.434 c 3
 259.613 135.695 261.091 149.39 262.091 164.129 c 1
215.868 425.132 m 3
 237.651 425.132 303.294117317 376.505529931 313.39 359.522 c 0
 319.868 348.261 321.868 324.261 321.868 310 c 3
 321.868 242.956 316.868 180.478 316.868 115.434 c 3
 316.868 93.085 318.418445803 69.849313189 322.868 57.17 c 0
 329.085 36.214 339.563 35.214 343.302 35.214 c 3
 353.824 35.214 374.868 46.868 390.651 59.783 c 1
 405.217 35.176 l 1
 370.393 16.044 317.962 -10.217 305.874 -10.217 c 3
 293.003 -10.217 271.83 2.739 263.396 44.824 c 1
 208.786 15.39 163.959 -9.522 104.088 -9.522 c 3
 52.349 -9.522 42.305 25.956 42.305 69.434 c 3
 42.305 90.607 45.39939832 113.317929413 50.61 124.519 c 0
 57.393 138.519 61.915 141.824 73.481 148.39 c 0
 130 178.607 186.176 190 262.83 194.78 c 1
 264.091 231.522 265.352 287.091 265.352 287.091 c 3
 265.352 308.915 261.96575333 323.670370005 255.918 334.047 c 0
 247.223 347.742 202.308 380.44 177.44 380.44 c 3
 151.877 380.44 119.516 364.437 119.516 339.129 c 3
 119.516 330.912 125.255 318.956 126.255 314.217 c 1
 64.566 290.481 l 1
 60.827 300.481 56.349 317.61 56.349 326.566 c 3
 56.349 341.349 64.0886659352 356.379102538 82.827 369.654 c 0
 132.346 404.305 201.129 425.132 215.868 425.132 c 3
EndSplineSet
Substitution2: "case-1" A
Substitution2: "pcap-1" a.pcap
Substitution2: "smcp-1" a.smcp
EndChar

StartChar: b
Encoding: 98 98 1
GlifName: b
Width: 507
VWidth: 1159
Flags: HMW
AnchorPoint: "Bottom" 248 -15 basechar 0
AnchorPoint: "Top" 104 749 basechar 0
LayerCount: 2
Fore
SplineSet
123.95 329.651 m 1
 122.428 236.563 121.689 183.258 121.689 90.17 c 3
 121.689 84.692 124.384 78.214 131.384 72.475 c 0
 164.733 45.214 210.387 28.953 254.78 28.953 c 3
 338.305 28.953 407.918 95.217 407.918 187.83 c 3
 407.918 277.569 349.742 375.525 249.003 375.525 c 3
 197.173 375.525 135.777 341.217 123.95 329.651 c 1
4.044 682.217 m 1
 44.698 693.915 91.041 716.434 131.645 759 c 1
 152.906 744.566 l 1
 141.862 717 135.167 687.522 134.167 667 c 0
 128.384 575.51 123.95 493.918 123.95 364.346 c 1
 156.167 380.434 217.648 413.566 280.78 413.566 c 3
 387.868 413.566 465.173 313.956 465.173 219.607 c 3
 465.173 91.651 353.61 -10.566 217.83 -10.566 c 3
 146.434 -10.566 133.17 17.088 100.431 17.088 c 3
 82.129 17.088 67.912 -2.478 61.173 -10 c 1
 42.129 1.739 l 1
 44.912 9.305 51.522 23.827 55.522 33.61 c 0
 60.739 49 64.912 70.827 65.912 145 c 0
 67.912 288 69.912 367 69.912 510 c 3
 69.912 562.431 71.739 615.613 68.783 637.44 c 0
 65.088 662.352 59.915 663.047 46.352 663.047 c 3
 37.396 663.047 22.742 657.915 10.871 655.044 c 1
 4.044 682.217 l 1
EndSplineSet
Substitution2: "case-1" B
Substitution2: "pcap-1" b.pcap
Substitution2: "smcp-1" b.smcp
EndChar

StartChar: c
Encoding: 99 99 2
GlifName: c
Width: 421
VWidth: 1159
Flags: HMW
AnchorPoint: "Bottom" 228 -15 basechar 0
AnchorPoint: "Top" 231 465 basechar 0
LayerCount: 2
Fore
SplineSet
348.179 323.179 m 1
 310.701 344.223 259.745 362.135 226.267 362.135 c 3
 145.044 362.135 93.994 297.504492957 93.994 211.431 c 3
 93.994 99.689 174.346 32.431 264.082 32.431 c 3
 306.997 32.431 343.39 50.78 368.739 68.868 c 1
 384.217 44.695 l 1
 350.739 17.956 292.261 -11.522 233.044 -11.522 c 3
 184.044 -11.522 34.522 10.132 34.522 184.088 c 3
 34.522 308.523267783 144.478 412.739 265.434 412.739 c 3
 313.434 412.739 362.434 393 393.434 370.522 c 1
 392.695 350.569 388.824 346.827 348.179 323.179 c 1
EndSplineSet
Substitution2: "case-1" C
Substitution2: "pcap-1" c.pcap
Substitution2: "smcp-1" c.smcp
EndChar

StartChar: d
Encoding: 100 100 3
GlifName: d
Width: 511
VWidth: 1159
Flags: HMW
AnchorPoint: "Bottom" 224 -15 basechar 0
AnchorPoint: "Top" 390 734 basechar 0
AnchorPoint: "TopRight" 503.5 581 basechar 0
LayerCount: 2
Fore
SplineSet
371.962 55.61 m 1
 326.135 22.739 264.437 -6.566 197.261 -6.566 c 3
 97.261 -6.566 34.261 78.217 34.261 172 c 3
 34.261 252.522 77.39 321.261 133.956 360.044 c 0
 180.478 391.305 237 406.566 267.261 406.566 c 3
 295.132 406.566 358.396 386.434 373.962 384.173 c 1
 373.962 490.95 375.833 569.525 376.138 638.006 c 0
 376.66 659.748 370.443 670.094 357.88 670.094 c 3
 350.836 670.094 325.836 657.83 309.833 654.742 c 1
 302.616 684.393 l 1
 347.569 694.61 402.654 724.437 438.346 754.522 c 1
 458.607 740.871 l 1
 453.912 726.61 448.217 699.349 447.217 688.349 c 0
 429.566 532.566 427.261 354.783 427.261 185 c 3
 427.261 129.085 428.261 67.733 433.434 21.299 c 1
 434.912 10.431 443.041 10.777 445.346 10.777 c 1
 458.563 13.733 489.217 26.692 502 31.997 c 1
 512.566 7.346 l 1
 462.698 -13.959 408.311 -35.654 393.789 -35.654 c 3
 386.006 -35.654 375.44 -32.088 373.962 -13.434 c 1
 372.484 9.827 371.962 51.61 371.962 55.61 c 1
238.44 366.308 m 3
 212.525 366.308 174.478 350.22 152.39 335.871 c 0
 116.475 310.956 87.821 269.126 87.821 211.906 c 3
 87.821 124.777 141.994 35.909 240.862 35.909 c 3
 292.563 35.909 339.525 58.956 369.745 84.959 c 1
 370.484 161.308 372.701 240.657 373.223 318.006 c 1
 373.223 340.915 353.487 343.393 334.273 347.827 c 0
 303.836 356.437 250.006 366.308 238.44 366.308 c 3
EndSplineSet
Substitution2: "case-1" D
Substitution2: "pcap-1" d.pcap
Substitution2: "smcp-1" d.smcp
EndChar

StartChar: e
Encoding: 101 101 4
GlifName: e
Width: 409
VWidth: 1159
Flags: HMW
AnchorPoint: "Bottom" 213 -15 basechar 0
AnchorPoint: "Ogonek" 306.65 23 basechar 0
AnchorPoint: "Top" 217 465 basechar 0
LayerCount: 2
Fore
SplineSet
211.434 415 m 3
 269.434 415 329.649235905 368.064633829 350.695 317.346 c 0
 354.651 307.695 365.997 301.522 379.607 301.566 c 1
 380.129 277.566 l 1
 292.78 261.261 185.648 238.217 101.299 217.956 c 1
 100.777 210.129 99.516 201.563 99.516 193.736 c 3
 99.516 79.214 168.472 32.953 228.516 32.953 c 3
 278.648 32.953 321.824 56.78 352.173 81.868 c 1
 371.607 56.956 l 1
 329.868 23.434 270.39 -10.261 201.912 -10.261 c 3
 100.132 -10.261 37.827 68.824 37.827 178.956 c 3
 37.827 352.294127733 176.500443479 415 211.434 415 c 3
201.088 374.003 m 3
 154.657 374.003 113.041 312.333694915 104.082 244.695 c 1
 294.396 286.176 l 0
 301.091 287.176 l 1
 290.047 328.389765432 245.698 374.003 201.088 374.003 c 3
EndSplineSet
Substitution2: "case-1" E
Substitution2: "pcap-1" e.pcap
Substitution2: "smcp-1" e.smcp
EndChar

StartChar: f
Encoding: 102 102 5
GlifName: f
Width: 357
VWidth: 1159
Flags: HMW
AnchorPoint: "Bottom" 156 -15 basechar 0
AnchorPoint: "Top" 262 748 basechar 0
LayerCount: 2
Fore
SplineSet
348.821 759.393 m 3
 384.736 759.393 433.431 746.827 457.909 725.088 c 1
 457.17 705.135 453.994 700.437 417.783 673.094 c 1
 380.871 692.66 347 712.484 311.871 712.484 c 3
 218.789 712.484 186.645 623.877 179.255 499.827 c 0
 178.516 489.827 177.038 438.393 176.299 401.176 c 1
 230.648 402.654 279.475 402.654 333.824 404.132 c 1
 333.824 363.874 l 1
 279.736 365.352 229.648 366.091 175.56 367.569 c 1
 174.821 334.959 174.821 308.132 174.821 294.827 c 3
 174.56 210.478 175.299 131.39 178.994 49.302 c 0
 179.733 35.607 184.167 32.173 198.862 31.173 c 0
 223.601 30.173 246.34 29.651 271.079 28.39 c 1
 267.818 -5.217 l 1
 229.994 -0.478 175.997 1.261 138.173 1.261 c 3
 110.522 1.261 68.176 -1.739 40.525 -5.739 c 1
 38.742 27.129 l 1
 50.786 28.39 65.83 29.173 78.396 30.912 c 0
 105.481 36.607 108.437 45.953 109.915 76.302 c 0
 113.61 130.129 115.827 200.478 116.088 267.827 c 3
 116.088 289.132 115.349 328.22 115.349 367.569 c 1
 91.132 366.83 68.176 364.613 43.959 363.874 c 1
 43.959 404.132 l 1
 68.176 403.393 91.132 401.915 115.349 401.176 c 1
 115.349 439.132 115.349 483.088 115.349 494.827 c 3
 115.349 603.349 156.261 660.132 218.78 706.871 c 0
 253.343 732.566 291.909 759.393 348.821 759.393 c 3
EndSplineSet
Substitution2: "salt-1" f.alt
Substitution2: "case-1" F
Substitution2: "pcap-1" f.pcap
Substitution2: "smcp-1" f.smcp
EndChar

StartChar: g
Encoding: 103 103 6
GlifName: g
Width: 475
VWidth: 1159
Flags: HMW
AnchorPoint: "Bottom" 225 -318 basechar 0
AnchorPoint: "Top" 224 465 basechar 0
LayerCount: 2
Fore
SplineSet
135.167 -3.349 m 3
 135.167 -29.264 179.214 -38.569 221.088 -38.569 c 3
 250.783 -38.569 276.217 -34.135 306.434 -34.135 c 3
 410.349 -34.135 452.088 -97.135 452.088 -152.135 c 3
 452.088 -281.179 258.082 -336.566 175.088 -336.566 c 3
 59.39 -336.566 22.088 -265.956 22.088 -214.868 c 3
 22.088 -134.336367647 106.132 -85.5544264706 120.393 -76.261 c 1
 74.519 -47.739 67.783 -22.651 63.566 6 c 1
 95.871 29.3396 149.088 52.1572 184.393 64.088 c 1
 109.437 78.827 47.088 139.305 47.088 227.522 c 3
 47.088 348.912 152.431 413.434 235.088 413.434 c 3
 273.566 413.434 312.349 400.956 341.783 377 c 1
 366.739 383.522 388.695 386.478 417.39 386.478 c 3
 432.651 386.478 452.173 383.478 458.434 379.478 c 1
 443.044 329.874 l 1
 425.132 337.569 408.22 341.786 390.047 341.786 c 0
 382.437 341.786 376.349 341.786 366.956 339.742 c 1
 383.783 312.264 397.088 283.176 397.088 239.478 c 3
 397.088 137.956 310.132 92.261 240.871 63.044 c 0
 141.123 20.1351578948 135.167 12.9192105263 135.167 -3.349 c 3
213.657 376.871 m 3
 138.085 376.871 102.865 321.173 102.865 250.431 c 3
 102.865 159.346 165.041 110.17 240.478 92.217 c 1
 294.525 114 336.138 154.349 336.138 222.481 c 3
 336.138 290.349 305.399 376.871 213.657 376.871 c 3
62.346 -194.915 m 3
 62.346 -270.484 149.258 -281.528 200.953 -281.528 c 3
 240.434 -281.528 411.83 -250.419371134 411.83 -169.132 c 3
 411.83 -120.132 369.613 -92.129 307.173 -92.129 c 3
 279.956 -92.129 252 -95.824 224.783 -95.824 c 3
 198.566 -95.824 171.61 -94.085 156.132 -90.868 c 1
 88.261 -120.483857143 62.346 -159.267791209 62.346 -194.915 c 3
EndSplineSet
Substitution2: "case-1" G
Substitution2: "pcap-1" g.pcap
Substitution2: "smcp-1" g.smcp
EndChar

StartChar: h
Encoding: 104 104 7
GlifName: h
Width: 531
VWidth: 1159
Flags: HMW
AnchorPoint: "Bottom" 275 -15 basechar 0
AnchorPoint: "Top" 120 733 basechar 0
LayerCount: 2
Fore
SplineSet
149.255 325.302 m 1
 147.777 287.220704545 146.299 238.368159091 146.299 189 c 3
 146.299 127.39 147.645075488 70.4424338413 149.733 48.258 c 0
 151.211 36.39 166.359477789 32.748338269 175.208 30.956 c 0
 188.645 29.217 212.343 25.912 225.736 24.651 c 1
 221.475 -6.739 l 1
 183.78 -0.739 152.475 4.261 113.868 4.261 c 3
 85.173 4.261 51 -0.739 22.305 -4.739 c 1
 19.044 25.912 l 1
 33.698 28.173 42.1812837001 29.3484218348 56.179 31.695 c 0
 75.003 36.129 83.8414730618 44.3885198424 85.827 67.648 c 0
 89.783 121.736 92 206.129 92 274 c 3
 92 518.83 91.0164289557 615.922136708 89.783 637.745 c 0
 89.044 651.396 84.349 663.308 71.003 663.308 c 3
 65.786 663.308 37.959 652.61 25.088 650.827 c 1
 17.088 680.478 l 1
 63.607 691.478 117.082 718.695 155.384 752.956 c 1
 174.384 738 l 1
 168.123 723.478 161.323113149 695.37881511 159.862 683.912 c 0
 152.211 630.182922156 150.255 467.770898204 149.255 355.78 c 1
 204.343 391.48372 281.475 413.173 325.041 413.173 c 3
 402.739 413.173 439.757896041 362.382102938 443.739 301 c 0
 445 280.831085714 446 234.774780952 446 183 c 3
 446 123.912 445 66.824 445 49.302 c 0
 445 36.912 458.887477789 33.270338269 469.041 31.217 c 0
 479.346 29.478 507.912 27.173 518.695 24.39 c 1
 512.912 -6.739 l 1
 477.566 2.261 453.915 4.261 415.83 4.261 c 3
 385.308 4.261 356.047 -0.739 329.525 -6.739 c 1
 325.481 23.912 l 1
 339.091 26.173 347.3572837 27.0874218348 362.66 29.695 c 0
 382.528 34.651 385.171934339 43.6704747175 387.745 66.082 c 0
 389.223 84.431 390.223 125.912 390.223 143.261 c 3
 390.223 192.65140625 389.188515696 264.294970096 385.745 287.132 c 0
 377.789 337.176 351.091 370.698 294.525 370.698 c 3
 243.393 370.698 188.258 350.70675 149.255 325.302 c 1
EndSplineSet
Substitution2: "case-1" H
Substitution2: "pcap-1" h.pcap
Substitution2: "smcp-1" h.smcp
EndChar

StartChar: k
Encoding: 107 107 10
GlifName: k
Width: 486
VWidth: 1159
Flags: HMW
AnchorPoint: "Bottom" 242 -15 basechar 0
AnchorPoint: "Top" 123 739 basechar 0
LayerCount: 2
Fore
SplineSet
139.821 237.783 m 1
 179.041 264.088 236.827 302.698 273.83 334.003 c 0
 281.613 340.742 293.918 352.959 293.918 359.698 c 3
 293.918 373.783 274.094 372.522 259.396 374.783 c 1
 261.396 401 l 1
 285.047 399 316.915 399 341.305 399 c 3
 373.261 399 414.956 399.522 445.912 403 c 1
 447.912 373.088 l 1
 380.997 366.61 357.047 349.613 324.874 328.918 c 2
 208.475 255.783 l 1
 279.214 185.434 348.431 117.346 421.953 45.997 c 1
 441.085 34.912 467.258 27.956 487 25.651 c 1
 483.739 -5.739 l 1
 450.261 0.261 432.522 4.261 391.044 4.261 c 3
 361.827 4.261 330.871 -2.739 301.654 -4.739 c 1
 298.654 25.912 l 1
 337.525 30.912 337.525 34.39 349.308 35.39 c 1
 294.698 92.261 218.654 171.132 163.088 226.786 c 1
 141.299 213.478 l 1
 141.299 144.695 142.777 78.173 145.733 51.912 c 0
 147.211 35.346 153.601 35.39 166.733 31.173 c 0
 179.082 27.695 189.865 26.434 205.953 24.912 c 1
 200.431 -6.217 l 1
 167.736 -0.478 149.519 4.261 109.085 4.261 c 3
 81.956 4.261 49.61 -2.739 22.481 -4.739 c 1
 20.481 25.912 l 1
 32.264 27.173 44.569 29.434 54.569 31.434 c 0
 74.437 37.129 79.61 43.563 81.088 66.082 c 0
 84.783 120.692 87.739 205.868 87.739 274 c 3
 87.739 540.525 86.261 602.091 84.783 634.874 c 0
 84.044 650.874 79.349 664.874 66.264 664.874 c 3
 59.742 664.874 34.742 654.698 21.871 652.654 c 1
 13.871 682.044 l 1
 59.868 692.783 112.343 720 150.384 754 c 1
 170.123 739.044 l 1
 163.862 724.261 156.34 695.956 155.601 684.434 c 0
 148.211 609.956 139.821 361.261 139.821 237.783 c 1
EndSplineSet
Substitution2: "case-1" K
Substitution2: "pcap-1" k.pcap
Substitution2: "smcp-1" k.smcp
EndChar

StartChar: l
Encoding: 108 108 11
GlifName: l
Width: 248
VWidth: 1159
Flags: HMW
AnchorPoint: "Bottom" 119 -15 basechar 0
AnchorPoint: "TopRight" 242 581 basechar 0
AnchorPoint: "Top" 121 734 basechar 0
LayerCount: 2
Fore
SplineSet
154.258 300 m 3
 154.258 217.217 154.258 88.912 158.692 51.651 c 0
 160.17 35.868 173.689 33.434 188.082 31.434 c 0
 203.56 28.217 222.865 26.956 242.346 24.39 c 1
 237.607 -7 l 1
 200.434 -1 160.088 4 118.349 4 c 3
 90.959 4 42.871 -1 13.132 -5 c 1
 11.132 25.651 l 1
 24.22 26.912 41.83 29.434 55.44 31.173 c 0
 80.528 36.129 89.613 42.519 91.091 68.953 c 0
 94.786 122.78 97.003 206.651 97.003 274 c 3
 97.003 532.481 96.264 610.047 94.786 633.569 c 0
 94.047 654.789 89.352 665.657 76.528 665.657 c 3
 70.789 665.657 45.833 655.22 28.525 651.349 c 1
 20.525 680.739 l 1
 67.305 691.478 121.041 719.217 159.604 752.695 c 1
 178.604 736.956 l 1
 169.472 721.651 166.082 702.481 165.343 686 c 0
 157.953 611 154.258 424 154.258 300 c 3
EndSplineSet
Substitution2: "case-1" L
Substitution2: "pcap-1" l.pcap
Substitution2: "smcp-1" l.smcp
EndChar

StartChar: m
Encoding: 109 109 12
GlifName: m
Width: 791
VWidth: 1159
Flags: HMW
AnchorPoint: "Bottom" 390 -15 basechar 0
AnchorPoint: "Top" 407 465 basechar 0
LayerCount: 2
Fore
SplineSet
701.912 163.088 m 3
 701.912 112.478 704.129 65.868 704.129 50.085 c 0
 704.129 36.129 713.799477789 33.270338269 724.997 31.217 c 0
 735.563 29.478 768.956 27.434 780.261 24.912 c 1
 775.522 -6.478 l 1
 735.478 2.522 707.956 4.522 664.912 4.522 c 3
 637.783 4.522 603.437 -0.478 580.047 -6.478 c 1
 576.047 24.173 l 1
 588.091 26.695 598.443705963 27.2543252832 610.918 30.217 c 0
 632.094 35.217 638.369416495 40.6433319594 640.962 71.824 c 0
 642.44 89.651 646.135 129.827 646.135 146.393 c 3
 646.135 195.165990825 644.638914969 247.241842163 641.701 267.217 c 0
 634.05 323.393 613.701 359.003 549.44 359.003 c 3
 508.088 359.003 463.129 345.863346154 425.387 327.827 c 1
 426.909 319.783 427.431 311.739 427.431 301.173 c 3
 427.431 273.533714286 426.692 224.888571429 426.692 185.088 c 3
 426.692 127.739 428.909 68.651 428.909 50.868 c 0
 428.909 37.173 438.579477789 33.009338269 450.56 30.956 c 0
 461.387 29.217 479.214 27.695 490.78 24.651 c 1
 485.78 -6.478 l 1
 448.085 2.522 434.607 4.522 393.912 4.522 c 3
 365.217 4.522 325.044 -0.478 300.088 -6.478 c 1
 295.827 23.912 l 1
 308.915 26.695 326.355705963 26.4713252832 340.135 30.217 c 0
 357.135 34.956 362.410416495 42.2093319594 365.003 71.824 c 0
 366.481 89.39 370.915 128.783 370.915 145.088 c 3
 370.915 192.89846875 367.640352692 264.667849004 365.742 284.173 c 0
 362.047 327.871 345.525 370.308 295.481 370.308 c 3
 239.129 370.308 193.604 343.176 154.862 322.132 c 1
 153.384 229.959690987 148.211 106.363703863 148.211 66.824 c 3
 148.211 37.346 157.725911882 35.0439084707 178.079 31.217 c 0
 190.211 29.217 211.56 26.695 223.648 24.651 c 1
 219.387 -6.478 l 1
 181.692 0.827 152.736 4.522 112.041 4.522 c 3
 83.346 4.522 49.173 -0.478 20.478 -4.478 c 1
 17.217 25.912 l 1
 29.783 28.173 36.7002837001 28.5654218348 49.393 31.434 c 0
 73.698 37.173 82.7589272447 43.5342492265 87.261 71.824 c 0
 92.434 104.39 92.912 167.522 92.912 201.088 c 3
 92.912 222.393 90.3945401089 296.19505958 86.522 317.396 c 0
 81.349 343.874 75.654 344.613 61.308 344.613 c 3
 51.047 344.613 48.308 342.047 34.349 340.481 c 1
 31.044 367.654 l 1
 63.346 374.132 95.387 377.871 138.862 415.739 c 1
 160.123 402.827 l 1
 155.645 388.94228169 152.906 368.828577465 152.645 347.871 c 1
 201.428 377.566 265.865 415 328.736 415 c 3
 379.909 415 404.865 382.305 418.343 350.349 c 1
 458.387 371.617653846 516.953 400.739 593.78 400.739 c 3
 671.607 400.739 703.39 353.912 703.39 280.041 c 3
 703.39 244.211111111 701.912 203.094814814 701.912 163.088 c 3
EndSplineSet
Substitution2: "case-1" M
Substitution2: "pcap-1" m.pcap
Substitution2: "smcp-1" m.smcp
EndChar

StartChar: n
Encoding: 110 110 13
GlifName: n
Width: 526
VWidth: 1159
Flags: HMW
AnchorPoint: "Bottom" 269 -15 basechar 0
AnchorPoint: "Top" 272 465 basechar 0
LayerCount: 2
Fore
SplineSet
88.349 319.745 m 0
 81.698 340.264 77.742 343.047 64.44 343.047 c 3
 55.745 343.047 46.22 338.132 33.566 338.132 c 1
 31.044 365.827 l 1
 63.607 372.566 96.431 376.305 140.428 415.739 c 1
 161.689 402.044 l 1
 157.472 388.346633803 154.472 367.198549296 154.472 348.349 c 1
 204.56 379.349 258.909 414.739 324.519 414.739 c 3
 399.346 414.739 447.217 376.566 447.217 295.909 c 3
 447.217 260.497885714 445.217 221.748942857 445.217 183 c 3
 445.217 122.868 444.979176202 67.5826784865 446.651 49.302 c 1
 448.129 36.912 457.582477789 33.531338269 470.607 31.217 c 0
 480.129 29.478 507.088 26.651 516.044 24.39 c 1
 510 -6.478 l 1
 475.176 2.261 448.173 4.783 410.871 4.783 c 3
 385.569 4.783 337.61 -1.261 315.525 -7 c 1
 309.959 23.129 l 1
 320.176 25.651 345.924705963 27.7763252832 356.572 30.478 c 0
 374.355 34.956 380.847416495 42.7313319594 384.223 71.824 c 0
 386.223 91.739 389.44 134.786 389.44 153.44 c 3
 389.44 198.1115 387.864670681 264.481993056 386.267 283.346 c 0
 382.311 332.587820895 360.789 367.091 297.176 367.091 c 3
 242.39 367.091 194.648 347.871 156.689 324.783 c 1
 155.211 232.41621519 150.038 106.447050633 150.038 66.824 c 3
 150.038 37.607 159.813911882 35.3049084707 179.906 30.695 c 0
 188.384 28.695 217.041 25.651 226.258 24.129 c 1
 221.736 -7 l 1
 187.695 -1 150.387 4.783 113.868 4.783 c 3
 87 4.783 47.346 -1.261 20.478 -5.261 c 1
 16.695 25.39 l 1
 27.434 27.39 41.1372837001 28.8264218348 51.742 31.434 c 0
 76.047 37.173 84.5859272447 43.7952492265 89.088 71.824 c 0
 94.261 104.39 95 165.173 95 199 c 3
 95 221.088 93.4712666003 298.161340933 88.349 319.745 c 0
EndSplineSet
Substitution2: "case-1" N
Substitution2: "pcap-1" n.pcap
Substitution2: "smcp-1" n.smcp
EndChar

StartChar: o
Encoding: 111 111 14
GlifName: o
Width: 505
VWidth: 1159
Flags: HW
AnchorPoint: "Middle" 256 206 basechar 0
AnchorPoint: "Bottom" 250 -15 basechar 0
AnchorPoint: "Ogonek" 342 19.6582 basechar 0
AnchorPoint: "Horn" 421.5 341.8 basechar 0
AnchorPoint: "Top" 252 465 basechar 0
LayerCount: 2
Fore
SplineSet
256.739 419.783 m 3
 392 419.783 473 311 473 204.217 c 3
 473 77.739 379 -11 255.739 -11 c 3
 131 -11 32 72.044 32 196.349 c 3
 32 352.305 166.739 419.783 256.739 419.783 c 3
241.22 380.264 m 3
 163.83 380.264 94.428 314.701 94.428 220.736 c 3
 94.428 115.909 168.082 24.085 262.39 24.085 c 3
 354.83 24.085 409.094 102.522 409.094 186.481 c 3
 409.094 304.349 323.877 380.264 241.22 380.264 c 3
EndSplineSet
Substitution2: "case-1" O
Substitution2: "pcap-1" o.pcap
Substitution2: "smcp-1" o.smcp
EndChar

StartChar: p
Encoding: 112 112 15
GlifName: p
Width: 513
VWidth: 1159
Flags: HMW
AnchorPoint: "Bottom" 286 -15 basechar 0
AnchorPoint: "Top" 251 465 basechar 0
LayerCount: 2
Fore
SplineSet
87.695 33.088 m 3
 87.695 161.091 84.739 287.094 81.783 308.138 c 1
 78.088 334.094 67.481 344.311 56.613 344.311 c 3
 47.918 344.311 27.267 333.745 7.566 329.569 c 1
 1.044 358.742 l 1
 34.651 365.22 86.17 388.654 124.255 425.305 c 1
 137.299 419.481956522 141.255 420.144347826 142.733 366.088 c 1
 188.865 386.827 253.041 412.305 306.695 412.305 c 3
 403.695 412.305 479.695 309.133453608 479.695 216 c 3
 479.695 78.3491376146 359.695 -9.478 242.695 -9.478 c 3
 207.519 -9.478 173.604 0.088 144.211 12.742 c 1
 144.211 -71.607 144.211 -248.827 147.906 -286.871 c 0
 149.384 -302.393 164.208 -305.61 179.906 -306.61 c 0
 194.601 -307.349 211.774 -309.349 224.469 -310.088 c 1
 223.208 -341.478 l 1
 189.167 -340.478 159.994 -338.478 121.909 -338.478 c 3
 95.041 -338.478 52.261 -343.478 25.393 -347.478 c 1
 22.132 -317.827 l 1
 32.61 -316.566 40.088 -314.827 50.827 -312.827 c 0
 75.393 -306.827 79.566 -298.698 81.044 -270.959 c 0
 84.739 -217.654 87.695 -123.566 87.695 33.088 c 3
274.179 371.308 m 3
 216.176 371.308 177.346 350.22 141.255 334.176 c 1
 142.733 63.217 l 1
 176.516 43.39 214.56 27.085 264.865 27.085 c 3
 354.346 27.085 424.657 89.6457482015 424.657 187.918 c 3
 424.657 276.370502702 364.918 371.308 274.179 371.308 c 3
EndSplineSet
Substitution2: "case-1" P
Substitution2: "pcap-1" p.pcap
Substitution2: "smcp-1" p.smcp
EndChar

StartChar: q
Encoding: 113 113 16
GlifName: q
Width: 491
VWidth: 1159
Flags: HMW
AnchorPoint: "Bottom" 218 -15 basechar 0
AnchorPoint: "Top" 272 465 basechar 0
LayerCount: 2
Fore
SplineSet
375.833 66.956 m 1
 377.311 160.87413617 379.789 213.980995744 379.789 306.918 c 3
 379.789 312.918 376.695381012 329.325146447 371.094 335.396 c 0
 344.833 363.481 298.355 374.742 257.616 374.742 c 3
 166 374.742 94.777 294.58415 94.777 206.126 c 3
 94.777 117.17 152.997 27.475 250.604 27.475 c 3
 320.651 27.475 364.006 57.217 375.833 66.956 c 1
375.094 27.566 m 1
 339.223 12.261 284.047 -10.566 218.827 -10.566 c 3
 113.827 -10.566 33.827 88.217 33.827 181 c 3
 33.827 307.074697479 152.827 413.522 293.827 413.522 c 3
 367.434 413.522 376.047 390.305 403.915 390.305 c 3
 423.261 390.305 429.956 410.783 435.912 417.522 c 1
 456.478 406.783 l 1
 451.346 395.302 448.47460242 381.68780726 446.173 371.129 c 0
 441.739 353.912 438.543389171 334.693588727 434.827 261.566 c 0
 433.613191494 237.230991261 433.827 133.923537572 433.827 93 c 3
 433.827 -136.481 437.066757084 -223.361056673 440.478 -261.613 c 0
 443.434 -295.179 455.308987252 -302.146798725 470.478 -303.481 c 0
 479.695 -304.481 499.868 -306.22 506.346 -306.22 c 1
 504.346 -339.088 l 1
 483.173 -338.088 452.044 -337.088 413.698 -337.088 c 3
 386.83 -337.088 326.355 -342.088 299.487 -346.088 c 1
 297.226 -316.176 l 1
 308.487 -315.176 315.6212837 -314.522578165 327.009 -311.915 c 0
 353.663 -306.176 369.463133318 -296.651216792 372.138 -268.613 c 0
 375.094 -236.569 375.094 -92.61 375.094 27.566 c 1
EndSplineSet
Substitution2: "case-1" Q
Substitution2: "pcap-1" q.pcap
Substitution2: "smcp-1" q.smcp
EndChar

StartChar: r
Encoding: 114 114 17
GlifName: r
Width: 358
VWidth: 1159
Flags: HMW
AnchorPoint: "Bottom" 145 -15 basechar 0
AnchorPoint: "Top" 165.5 465 basechar 0
LayerCount: 2
Fore
SplineSet
149.821 196 m 0
 149.56 155.695 151.038 56.78 156.211 47.041 c 0
 163.601 37.651 170.73 34.434 208.252 32.173 c 0
 225.818 31.173 245.384 30.912 260.689 29.912 c 1
 259.95 0 l 1
 224.865 1 160.434 4 122.61 4 c 3
 93.393 4 63.915 -1 34.698 -5 c 1
 32.176 25.651 l 1
 42.654 26.651 52.349 26.912 62.61 30.129 c 0
 76.525 34.129 87.61 41.736 89.088 71.041 c 0
 90.566 96.824 92.566 190.956 92.566 218 c 3
 92.566 241.915 91.088 291.006 89.61 317.182 c 0
 88.132 331.311 81.481 348.44 70.874 348.44 c 3
 61.396 348.44 47.745 337.003 32.742 332.566 c 1
 25.698 360 l 1
 57.478 367 103.17 397.478 139.167 435.956 c 1
 152.038 429.434 155.733 429.434 155.733 414.129 c 3
 155.733 403.651 154.255 372.695 154.255 336.261 c 1
 165.39 351.918 270.994 422.522 293.478 423.261 c 1
 315.783 423.261 347.695 396.827 347.695 373.22 c 3
 347.695 350.311 320.261 332.965 291.44 332.965 c 1
 286.223 355.528 273.223 361.572 258.745 361.572 c 3
 231.871 361.572 154.994 324.698 153.516 289.085 c 0
 150.56 253.651 149.821 212.217 149.821 196 c 0
EndSplineSet
Substitution2: "case-1" R
Substitution2: "pcap-1" r.pcap
Substitution2: "smcp-1" r.smcp
EndChar

StartChar: s
Encoding: 115 115 18
GlifName: s
Width: 352
VWidth: 1159
Flags: HMW
AnchorPoint: "Bottom" 164 -15 basechar 0
AnchorPoint: "Top" 182.5 465 basechar 0
LayerCount: 2
Fore
SplineSet
53.739 119.78 m 1
 77 64.654 97.944 27.607 170.953 27.607 c 1
 218.176 27.607 259.657 48.956 259.657 89.132 c 1
 259.657 139.698 209.83 165.959 170.044 181.742 c 0
 120.783 202.437 49.522 222.481 49.522 292.959 c 1
 49.522 351.915 113.217 408.261 192.478 408.261 c 1
 225.217 408.261 254.695 402 285.434 395.739 c 1
 285.434 395.739 292.912 342.871 297.651 307.959 c 1
 280.302 303.742 l 1
 263.434 342.267 229.308 373.915 179.176 373.915 c 1
 136.475 373.915 104.56 346.478 104.56 312.912 c 1
 104.56 287.041 127.214 260.997 192.085 239.475 c 0
 275.522 212.214 316.434 158.824 316.434 105.39 c 1
 316.434 26.739 222.22 -8.217 152.478 -8.217 c 1
 104.956 -8.217 67.956 3.566 31.695 18.349 c 1
 36.217 32.349 38.478 46.349 38.478 61.349 c 1
 38.478 71.522 36.739 101.563 32 111.736 c 1
 53.739 119.78 l 1
EndSplineSet
Substitution2: "case-1" S
Substitution2: "pcap-1" s.pcap
Substitution2: "smcp-1" s.smcp
EndChar

StartChar: t
Encoding: 116 116 19
GlifName: t
Width: 341
VWidth: 1159
Flags: HMW
AnchorPoint: "Bottom" 183 -15 basechar 0
AnchorPoint: "TopRight" 313 531 basechar 0
AnchorPoint: "Top" 143.5 508 basechar 0
LayerCount: 2
Fore
SplineSet
17.654 377.569 m 1
 67.827 399.739 99.343 421.604 124.079 474.607 c 1
 141.428 471.868 l 1
 137.95 446.912 137.689 425.956 135.689 399 c 1
 188.299 400.478 250.692 399.739 303.302 401.217 c 1
 300.346 360.22 l 1
 247.475 360.22 186.082 361.698 133.211 362.437 c 1
 129.472 298.349 126.906 226.39 126.906 105.956 c 3
 126.906 69.346 142.733 31.736 193.428 31.736 c 3
 239.604 31.736 275.085 51.868 305.868 67.173 c 1
 305.868 67.173 313.695 52.346 317.39 44.956 c 1
 279.651 20.478 216.173 -10 158.695 -10 c 3
 138.695 -10 66.695 0.261 66.695 98.566 c 3
 66.695 199.871 71.478 262.393 73.739 361.698 c 1
 73.739 361.698 40.566 359.481 19.871 359.481 c 1
 17.654 377.569 l 1
EndSplineSet
Substitution2: "case-1" T
Substitution2: "pcap-1" t.pcap
Substitution2: "smcp-1" t.smcp
EndChar

StartChar: u
Encoding: 117 117 20
GlifName: u
Width: 506
VWidth: 1159
Flags: HMW
AnchorPoint: "Bottom" 255 -15 basechar 0
AnchorPoint: "Ogonek" 391.65 -3 basechar 0
AnchorPoint: "Horn" 434.5 333 basechar 0
AnchorPoint: "Top" 264 465 basechar 0
LayerCount: 2
Fore
SplineSet
293.657 369 m 1
 341.176 378.739 390.695 391.217 427.519 401.956 c 1
 440.085 386.478 l 1
 428.956 342.478 422.783 175 422.783 137 c 3
 422.783 107 425.209932919 81.1176708093 427.739 54 c 0
 429.261 38.258 432.783 25.821 440.434 25.821 c 3
 444.434 25.821 470.695 35.17 490.695 41.736 c 1
 498.783 13.607 l 1
 468.919168142 4.98705714286 431.292124688 -4.88043765578 404.877 -18.088 c 0
 399.484053988 -20.6539730062 396.9855 -23.566 390.399 -23.566 c 3
 371.833 -23.566 371.311 -1.566 366.311 50.434 c 1
 322.179 31.651 239.437 -11.261 177.261 -11.261 c 3
 139.522 -11.261 103.256365648 5.11825989098 86.044 43.217 c 0
 74.522 68.739 69.261 95.261 69.261 144.305 c 3
 69.261 198.783 71.739 256.566 73.044 312 c 0
 73.044 319.39 71.393 340.657 64.003 340.657 c 3
 56.352 340.657 31.698 323.959 25.437 321.176 c 1
 14.654 349.305 l 1
 54.61 366.569 96.082 394.261 132.079 421.478 c 1
 151.645 407.305 l 1
 137.428 334.695 131.689 249.302 131.689 169.431 c 3
 131.689 97.909 146.689 35.648 217.167 35.648 c 3
 262.519 35.648 327.264 64.302 365.311 81.607 c 1
 364.745 142.516 369.484 299.613 369.484 307.135 c 3
 369.484 345.352 346.792 344.308 301.962 340.349 c 1
 293.657 369 l 1
EndSplineSet
Substitution2: "case-1" U
Substitution2: "pcap-1" u.pcap
Substitution2: "smcp-1" u.smcp
EndChar

StartChar: v
Encoding: 118 118 21
GlifName: v
Width: 418
VWidth: 1159
Flags: HMW
AnchorPoint: "Bottom" 193 -15 basechar 0
AnchorPoint: "Top" 210 465 basechar 0
LayerCount: 2
Fore
SplineSet
419 386.088 m 1
 379.217 367.959 379.179693223 366.946032662 360 326.525 c 0
 329.739 262.437 302.695 196.827 272.217 133 c 0
 251 88.739 225.044 38 208.695 -20 c 1
 181.349 -20 l 1
 151.522 110.044 99.566 246.088 57.349 346.61 c 0
 53.0411736016 356.810293949 48.3295222106 367.556661731 36.088 369.61 c 0
 26.566 371.349 13.783 375.827 3 377.566 c 1
 6 405 l 1
 27.434 401 60.563 400 81.997 400 c 3
 116.258 400 165.519 405 197.78 411 c 1
 202.78 381.088 l 1
 184.17 375.827 138.906 371.827 138.906 371.827 c 0
 131.906 370.827 127.906 369.827 127.906 361.088 c 3
 127.906 360.088 129.756031328 350.108481307 130.906 345.088 c 0
 148.909 268.346 192.475 156.733 217.475 81.469 c 1
 254.78 156.994 293.391582822 241.807539878 320.654 325.22 c 0
 322.915 332.22 325.654 338.22 325.654 347.22 c 3
 325.654 370.003 317.959 372.044 265.305 383.088 c 1
 273.305 412 l 1
 304.827 405 319.349 404 337.61 404 c 3
 361.827 404 390.783 409 411 415 c 1
 419 386.088 l 1
EndSplineSet
Substitution2: "case-1" V
Substitution2: "pcap-1" v.pcap
Substitution2: "smcp-1" v.smcp
EndChar

StartChar: w
Encoding: 119 119 22
GlifName: w
Width: 657
VWidth: 1159
Flags: HMW
AnchorPoint: "Bottom" 294 -15 basechar 0
AnchorPoint: "Top" 323 465 basechar 0
LayerCount: 2
Fore
SplineSet
659 385.827 m 1
 623.654 367.698 623.399693223 366.685032662 604.481 328.613 c 0
 571.871 263.742 529.305 197.61 495.956 133 c 0
 473.434 89 447.173 38 430.041 -20 c 1
 401.651 -20 l 1
 379.868 81.783 351.434 188.566 322.566 278.349 c 1
 300.827 230.088 279.159683858 182.275367716 256.349 134.827 c 0
 234.61 89.783 208.654 38.522 191 -20 c 1
 158.654 -20 l 1
 145.478 98 95.217 242.956 52.478 344.261 c 0
 47.6481736016 355.505293949 41.8925222106 367.817661731 32 369.61 c 0
 23 371.088 12 375.044 2 377.305 c 1
 5 405 l 1
 25.129 401 56.953 400 77.082 400 c 3
 110.56 400 148.038 402 179.516 408.261 c 1
 183.516 378.349 l 1
 164.123 372.827 131.642 371.827 131.642 371.827 c 0
 125.425 371.088 121.947 370.088 121.947 362.393 c 3
 121.947 359.827 124.102031328 349.325481307 125.774 343.261 c 0
 145.604 264.953 176.475 167.862 201.736 90.51 c 1
 238.868 165.645 269.217 229.475 310.61 313.915 c 1
 306.393 324.915 302.654 337.654 298.698 347.915 c 0
 294.481 359.481 291.461522211 367.034661731 280.525 369.349 c 0
 270.22 371.088 255.393 375.566 243.827 377.305 c 1
 246.827 405 l 1
 268.783 401 301.956 400 323.912 400 c 3
 356.085 400 402.214 405.261 432.387 411.783 c 1
 437.387 381.871 l 1
 420.604 376.349 381.516 372.088 381.516 372.088 c 0
 374.255 371.088 369.255 370.088 369.255 361.088 c 3
 369.255 360.088 370.366031328 350.108481307 371.255 345.088 c 0
 385.343 267.563 412.865 155.167 437.343 79.903 c 1
 477.258 159.604 523.305 240.739 565.396 328.352 c 0
 569.056332498 335.912684334 571.179 341.352 571.179 350.352 c 3
 571.179 369.22 562.745 373.088 511.657 383.61 c 1
 518.874 412.783 l 1
 550.918 405 567.44 404 585.962 404 c 3
 607.308 404 631.132 409 649 415 c 1
 659 385.827 l 1
EndSplineSet
Substitution2: "case-1" W
Substitution2: "pcap-1" w.pcap
Substitution2: "smcp-1" w.smcp
EndChar

StartChar: x
Encoding: 120 120 23
GlifName: x
Width: 435
VWidth: 1159
Flags: HW
AnchorPoint: "Bottom" 211 -15 basechar 0
AnchorPoint: "Top" 220 465 basechar 0
LayerCount: 2
Fore
SplineSet
8 21.695 m 1
 38 27.651 50.044 30.346 60 41.563 c 2
 194.437 202.871 l 1
 121.305 331.091 l 2
 94.783 370.915 84.61 372.566 19 373.349 c 1
 19 404 l 1
 36 403 69 401 86 401 c 0
 124 401 169 403 205 407 c 1
 209 377.088 l 1
 176.953 374.522 167.865 373.088 167.865 368.088 c 3
 167.865 366.088 169.126 362.349 170.126 360.349 c 2
 230.129 242.302 l 1
 301.264 330.481 l 2
 307.525 337.742 320.047 350.525 320.047 361.003 c 3
 320.047 378.044 279.871 374.088 259.783 379.522 c 1
 263 405 l 1
 279 404 306 404 322 404 c 0
 352 404 399 406 420 407 c 1
 423 382.261 l 1
 384.129 374.088 370.61 359.308 355.61 342.786 c 0
 319.261 300.885666667 282.912 258.724333333 246.563 216.824 c 1
 277.085 161.577666667 304.868 106.331333333 335.129 51.346 c 0
 350.651 27.434 373.258 30.173 427 21.956 c 1
 423 -5 l 1
 396 -1 346 2 318 2 c 0
 291 2 261 -1 230 -5 c 1
 227 19.956 l 1
 271.091 27.783 277.135 23.434 277.135 33.956 c 3
 277.135 35.956 276.613 38.956 275.352 41.217 c 2
 209.132 175.654 l 1
 116.563 57.563 l 2
 112.563 52.563 109.563 47.563 109.563 42.563 c 3
 109.563 29.39 121.346 27.912 166.739 22.173 c 1
 163 -6 l 1
 141 -4 111 -1 88 -1 c 0
 63 -1 34 -4 11 -6 c 1
 8 21.695 l 1
EndSplineSet
Substitution2: "case-1" X
Substitution2: "pcap-1" x.pcap
Substitution2: "smcp-1" x.smcp
EndChar

StartChar: y
Encoding: 121 121 24
GlifName: y
Width: 446
VWidth: 1159
Flags: HMW
AnchorPoint: "Bottom" 291 -15 basechar 0
AnchorPoint: "Top" 232.5 465 basechar 0
LayerCount: 2
Fore
SplineSet
104.126 -346 m 1
 100.648 -346 84.519 -343 52 -343 c 3
 22.261 -343 15.261 -345 -5.478 -346 c 1
 -5.478 -346 -4.478 -331.044 -6.478 -320.827 c 1
 79.258 -290.569 60.211 -282.405 181.742 -26.519 c 1
 149.566 105.061845528 83.956 311.467926829 59.305 349.566 c 0
 51.522 362.698 48.566 367.871 39.61 371.827 c 0
 30.088 373.566 17.566 376.044 7.044 377.566 c 1
 11.044 406 l 1
 32.217 402 64.868 400 86.041 400 c 3
 118.997 400 146.214 401 177.17 407 c 1
 181.17 380.044 l 1
 176.211 379.261 143.472 371.566 138.513 371.566 c 0
 131.774 370.827 128.818 369.827 128.818 362.654 c 3
 128.818 360.61 131.34 353.349 132.862 347.566 c 0
 150.082 271.296374074 186.258 150.99312963 222.607 53.255 c 1
 270.129 134.470687243 316.739 237.357238683 346.959 325.525 c 0
 349.481 332.786 352.742 343.613 352.742 351.308 c 3
 352.742 369.654 344.959 368.305 274.132 382.827 c 1
 280.132 411 l 1
 311.393 404 354.654 400 372.654 400 c 3
 395.305 400 420.434 402 439.346 408 c 1
 444.346 379.566 l 1
 405.824 369.305 400.478 365.61 383.522 324.22 c 0
 368.522 288.57329375 295.566 134.4274375 223.522 -11.739 c 0
 157.076 -143.414 102.56 -288.83 104.126 -346 c 1
EndSplineSet
Substitution2: "case-1" Y
Substitution2: "pcap-1" y.pcap
Substitution2: "smcp-1" y.smcp
EndChar

StartChar: z
Encoding: 122 122 25
GlifName: z
Width: 453
VWidth: 1159
Flags: HMW
AnchorPoint: "Bottom" 226 -15 basechar 0
AnchorPoint: "Top" 232.5 465 basechar 0
LayerCount: 2
Fore
SplineSet
353.956 -0.522 m 2
 168.956 -0.522 l 2
 142.217 -0.522 49 -3.478 29.261 -7.912 c 1
 21.217 18.956 l 1
 128.654 124.641367647 236.918 245.75075 333.053 367.871 c 1
 304.267 368.61 276.742 369.349 247.956 369.349 c 3
 199.956 369.349 156.956 368.871 109.956 365.393 c 0
 72.695 362.163296297 53.915 346.822203703 38.695 304.827 c 1
 13.739 313.088 l 1
 50 412.302 l 1
 72 403.695 100.739 400 231.956 400 c 3
 323.434 400 397.912 399.261 420.912 404.434 c 1
 430.912 384.695 l 1
 330.519 269.719042857 216.953 153.732528571 116.903 28.651 c 1
 281.956 29.39 l 2
 315.044 29.39 348.569 32.302 367.176 42.78 c 0
 382.088 51.78 392.956 63.041 402.695 86.041 c 0
 406.695 96.041 410.217 106.78 414.478 121.519 c 1
 437.956 113.519 l 1
 401.912 -7.912 l 1
 401.912 -7.912 384.173 -0.522 353.956 -0.522 c 2
EndSplineSet
Substitution2: "case-1" Z
Substitution2: "pcap-1" z.pcap
Substitution2: "smcp-1" z.smcp
EndChar

StartChar: A
Encoding: 65 65 26
GlifName: A_
Width: 705
VWidth: 1159
Flags: HMW
AnchorPoint: "Bottom" 353 -15 basechar 0
AnchorPoint: "Ogonek" 523 27 basechar 0
AnchorPoint: "Top" 367 699 basechar 0
LayerCount: 2
Fore
SplineSet
233.607 294.047 m 1
 292.349 290.352 409.135 290.569 463.616 290.569 c 1
 421.745 399.443 394.179 466.49 350.352 577.625 c 1
 306.481 468.012 274.522 393.66 233.607 294.047 c 1
499.446 -9.217 m 1
 499.446 -9.217 495.012 13.305 492.056 24.39 c 1
 538.232 34.39 558.229 40.17 546.924 70.258 c 0
 520.888157895 138.883756303 504.8606 178.893336135 478.05 249.572 c 1
 413.874 257.223 311.132 261.918 219.173 256.745 c 1
 189.463788461 187.268506329 168.796230769 145.400962025 143.038 79.692 c 0
 129.211 42.648 149.035 28.478 223.167 30.085 c 1
 221.689 -8.695 l 1
 191.89919239 -3.05023847791 145.750538659 0.218829290265 102.349950187 0.218829290265 c 1
 70.0935289587 0.218829290265 39.3391923896 -1.54380488171 17 -5.261 c 1
 17 -5.261 14.044 19.478 13.305 29.824 c 1
 62.566 41.997 80.563 46.821 93.129 73.736 c 0
 186.494388235 284.250944351 266.147388235 470.198500843 335.044 640.783 c 0
 350.305 679.044 348.349 679.783 353.654 711.739 c 1
 390.651 711.739 l 1
 396.695 684.739 393 682.044 407.261 642.783 c 0
 485.595625 412.723022951 532.9245 273.066455738 630.132 55.997 c 0
 641.088 31.563 660.607 30.868 692.261 28.085 c 1
 692.261 28.085 691.522 4.085 690.783 -4.783 c 1
 662.35525178 -0.752261606272 632.885936896 1.82526091581 602.455357484 1.82526091581 c 1
 567.409119621 1.82526091581 531.443410708 -1.3977571444 499.446 -9.217 c 1
EndSplineSet
Position2: "cpsp-1" dx=0 dy=0 dh=50 dv=100
Substitution2: "c2pc-1" a.pcap
Substitution2: "c2sc-1" a.smcp
EndChar

StartChar: B
Encoding: 66 66 27
GlifName: B_
Width: 584
VWidth: 1159
Flags: HMW
AnchorPoint: "Bottom" 282 -15 basechar 0
AnchorPoint: "Top" 249 699 basechar 0
LayerCount: 2
Fore
SplineSet
15.305 30.346 m 1
 67.264 32.868 93.39 32.346 94.868 68.041 c 0
 94.868 73.2761157025 97.085 173.420198347 97.085 292 c 3
 97.085 464.094076923 91.912 610.786615385 91.173 620.003 c 0
 90.434 634.179 88.217 646.481 67.217 650.698 c 0
 60.478 652.437 20.827 658.654 14.088 659.654 c 1
 20.305 693.739 l 1
 30.044 693.739 70 684 123.217 684 c 3
 175.173 684 229.129 694 278.085 694 c 3
 429.953 694 470.17 577.472263736 470.17 517.217 c 3
 470.17 446.590107382 420.692 400.036369127 334.695 369 c 1
 457.695 358.368638298 545.085 278.252670213 545.085 181.522 c 3
 545.085 69.7922931937 443.085 -4.522 284.085 -4.522 c 3
 232.129 -4.522 183.173 1.478 127.217 1.478 c 3
 69.261 1.478 25.044 -2.522 18.044 -2.522 c 1
 15.305 30.346 l 1
278.085 380.217 m 0
 355.698 390.671885714 397.396 441.6965 397.396 503.176 c 3
 397.396 541.243727848 377.091 657.437 264.783 657.437 c 3
 249.739 657.437 222.39 655.437 212.346 653.437 c 0
 172.598 646.871 170.859 633.918 170.12 620.003 c 0
 162.73 536.496 164.208 378.217 164.208 378.217 c 1
 258.475 378.217 266.519 378.956 278.085 380.217 c 0
254.085 349.783 m 0
 162.73 349.783 l 1
 163.469 248.273402062 163.469 149.014041237 164.947 87.909 c 0
 165.686 49.604 169.903 40.997 212.085 36.041 c 0
 221.824 34.563 265.519 29.824 290.736 29.824 c 3
 392.393 29.824 472.311 80.7338323353 472.311 179.305 c 3
 472.311 263.048578947 409.352 349.783 254.085 349.783 c 0
EndSplineSet
Position2: "cpsp-1" dx=0 dy=0 dh=50 dv=100
Substitution2: "c2pc-1" b.pcap
Substitution2: "c2sc-1" b.smcp
EndChar

StartChar: C
Encoding: 67 67 28
GlifName: C_
Width: 743
VWidth: 1159
Flags: HW
AnchorPoint: "Bottom" 416 -15 basechar 0
AnchorPoint: "Top" 426 699 basechar 0
LayerCount: 2
Fore
SplineSet
44.827 348 m 3
 44.827 527.657912184 169.871 710.783 448.827 710.783 c 3
 509.783 710.783 543.478 707.566 602.217 691.61 c 0
 642.695 681.803142857 667.003 682.322142857 679.393 687.695 c 1
 704.566 674.217 l 1
 666.827 614.739 667.827 577.739 667.827 556 c 0
 667.827 541.22 660.824 536.047 637.176 536.047 c 1
 625.569 580.900944954 640.44 616.628568807 609.572 633.874 c 0
 551.396 663.264 507.874 674.959 438.481 674.959 c 3
 263.865 674.959 127.208 560.754801616 127.208 362.78 c 3
 127.208 153.753279725 287.56 24.302 450.173 24.302 c 3
 557.654 24.302 641.481 71.0916808511 674.044 166.302 c 1
 700.261 159.607 l 1
 691.522 113.912 683.783 88.434 672.305 42.739 c 1
 609.566 11.855 535.437 -13 439.827 -13 c 3
 219.827 -13 44.827 137.798158182 44.827 348 c 3
EndSplineSet
Position2: "cpsp-1" dx=0 dy=0 dh=50 dv=100
Substitution2: "c2pc-1" c.pcap
Substitution2: "c2sc-1" c.smcp
EndChar

StartChar: D
Encoding: 68 68 29
GlifName: D_
Width: 792
VWidth: 1159
Flags: HW
AnchorPoint: "Bottom" 357 -15 basechar 0
AnchorPoint: "Top" 357 699 basechar 0
LayerCount: 2
Fore
SplineSet
319.519 33.346 m 1
 528.915 33.346 668.572 140.145391124 668.572 341.566 c 3
 668.572 529.102399699 525.091 660.827 316.176 660.827 c 3
 263.953 660.827 234.707532689 656.107966621 182.205 650.827 c 0
 154.205 647.349 156.598 637.179 156.598 611.959 c 0
 156.598 502.099028012 155.478568048 401.410226459 155.478568048 299.799731864 c 3
 155.478568048 227.232404538 155.654846154 154.206037407 157.076 77.126 c 0
 157.076 59.126 156.944 43.214 184.683 40.258 c 0
 220.903 36.563 265.689 33.346 319.519 33.346 c 1
13 686.434 m 1
 54.173 684.956 78.129 682 119.302 682 c 3
 206.302 682 254.302 694.434 341.302 694.434 c 3
 558.912 694.434 744.302 556.493681235 744.302 348.956 c 3
 744.302 76.3135992149 524.173 -5.434 317.302 -5.434 c 3
 243.302 -5.434 200.302 0 126.302 0 c 3
 55.434 0 45.478 -4.217 16.783 -8.434 c 1
 14.522 25.912 l 1
 62.047 29.39 82.302 30.651 84.302 61.563 c 1
 87.0164196719 126.729031234 88.1355864821 211.274855751 88.1355864821 296.181192261 c 3
 88.1355864821 423.502239637 85.0760222952 551.866902482 80.868 618.132 c 1
 78.868 653.871 69.176 649.349 12.261 649.871 c 1
 13 686.434 l 1
EndSplineSet
Position2: "cpsp-1" dx=0 dy=0 dh=50 dv=100
Substitution2: "c2pc-1" d.pcap
Substitution2: "c2sc-1" d.smcp
EndChar

StartChar: E
Encoding: 69 69 30
GlifName: E_
Width: 619
VWidth: 1159
Flags: HW
AnchorPoint: "Bottom" 296 -15 basechar 0
AnchorPoint: "Ogonek" 535 15 basechar 0
AnchorPoint: "Top" 299 699 basechar 0
LayerCount: 2
Fore
SplineSet
16.739 689.173 m 1
 70.3320885244 686.479653087 166.038934129 685.45490625 246.527524414 685.45490625 c 3
 382.717015186 685.45490625 525.829113779 688.571721504 538.041 691.39 c 1
 548.626466649 682.095127387 552.356870117 676.459819082 552.356870117 667.715229492 c 3
 552.356870117 651.210824988 539.165878579 623.613149822 532.041 540.176 c 1
 503.607 537.959 l 1
 496 589.225937281 522.570636437 630.515731961 474.041 638.569 c 0
 429.792182003 647.072591706 361.051005379 651.927291016 294.736878906 651.927291016 c 3
 260.623877018 651.927291016 227.282372303 650.696409312 198.252 648.176 c 0
 168.768 646.698 162.293 637.657 161.554 617.308 c 0
 158.598 529.958420892 154.903 447.181358043 154.164 366.651 c 1
 225.211 368.129 396.695 368.129 412.261 368.868 c 0
 448.739 372.563 450.085 388.384 467.651 440.214 c 1
 499.041 435.041 l 1
 490.893871246 405.705162337 487.400660816 376.541225546 487.400660816 347.383374216 c 3
 487.400660816 316.042262479 491.266612723 284.969162337 497.041 253.437 c 1
 464.173 246.786 l 1
 444.695 319.874 451.754463606 327.132 412.261 330.088 c 0
 363.302 333.783 257.343 333.044 154.164 333.783 c 1
 153.425 231.122709827 156.381 141.022660264 165.249 71.082 c 0
 168.205 52.516 171.721992426 42.953 201.252 42.214 c 0
 252.347241452 38.9363314724 297.145063427 35.8381365573 339.599510627 35.8381365573 c 1
 383.664693721 35.8381365573 425.033089789 39.119820191 468.657 48.865 c 0
 518.261 63.645 527.217 89.130173913 563.085 171.258 c 1
 589.78 164.519 l 1
 575.868 105.207335484 563.041 59.1155290323 551.302 0 c 1
 473.880996582 -0.40323439278 341.213302349 2.26863872129 235.233822888 2.26863872129 c 3
 155.196984175 2.26863872129 69.7674719473 0.408358678846 26.739 -6.651 c 1
 19.349 25.478 l 1
 71.044 32.607 88.041 41.953 88.041 70.214 c 1
 89.3696916796 95.8866847927 90.101150078 213.286036354 90.101150078 318.530095175 c 3
 90.101150078 441.282993124 89.0039624805 588.426866848 86.563 623.176 c 0
 85.824 649.132 85.261 649.132 13.044 660 c 1
 16.739 689.173 l 1
EndSplineSet
Position2: "cpsp-1" dx=0 dy=0 dh=50 dv=100
Substitution2: "c2pc-1" e.pcap
Substitution2: "c2sc-1" e.smcp
EndChar

StartChar: F
Encoding: 70 70 31
GlifName: F_
Width: 566
VWidth: 1159
Flags: HW
AnchorPoint: "Bottom" 171 -15 basechar 0
AnchorPoint: "Top" 309 699 basechar 0
LayerCount: 2
Fore
SplineSet
291.727 -10.478 m 1
 244.0555 -2.44134513775 209.26375 1.14566650391 171.825375 1.14566650391 c 3
 134.909 1.14566650391 95.607 -2.48255566406 38.393 -9 c 1
 29.437 22.868 l 1
 82.698 33.4272857143 101.173 40.8903571429 101.173 66.299 c 1
 102.073454679 83.6327525681 102.433353605 207.781833699 102.433353605 253.670440255 c 1
 102.433353605 358.424308177 100.557880045 577.061253517 98.956 620.308 c 0
 98.217 644.437 87.61 644.437 15.915 655.044 c 1
 19.61 684.217 l 1
 73.9864283393 681.892410637 135.925120561 680.981297879 196.930343954 680.981297879 c 3
 354.992015282 680.981297879 507.007512555 687.573384046 511.258 697.39 c 1
 529.354527923 688.188160046 533.824 679.085 533.824 659.651 c 1
 533.824 640.522 529.828540012 606.120964302 527.912 550.182 c 1
 498.739 547.965 l 1
 490.088 592.839 496.055377865 626.860768472 458.871 634.135 c 0
 390.129 646.654 279.818879883 651.836381836 191.164 645.176 c 0
 174.73 643.698 171.648450196 631.139330078 170.991 611.308 c 0
 168.035 528.255590909 168.774 449.419693182 168.774 372.566 c 1
 240.082 374.044 387.287116211 371.176766602 402.786 372.566 c 0
 436.132 376.261 439.783 395.214 455.783 439.475 c 1
 486.912 431.953 l 1
 478.764871246 404.444162337 475.271660816 377.107225546 475.271660816 349.776374216 c 3
 475.271660816 320.523262479 479.137612723 291.277162337 484.912 261.833 c 1
 452.305 253.616 l 1
 433.349 320.701 439.559482422 330.348639648 402.786 333.786 c 0
 353.827 337.481 271.475 336.742 168.035 337.481 c 1
 171.73 217.173 166.287813477 139.956833984 177.642 70.299 c 0
 180.598 51.327 186.51 39.7583 298.249 34.692 c 1
 291.727 -10.478 l 1
EndSplineSet
Position2: "cpsp-1" dx=0 dy=0 dh=50 dv=100
Substitution2: "c2pc-1" f.pcap
Substitution2: "c2sc-1" f.smcp
EndChar

StartChar: G
Encoding: 71 71 32
GlifName: G_
Width: 803
VWidth: 1159
Flags: HW
AnchorPoint: "Bottom" 426 -15 basechar 0
AnchorPoint: "Top" 449 699 basechar 0
LayerCount: 2
Fore
SplineSet
43 355 m 3
 43 602.685956054 292.604 711.478 466 711.478 c 3
 533.698 711.478 586.962 694.956 633.874 673.17 c 0
 655.61 666.953 656.132 672.082 662.217 699.129 c 1
 687.695 699.434 l 1
 704.956 538.305 l 1
 675.522 533.349 l 1
 642.484 630.393 561.528 677.132 449.003 677.132 c 3
 249.651 677.132 122.686 524.795381836 122.686 364.173 c 3
 122.686 174.162008245 275.903 18.868 472.56 18.868 c 3
 525.472 18.868 576.742 31.893 634.355 53.824 c 0
 649.616 59.519 650.355 70.604 650.355 92.824 c 0
 650.355 135.596048626 651.833 206.63092706 651.833 270.789 c 0
 651.833 295.264 648.182 311.349 608.317 314.305 c 0
 561.179 315.783 539.223 317.044 499.132 319.349 c 1
 501.132 349.261 l 1
 600.261 339.261 708.868 340 756.563 346.522 c 1
 759.563 322.522 l 1
 730.519 316.044 723.129 310.871 722.39 293.264 c 0
 720.912 213.579652526 720.173 140.983686776 718.695 83.648 c 0
 717.956 63.997 722.912 59.085 746.695 48.783 c 1
 745 27 l 1
 666 15.0343421053 502 -14.739 448 -14.739 c 3
 212.953 -14.739 43 146.259073852 43 355 c 3
EndSplineSet
Position2: "cpsp-1" dx=0 dy=0 dh=50 dv=100
Substitution2: "c2pc-1" g.pcap
Substitution2: "c2sc-1" g.smcp
EndChar

StartChar: H
Encoding: 72 72 33
GlifName: H_
Width: 831
VWidth: 1159
Flags: HW
AnchorPoint: "Bottom" 419 -15 basechar 0
AnchorPoint: "Top" 427 699 basechar 0
LayerCount: 2
Fore
SplineSet
26.264 691.261 m 1
 71.044 685 111.085 681 154.126 681 c 1
 185.211 681 217.035 683 255.076 687.261 c 1
 257.598 653.654 l 1
 222.246 647.044 181.568490193 651.426941157 179.73 634.132 c 0
 175.296 597.823290323 172.34 470.003806452 170.862 366.305 c 1
 351.178 361.132 594.024 368.522 679.748 366.305 c 1
 679.748 434.65536965 678.514869902 513.137397943 676.053 612.871 c 0
 675.053 654.83 646.493 644.217 598.446 660.132 c 1
 604.229 691 l 1
 640.009 684.739 669.572 681 698.396 681 c 1
 730.959 681 764.522 686 807.78 698 c 1
 814.824 665.176 l 1
 765.824 649 757.511019991 657.276319845 756.217 625.871 c 0
 751.044 527.775014134 743.654 364.181240283 743.654 238.76 c 1
 743.654 152.743365303 745.228857566 77.236379816 751.044 47.651 c 0
 757.695 21.868 778.387 26.349 814.912 19.129 c 1
 814.912 19.129 809.129 -1.393 809.868 -11.739 c 1
 779.044 -4.739 747.22 0 713.918 0 c 1
 679.616 0 644.314 -5.522 606.534 -14.739 c 1
 606.534 -14.739 599.751 8 598.273 16.868 c 1
 649.449 30.783 670.95213849 27.0357874945 672.358 56.651 c 0
 677.531 159.273296358 679.009 223.601236856 679.748 330.481 c 1
 628.018 334.176 280.234 333.437 170.123 330.481 c 1
 169.384 238.45512011 168.026111803 131.764984643 170.862 60.129 c 0
 172.34 23.346 210.507 31.261 251.642 20.346 c 1
 251.642 20.346 246.859 -2.393 246.12 -12.739 c 1
 200.123 -4 161.082 0 123.041 0 c 1
 90.478 0 59.393 -3 26.83 -10.739 c 1
 26.83 -10.739 21.047 12.739 19.569 26.041 c 1
 62.355 37 91.3543043148 29.4569561622 92.915 60.129 c 0
 98.61 159.693113038 102.044 314.599855852 102.044 437.117 c 1
 102.044 528.881904594 100.366055786 606.086730277 96.61 629.132 c 0
 91.437 652.176 67.789 649.566 23.003 656.915 c 1
 26.264 691.261 l 1
EndSplineSet
Position2: "cpsp-1" dx=0 dy=0 dh=50 dv=100
Substitution2: "c2pc-1" h.pcap
Substitution2: "c2sc-1" h.smcp
EndChar

StartChar: I
Encoding: 73 73 34
GlifName: I_
Width: 341
VWidth: 1159
Flags: HW
AnchorPoint: "Bottom" 167 -15 basechar 0
AnchorPoint: "Ogonek" 234 15 basechar 0
AnchorPoint: "Top" 171 699 basechar 0
LayerCount: 2
Fore
SplineSet
22 695 m 1
 80.9539488059 685.631473461 126.976298367 681.64438662 174.092354873 681.64438662 c 3
 219.838531091 681.64438662 266.365264682 685.447158056 327 692 c 1
 329 653.698 l 1
 250.12 648.305 221.516 658.305 218.56 616 c 0
 213.164920206 537.767507661 207.118818011 432.631832127 207.118818011 296.740501792 c 3
 207.118818011 226.213168419 208.410388792 148.031557588 212.387 60.258 c 0
 213.865 25.173 256.73 31.739 329 26.085 c 1
 328 -9.261 l 1
 276.36418827 -3.54943634623 219.195132473 -0.0896089013946 164.004588566 -0.0896089013946 c 3
 110.933066761 -0.0896089013946 59.7283601928 -3.10317192298 17 -10.261 c 1
 12.522 25.824 l 1
 95.229 30.522 138.135 23.868 139.613 68.909 c 0
 143.305518766 143.04954088 144.984283385 240.889658088 144.984283385 336.894727681 c 3
 144.984283385 444.67149955 142.750329357 550.181377074 138.396 615.305 c 0
 135.44 653.132 85.616 648.566 18 656.698 c 1
 22 695 l 1
EndSplineSet
Position2: "cpsp-1" dx=0 dy=0 dh=50 dv=100
Substitution2: "c2pc-1" i.pcap
Substitution2: "c2sc-1" i.smcp
EndChar

StartChar: J
Encoding: 74 74 35
GlifName: J_
Width: 337
VWidth: 1356
Flags: HMW
AnchorPoint: "Bottom" 189 -138.8 basechar 0
AnchorPoint: "Top" 172 699 basechar 0
LayerCount: 2
Fore
SplineSet
130.742 618.959 m 0
 125.569 656.264 88.141 646.478 14 656.959 c 1
 18 692.783 l 1
 72.8574270419 684.935617193 116.334416655 681.62367186 160.163930965 681.62367186 c 3
 209.067187371 681.62367186 255.213539019 686.016906246 323 692.783 c 1
 325 654.742 l 1
 242.466 647.522 213.862 660.132 210.906 620.437 c 0
 202.777 501.157133333 205.733 379.610466667 205.733 225 c 3
 205.733 102.569 210.428 53.44 210.428 13.05 c 3
 210.428 -90.434 156.214 -151.522 91.651 -199.217 c 0
 69.783 -214.651 41.912 -234.739 16.912 -251 c 1
 -5.217 -221.132 l 1
 17.783 -209.61 37.3303607407 -197.597911407 54.088 -183.305 c 0
 59.088 -179.305 64.0615825909 -176.016896539 68.088 -172.044 c 0
 129.566 -113.566 140.349 -37.047 140.349 65 c 3
 140.349 104.578819469 135.915 582.646723894 130.742 618.959 c 0
EndSplineSet
Position2: "cpsp-1" dx=0 dy=0 dh=50 dv=100
Substitution2: "c2pc-1" j.pcap
Substitution2: "c2sc-1" j.smcp
EndChar

StartChar: K
Encoding: 75 75 36
GlifName: K_
Width: 687
VWidth: 1159
Flags: HW
AnchorPoint: "Bottom" 359 -15 basechar 0
AnchorPoint: "Top" 335 699 basechar 0
LayerCount: 2
Fore
SplineSet
391 684.739 m 1
 414.336866826 682.742446967 440.144201264 681.70173354 466.808616199 681.70173354 c 3
 512.723933994 681.70173354 560.942233502 684.81437755 604 691.739 c 1
 611.956 659.132 l 1
 568.085 648.871 547.566 642.308 522.176 619.135 c 0
 439.355 545.749543624 316.906 448.911540269 216.032 362.041 c 1
 257.531 332.966428571 572.607 79.5271142857 583.308 71.862 c 0
 611.044 49.343 641.431 34.085 676.478 21.956 c 1
 673 -2.044 l 1
 645 -0.044 606 2.956 578 2.956 c 3
 545 2.956 503 -0.044 471 -5.044 c 1
 467 19.695 l 1
 512.921 29.739 529.704 29.346 508.487 51.214 c 0
 483.833 74.55852 276.085 233.22496 163.906 321.22 c 1
 163.645 234.29878 164.123 125.50358 167.34 67.255 c 0
 168.818 31.302 193.771 33.478 276 17.912 c 1
 272 -10.522 l 1
 225.8522 -3.3742 178.38428 1.38932 126.360632 1.38932 c 3
 91.5912 1.38932 55 -0.6698 15 -5.522 c 1
 12 25.129 l 1
 74.83 28.217 91.61 31.085 93.088 61.082 c 0
 97.3287531762 159.997812983 99.6403048975 263.652684024 99.6403048975 367.136312963 c 3
 99.6403048975 445.548263635 98.5094727766 525.310711403 96.305 600.745 c 0
 94.827 649.742 81.654 646.566 15.783 658.566 c 1
 21 687.739 l 1
 56.7488794341 683.400890071 94.0802804113 681.493644592 131.750607871 681.493644592 c 3
 178.524799471 681.493644592 225.158468441 684.418287943 269 688.739 c 1
 272 658.827 l 1
 192.598 650.173 174.252 655.698 170.557 615.047 c 0
 166.862 528.785628159 163.906 446.780545126 163.906 357.522 c 1
 256.607 438.393385159 351.091 515.528537103 441.009 598.877 c 0
 453.575 610.66 461.877 623.006 460.05 630.396 c 0
 459.528 648.379571161 435.352 652.529690429 390 658.261 c 1
 391 684.739 l 1
EndSplineSet
Position2: "cpsp-1" dx=0 dy=0 dh=50 dv=100
Substitution2: "c2pc-1" k.pcap
Substitution2: "c2sc-1" k.smcp
EndChar

StartChar: L
Encoding: 76 76 37
GlifName: L_
Width: 614
VWidth: 1159
Flags: HW
AnchorPoint: "Bottom" 300 -15 basechar 0
AnchorPoint: "TopRight" 348.5 581 basechar 0
AnchorPoint: "Top" 157 699 basechar 0
LayerCount: 2
Fore
SplineSet
286 692.739 m 1
 290 656.176 l 1
 188.645 642.827 170.991 663.132 167.774 590.616 c 0
 166.035 541.489815866 165.296 149.261 165.296 149.261 c 0
 165.296 71.452296 167.035 44.165824 201.51 44.431 c 0
 239.513 44.953 424.657 44.431 453.921 44.126 c 0
 514.264 46.288048951 538.827 76.1777552448 564.871 165.478 c 1
 597 159 l 1
 593.607 99.651 574.821 90.158 557.478 -20.478 c 1
 536.522 -12.9058235294 526.868 -3.72158823529 486 -1.783 c 0
 475 -1.522 386 1.478 284 1.478 c 3
 69 1.478 34 -7.522 23 -7.522 c 1
 18.522 30.997 l 1
 82.742 36.997 91.783 36.909 92.522 69.997 c 0
 92.522 74.005522449 94 174.845628571 94 300 c 3
 94 458.501586903 90.305 610.690487641 89.566 622.047 c 0
 88.088 648.742 80.525 649.827 12 655.481 c 1
 16 695.739 l 1
 56.2754238947 685.843605793 101.699839184 682.074382452 146.056613937 682.074382452 c 3
 196.257859424 682.074382452 245.762188558 686.86015887 286 692.739 c 1
EndSplineSet
Position2: "cpsp-1" dx=0 dy=0 dh=50 dv=100
Substitution2: "c2pc-1" l.pcap
Substitution2: "c2sc-1" l.smcp
EndChar

StartChar: M
Encoding: 77 77 38
GlifName: M_
Width: 958
VWidth: 1159
Flags: HW
AnchorPoint: "Bottom" 465 -15 basechar 0
AnchorPoint: "Top" 499 699 basechar 0
LayerCount: 2
Fore
SplineSet
945.261 -2.132 m 1
 907.261229563 4.7058673522 864.836148659 8.50717714542 819.860220464 8.50717714542 c 3
 778.509618741 8.50717714542 722.592090342 4.07645626146 670.912 -5.132 c 1
 666.173 29.214 l 1
 767.531 43.607 784.528 46.428 785.006 109.73 c 0
 786.837692308 263.707934179 780.998307692 413.388700585 771.006 557.443 c 1
 693.962 424.563925781 618.874 289.502492188 549.437 148.563 c 0
 529.437 107.607 503.956 45.17 495.522 7.434 c 1
 457.176 7.434 l 1
 456.176 53.299 426.573284179 118.287724609 404.695 160.434 c 2
 198.777 554.833 l 1
 183.126 411.281587508 171.909 256.87468525 168.038 98.991 c 0
 167.516 32.258 184.34 41.346 277.129 26.563 c 1
 272.651 -10 l 1
 232.801084882 -4.00236895484 185.633347422 0.155464728212 136.404067526 0.155464728212 c 3
 96.0834554357 0.155464728212 54.1692005396 -2.79500879296 14 -10 c 1
 12 26.563 l 1
 104.871 38.651 117.486457031 45.2138642578 120.39 93.079 c 2
 147.173 543.094 l 2
 149.173 579.006 149 615.833 127.217 632.874 c 0
 109.739 646.698 85.261 656.349 22.566 658.654 c 1
 29 697.434 l 1
 79.17 691.478 142.994 684 197.076 684.695 c 0
 213.771 684.173 219.337 671.434 224.598 659.434 c 0
 308.211 478.062559571 400.824 304.150333008 493.868 136.287 c 1
 779.962 675.651 l 0
 784.962 684.651 793.962 688.39 799.962 687.651 c 0
 844.786 682.956 895.654 684.434 941 689.434 c 1
 944.739 653.871 l 1
 859.821 648.217 838.346 648.569 838.607 596.138 c 0
 839.725571429 430.190076025 844.359428571 263.977725707 850.651 104.252 c 0
 853.868 39.343 869.648 41.085 946.261 35.909 c 1
 945.261 -2.132 l 1
EndSplineSet
Position2: "cpsp-1" dx=0 dy=0 dh=50 dv=100
Substitution2: "c2pc-1" m.pcap
Substitution2: "c2sc-1" m.smcp
EndChar

StartChar: N
Encoding: 78 78 39
GlifName: N_
Width: 836
VWidth: 1159
Flags: HW
AnchorPoint: "Bottom" 431 -15 basechar 0
AnchorPoint: "Top" 427 699 basechar 0
LayerCount: 2
Fore
SplineSet
14 690.956 m 1
 49.346 686.956 96.6343668531 683.669731533 133.733 683.217 c 0
 148.733 682.956 149.881379877 679.361858979 156.733 672.217 c 0
 334.346 487.308476207 515.871 307.160472479 704.742 132.809 c 1
 710.617807886 238.521289794 712.843801758 343.973087474 712.843801758 453.723684571 c 3
 712.843801758 489.850348061 714.578093041 526.330452066 713.959 563.185 c 0
 712.959 664.827 674.27 650.434 597 660.827 c 1
 601 695.434 l 1
 656.644930891 688.30502043 703.220761613 685.628853516 747.200626953 685.628853516 c 3
 776.121839997 685.628853516 803.886626843 686.707227275 832 688.434 c 1
 837 652.827 l 1
 781.475 646.827 764.06857013 650.665025186 760.912 610.22 c 0
 748.086577473 443.031952999 745 264.891500096 745 86 c 0
 745 63.261 749.434 23.522 753.868 0.783 c 1
 721.044 -9.434 l 1
 702.434 30.173 668.532005998 70.5228664385 636.173 103.173 c 0
 478.302 262.55061226 317.953 418.314774327 153.17 570.097 c 1
 146.519 129.988 l 2
 144.755936523 38.2170439453 171.906 42.9326806641 275.956 29.519 c 1
 269 -11 l 1
 230.351227588 -2.87434722327 193.261121548 0.0259155329193 158.109517726 0.0259155329193 c 3
 109.207465919 0.0259155329193 64.0786711199 -5.35853745597 24 -10 c 1
 19.522 29.041 l 1
 85.091 31.651 97.6037927732 37.9828648797 99.61 81.777 c 0
 104.070307832 194.553093477 106.728102619 311.928216859 106.728102619 430.244868802 c 3
 106.728102619 483.025043325 106.327713484 535.91890144 105.522 588.748 c 0
 104.783 626.267 79.179 650.305 12 652.437 c 1
 14 690.956 l 1
EndSplineSet
Position2: "cpsp-1" dx=0 dy=0 dh=50 dv=100
Substitution2: "c2pc-1" n.pcap
Substitution2: "c2sc-1" n.smcp
EndChar

StartChar: O
Encoding: 79 79 40
GlifName: O_
Width: 845
VWidth: 1159
Flags: HW
AnchorPoint: "Horn" 713.5 573 basechar 0
AnchorPoint: "Middle" 423.697 364.853 basechar 0
AnchorPoint: "Bottom" 422 -15 basechar 0
AnchorPoint: "Ogonek" 486 11 basechar 0
AnchorPoint: "Top" 426 699 basechar 0
LayerCount: 2
Fore
SplineSet
400.657 666.525 m 3
 244.258 666.525 117.991 537.648566513 117.991 371.821 c 3
 117.991 194.188425366 263.079 30.214 444.041 30.214 c 3
 611.657 30.214 721.097 169.5189189 721.097 326.742 c 3
 721.097 509.214856962 576.399 666.525 400.657 666.525 c 3
428 709 m 3
 635 709 802 543.608089657 802 341.522 c 3
 802 145.866521648 644 -13 430 -13 c 3
 216 -13 43 144.871909876 43 341.522 c 3
 43 537.657761295 218 709 428 709 c 3
EndSplineSet
Position2: "cpsp-1" dx=0 dy=0 dh=50 dv=100
Substitution2: "c2pc-1" o.pcap
Substitution2: "c2sc-1" o.smcp
EndChar

StartChar: P
Encoding: 80 80 41
GlifName: P_
Width: 596
VWidth: 1159
Flags: HW
AnchorPoint: "Bottom" 162 -15 basechar 0
AnchorPoint: "Top" 294 699 basechar 0
LayerCount: 2
Fore
SplineSet
271.742 274.868 m 3
 385.528 274.868 491.965 334.405132813 491.965 461.088 c 3
 491.965 539.283958115 433.748 615.958455497 374.044 639.003 c 0
 324.733 657.613 265.425 655.522 196.815 655.522 c 3
 185.208 655.522 176.557 645.654 176.557 631.959 c 0
 178.035 556.537267977 178.34 423.009452929 180.123 290 c 1
 208.387 278.651 236.912 274.868 271.742 274.868 c 3
15 686.478 m 1
 41 684.478 75 682.478 114 682.478 c 3
 185 682.478 224 693.478 295 693.478 c 3
 460 693.478 564 574.973246696 564 467 c 3
 564 342.862497071 459.651 242 265.83 242 c 3
 233.695 242 210.17 246.522 182.34 253.654 c 1
 183.818 179.750506787 184.079 105.414529412 187.774 65.387 c 0
 192.208 29.013 207.249 38.076 281.903 31.519 c 1
 277.381 -9.478 l 1
 225.913479597 -2.93713226122 190.312524128 2.0945928483 151.659214882 2.0945928483 c 3
 120.570638576 2.0945928483 87.9324734162 -1.30962470446 43.83 -10.217 c 1
 31.918 23.868 l 1
 100.959 45.6094980469 112.044 34.9790048828 112.783 70.387 c 0
 113.9376875 118.804474955 114.25403125 174.67657926 114.25403125 233.721531365 c 3
 114.25403125 359.800137635 109.1106875 505.197031489 103.522 620.135 c 0
 102.783 640.264 88.003 647.393 12.261 648.654 c 1
 15 686.478 l 1
EndSplineSet
Position2: "cpsp-1" dx=0 dy=0 dh=50 dv=100
Substitution2: "c2pc-1" p.pcap
Substitution2: "c2sc-1" p.smcp
EndChar

StartChar: Q
Encoding: 81 81 42
GlifName: Q_
Width: 785
VWidth: 1361
Flags: HW
AnchorPoint: "Middle" 392.697 364.853 basechar 0
AnchorPoint: "Top" 395 699 basechar 0
AnchorPoint: "Bottom" 343 -15 basechar 0
LayerCount: 2
Fore
SplineSet
380.349 676.088 m 3
 229.56 676.088 121.164 556.339823612 121.164 382.431 c 3
 121.164 205.884931641 228.428 39.214 400.607 39.214 c 3
 549.786 39.214 658.836 168.15037735 658.836 349.698 c 3
 658.836 551.663393333 529.745 676.088 380.349 676.088 c 3
488.035 15.258 m 1
 617.252 -85.4482352941 726.73 -117.393 800.208 -117.393 c 3
 827.255 -117.393 851.78 -114.349 872 -108.305 c 1
 877.783 -136.478 l 1
 839.264 -150.173 796.22 -155.434 748.478 -155.434 c 3
 626.783 -155.434 509.088 -99.0604 396.132 -4.739 c 1
 185.044 -8.03273670214 42.478 164.043933989 42.478 362.478 c 3
 42.478 576.877091756 197.478 706 388.478 706 c 3
 580.478 706 740.478 560.081739219 740.478 364.478 c 3
 740.478 207.044974352 641.173 62.5333825 488.035 15.258 c 1
EndSplineSet
Position2: "cpsp-1" dx=0 dy=0 dh=50 dv=100
Substitution2: "salt-1" Q.alt
Substitution2: "c2pc-1" q.pcap
Substitution2: "c2sc-1" q.smcp
EndChar

StartChar: R
Encoding: 82 82 43
GlifName: R_
Width: 734
VWidth: 1159
Flags: HMW
AnchorPoint: "Bottom" 357 -15 basechar 0
AnchorPoint: "Top" 284 699 basechar 0
LayerCount: 2
Fore
SplineSet
162.862 368.305 m 1
 209.865 367.305 233.997 364.566 281 364.566 c 3
 447.88 364.566 469.833 464.276462502 469.833 510.393 c 3
 469.833 576.936054531 401.264 666.349 284.481 666.349 c 3
 243.302 666.349 167.774 656.739 164.818 624.701 c 0
 159.645 544.49904479 161.384 448.50695521 162.862 368.305 c 1
12 689.651 m 1
 57.349 688.651 81.827 687.651 118.041 687.651 c 0
 182.604 687.651 216.824 703.651 300 703.651 c 0
 431.695 703.651 540.39 621.36645226 540.39 518.522 c 0
 540.39 431.704473099 473 369.681461963 385.692 342.132 c 1
 503.126 136.063573633 602.607 2.58382420824 739.217 0.607 c 1
 733 -33 l 1
 561.525 -37.9448893961 397.182 146.300823034 315.613 326.308 c 1
 303.22 325.047 292.349 325.047 282.739 325.047 c 0
 235.997 325.047 209.604 328.525 162.862 329.525 c 1
 166.296 226.739 168.513 151.736 171.469 66.038 c 0
 172.947 32.17 191.683 36.044 270.956 24.519 c 1
 264 -14 l 1
 221 -5 172.78 0 135 0 c 3
 98 0 60 -4 23 -11 c 1
 16.522 25.302 l 1
 75.525 31.478 86.871 29.302 89.827 56.387 c 1
 93.522 185.041 96 271.651 96 357 c 3
 96 434.625649686 94.261 511.215446475 92.044 616.528 c 1
 88.61 644.915 79.959 654.044 12 656.044 c 1
 12 689.651 l 1
EndSplineSet
Position2: "cpsp-1" dx=0 dy=0 dh=50 dv=100
Substitution2: "salt-1" R.alt
Substitution2: "c2pc-1" r.pcap
Substitution2: "c2sc-1" r.smcp
EndChar

StartChar: S
Encoding: 83 83 44
GlifName: S_
Width: 575
VWidth: 1159
Flags: HW
AnchorPoint: "Bottom" 286 -15 basechar 0
AnchorPoint: "Top" 308 699 basechar 0
LayerCount: 2
Fore
SplineSet
30.783 191.651 m 1
 62.173 197.651 l 1
 84.61 121.164 86.9100620402 105.501919622 106.607 88.516 c 0
 147.085 55.17 236.302 28.041 299.519 28.041 c 3
 419.267 28.041 464.138 105.956 464.138 165.827 c 3
 464.138 275.56 322.245587877 306.664369147 218.056 347.783 c 0
 166.563 364.918851064 68.522 398.477148936 68.522 515.22 c 3
 68.522 609.942365217 153.83 702 310.522 702 c 3
 371.393 702 422.503156955 687.512566142 446.047 678.129 c 0
 462.83 671.346 471.525 664.827 485.871 691.173 c 1
 513.783 682.956 l 1
 499.393 604.261 500.685361455 596.447234908 514.478 547.912 c 0
 520.478 531.644043478 511.868 518.410130435 485.132 522.742 c 1
 473.695 550.46159292 477.065285408 572.665489233 467.176 589.877 c 0
 445.393 630.569 374.915 667.654 300.915 667.654 c 3
 234.604 667.654 135.384 638.363111268 135.384 530 c 3
 135.384 428.531457831 221.167201045 426.483438115 370.639 366.827 c 0
 505.912 315.478 529.522 230.478 529.522 178.39 c 3
 529.522 99.434 474.522 -10 282.522 -10 c 3
 226.478 -10 167.289673257 0.589664359915 116.129 19.566 c 0
 95.346 27.349 96.346 26.61 88.434 0.176 c 1
 58.522 3.132 l 1
 59.522 70.305 56.522 87.783 30.783 191.651 c 1
EndSplineSet
Position2: "cpsp-1" dx=0 dy=0 dh=50 dv=100
Substitution2: "c2pc-1" s.pcap
Substitution2: "c2sc-1" s.smcp
EndChar

StartChar: T
Encoding: 84 84 45
GlifName: T_
Width: 728
VWidth: 1159
Flags: HMW
AnchorPoint: "Bottom" 358 -15 basechar 0
AnchorPoint: "Top" 358 699 basechar 0
LayerCount: 2
Fore
SplineSet
125 683.956 m 0
 250.1166883 683.171896178 375.233376599 681.865792355 500.872340855 681.865792355 c 3
 553.646876599 681.865792355 606.727240211 682.045103822 659.61 682.478 c 0
 675.349 682.478 690.088 688.32575 697.088 696.956 c 1
 720.261 682 l 1
 706 646 688.478 606 686.478 559 c 1
 652.61 564.478 l 1
 653.654 571.17587013 659.393 599.78612987 661.481 606.484 c 0
 671.437 648.437 534.684 638.742 404.343 639.264 c 1
 401.251507177 514.044292791 399.956234448 391.036956103 399.956234448 265.685786836 c 3
 399.956234448 207.035152547 400.200497608 147.827624298 400.909 87.818 c 0
 401.909 33.692 404.909 43.346 519.217 31.258 c 1
 513 -7.261 l 1
 474.811821492 -2.01132392902 425.156930624 0.698502972149 374.907459684 0.698502972149 c 3
 322.476047787 0.698502972149 247.977436521 -3.34698655176 203 -11.261 c 1
 196.566 30.736 l 1
 322.701 42.1011474609 321.962 47.082 322.701 66.038 c 0
 325.318080755 139.581460362 328.450054885 303.236938531 328.450054885 438.332697988 c 3
 328.450054885 533.065701809 326.940478238 613.659397136 322.701 640.003 c 1
 251.915 640.742 183.39 639.264 115.126 635.83 c 0
 72.302 632.874 71.651 636.60484375 32.824 556.349 c 1
 -2 573 l 1
 17.739 611.478 46.478 689.434 57.478 711.173 c 1
 83.088 693.792875 93.865 683.684125 125 683.956 c 0
EndSplineSet
Position2: "cpsp-1" dx=0 dy=0 dh=50 dv=100
Substitution2: "c2pc-1" t.pcap
Substitution2: "c2sc-1" t.smcp
EndChar

StartChar: space
Encoding: 44 44 46
GlifName: space
Width: 200
VWidth: 1159
Flags: HW
LayerCount: 2
Fore
SplineSet
49.786 -123.865 m 1
 33.264 -101.214 l 1
 67.264 -76.299 102.251455859 -33.7362751673 90.522 -8.258 c 0
 81.305 11.393 61.7766380602 24.8168677443 42.481 35.044 c 0
 38.003 36.957 36.525 43.2175 36.525 48.739 c 3
 36.525 54.1797142857 37.9731588322 58.9410794161 42.22 60.695 c 0
 61.915 70.912 77.2717529383 84.7084161668 86.827 105.041 c 0
 88.537 109.519 93.899 112.736 99.261 112.736 c 3
 104.739 112.736 109.906413096 109.547967432 111.695 105.302 c 0
 122.619447368 84.824 138.458446617 70.2655177943 158.302 60.695 c 0
 162.78 58.956 164.997 54.217 164.997 48.739 c 1
 164.997 41.956 146.384 -66.434 49.786 -123.865 c 1
EndSplineSet
Position2: "cpsp-1" dx=0 dy=0 dh=7 dv=14
EndChar

StartChar: period
Encoding: 46 46 48
GlifName: period
Width: 200
VWidth: 1159
Flags: HW
LayerCount: 2
Fore
SplineSet
157.71475 34.1485019531 m 0
 138.468688186 24.1720544607 121.971966348 11.4747787907 111.89075 -7.57125097656 c 0
 110.139649638 -12.0492509766 105.762033176 -14.736 100.509000976 -14.736 c 3
 95.0308553292 -14.736 88.6400495257 -12.0492509766 86.8140009766 -7.57125097656 c 0
 76.7230919573 11.4747787907 62.0455089495 24.1720544607 42.7812519531 34.1485019531 c 0
 38.3032519531 36.0700321824 36.5120009766 43.7569905746 36.5120009766 49.522 c 3
 36.5120009766 54.7750321994 38.3032519531 59.1526486612 42.7812519531 60.9037490234 c 0
 62.0455089495 70.9348466614 76.7230919573 85.5254296692 86.8140009766 104.675498047 c 0
 88.6400495257 109.153498047 95.0308553292 112.736 100.509000976 112.736 c 3
 105.762033176 112.736 110.139649638 109.153498047 111.89075 104.675498047 c 0
 121.971966348 85.5254296692 138.468688186 70.9348466614 157.71475 60.9037490234 c 0
 162.19275 59.1526486612 164.879499024 54.7750321994 164.879499024 49.522 c 3
 164.879499024 43.7569905746 162.19275 36.0700321824 157.71475 34.1485019531 c 0
EndSplineSet
Position2: "cpsp-1" dx=0 dy=0 dh=7 dv=14
EndChar

StartChar: dotlessi
Encoding: 305 305 50
GlifName: dotlessi
Width: 263
VWidth: 1159
Flags: HMW
AnchorPoint: "Top" 136 465 basechar 0
LayerCount: 2
Fore
SplineSet
160.953 198.349 m 3
 160.953 157.341894913 163.17 88.2844760353 167.604 49.041 c 0
 169.082 36.4702299319 186.901309539 33.7690308109 205.302 31.695 c 0
 222.8769088 28.39486628 242.26 26.259999913 257.478 25.173 c 1
 253.739 -6.217 l 1
 214.983296 -0.217 171.258912 4.783 129.522 4.783 c 3
 100.663875 4.783 66.034125 -2.217 37.176 -6.217 c 1
 33.9139804687 24.4352744141 l 1
 42.0432680288 25.1740194268 53.8674262856 26.6509002492 61.997 28.129 c 0
 98.5087692307 35.956 98.525 42.8261699621 100.003 70.258 c 0
 101.481 97.28075 102.22 150.24534 102.22 178.349 c 3
 102.22 198.349 102.959 240.349 99.264 303.349 c 0
 98.525 326.943603672 94.834078125 336.786 81.745 336.786 c 3
 73.8397 336.786 55.7371798561 330.914352073 42.2185 328.445250976 c 1
 35.61 358.305 l 1
 95.4979856917 373.162918854 123.683939806 384.52177327 168.214 433.088 c 1
 188.736 418.654 l 1
 181.093379351 402.232778363 174.456728991 375.048991403 172.342490234 363.104501953 c 0
 163.907955988 324.324486506 160.953 215.120635379 160.953 198.349 c 3
EndSplineSet
Substitution2: "case-1" I
Substitution2: "pcap-1" i.pcap
Substitution2: "smcp-1" i.smcp
EndChar

StartChar: uniFB01
Encoding: 64257 64257 51
GlifName: uniF_B_01
Width: 576
VWidth: 1159
Flags: HW
LayerCount: 2
Fore
SplineSet
361.49 363.874 m 1
 295.83 367.569 213.988 366.091 175.56 367.569 c 1
 174.821 334.959 174.821 308.132 174.821 294.827 c 1
 174.821 210.476565977 175.299 131.39 178.994 49.302 c 0
 179.733 35.607 184.167 32.031625 198.862 31.173 c 0
 223.601 30.173 238.211 29.651 262.95 28.39 c 1
 259.689 -5.217 l 1
 221.865 -0.478 175.997 1.261 138.173 1.261 c 1
 110.522 1.261 68.176 -1.739 40.525 -5.739 c 1
 38.742 27.129 l 1
 50.786 28.39 65.856652447 28.8827065559 78.396 30.912 c 0
 105.481 36.607 108.437 45.953 109.915 76.302 c 0
 113.61 130.129 116.088 200.476236567 116.088 267.827 c 1
 116.088 289.132 115.349 328.22 115.349 367.569 c 1
 91.132 366.83 68.176 364.613 43.959 363.874 c 1
 43.959 404.132 l 1
 68.176 403.393 91.132 401.915 115.349 401.176 c 1
 115.349 439.132 115.349 483.088 115.349 494.827 c 1
 115.349 602.948395349 143.767732821 649.307414514 221.651 706.088 c 0
 256.808 731.841 327.573 759.393 373.299 759.393 c 1
 411.058130435 759.393 475.434 737.490447368 502.261 713.912 c 1
 501.522 693.959 496.868 689.261 460.657 661.918 c 1
 420.10405 685.98625 389.42915 712.484 317.135 712.484 c 1
 241.7635 712.484 188.123 643.83 179.255 499.827 c 0
 178.516 489.088 177.038 438.393 176.299 401.176 c 1
 323.630548108 401.176 l 1
 366.429889464 401.176 407.725584861 404.238335943 467.912 433.088 c 1
 488.434 418.654 l 1
 480.791379351 402.232778363 472.676728991 375.048991403 470.562490234 363.104501953 c 0
 462.125867963 324.311964735 459.173 215.120635379 459.173 198.349 c 1
 459.173 157.341894913 462.129 88.2844760353 466.563 49.041 c 0
 468.041 36.4702299319 485.122403369 33.7875913191 503.522 31.695 c 0
 521.0969088 28.39486628 541.219 26.259999913 556.437 25.173 c 1
 551.959 -6.217 l 1
 513.203296 -0.217 469.478912 4.783 427.742 4.783 c 1
 398.883875 4.783 364.993125 -2.217 336.135 -6.217 c 1
 333.611980469 24.4352744141 l 1
 347.148522077 26.1140723107 362.087220856 28.1748174712 372.962 30.1476044331 c 0
 397.12272311 35.872500972 401.918 44.6936789727 403.396 70.258 c 0
 404.874 97.28075 404.874 157.63534 404.874 185.739 c 1
 404.874 205.739 404.874 251.434 401.179 314.434 c 0
 400.44 346.472732394 390.019023656 360.918 361.49 363.874 c 1
EndSplineSet
LCarets2: 1 298
Ligature2: "liga-1" f i
EndChar

StartChar: uni0237
Encoding: 567 567 52
GlifName: uni0237
Width: 265
VWidth: 1159
Flags: HMW
AnchorPoint: "Top" 120 465 basechar 0
LayerCount: 2
Fore
SplineSet
-27 -330.522 m 1
 -22.1677857143 -276.906381818 -12.651 -250.956 15.783 -221.305 c 0
 37.025939109 -198.853350021 60.9555257516 -166.601238464 70.176 -140 c 0
 78.915 -115.522 84.871 -64.918 84.871 96 c 3
 84.871 211.361786591 82.0023862481 252.968971988 81.481 301 c 0
 81.3534758751 320.99519482 78.167625 337.308 64.528 337.308 c 3
 58.7368 337.308 44.572 329.513461539 30.352 326.305 c 1
 23.091 355.695 l 1
 68.7828873239 367.906621622 101.294422535 382.153513514 147.865 431 c 1
 167.865 416.827 l 1
 161.604 402.335115385 156.975374742 374.375190339 154.865 363 c 0
 145.237857143 319 141.387 217 141.387 196 c 3
 141.387 74.689 140.126 -35.915 140.126 -84 c 3
 140.126 -136.615117647 127.590883772 -164.390589525 113.604 -185.478 c 0
 92.909 -217.39 59.3876285817 -241.951800584 30.868 -264.651 c 0
 18.1557522161 -275.169619842 0.401235294117 -304.457308823 -0.522 -335 c 1
 -27 -330.522 l 1
EndSplineSet
EndChar

StartChar: U
Encoding: 85 85 53
GlifName: U_
Width: 815
VWidth: 1159
Flags: HW
AnchorPoint: "Horn" 722 544 basechar 0
AnchorPoint: "Bottom" 410 -15 basechar 0
AnchorPoint: "Ogonek" 480 11 basechar 0
AnchorPoint: "Top" 431 699 basechar 0
LayerCount: 2
Fore
SplineSet
23.613 688.956 m 1
 50.22 685.3255 92.92375 683.77125 137.828375 683.77125 c 3
 181.95 683.77125 228.5335 685.3255 263.683 688.956 c 1
 267.683 656.088 l 1
 200.205 649.566 178.035 648.61 177.035 600.918 c 0
 177.035 593.895774795 169.818 288.175304343 169.818 255.044 c 0
 169.818 191.86075 186.070390244 138.8815 223.214 98.865 c 0
 261.5794 56.2599692308 330.868169231 31.17 432.038 31.17 c 3
 470.305 31.17 555.393 36.3220210084 613.959 94.041 c 0
 650.176 128.03652 667.874 176.602525714 672.091 256.261 c 0
 677.047 354.597594753 678.091 515.710461758 674.657 615.83 c 0
 673.179 656.61 652.487 650.739 586.487 654.871 c 1
 589.009 690.956 l 1
 615.812153507 686.866037028 671.653965669 683.805726435 718.849613977 683.805726435 c 3
 752.785436981 683.805726435 782.358402158 685.177238107 794.431 688.956 c 1
 797.692 653.61 l 1
 748.17 649.478 727.478 659.088 726 623.22 c 0
 725.261 611.877796013 724 490.657117929 719 254.261 c 0
 717.739 178.094469613 694.522 115.599127072 652.783 72.739 c 0
 598.522 13.4721428571 511.956 -15 402 -15 c 3
 296.366 -15 215.43645689 12.1682618853 167.742 60.478 c 0
 122.734418605 104.639615385 99.261 162.689307692 99.261 241.264 c 0
 99.261 271.862650514 104.261 588.61903659 104.261 603.918 c 0
 104.261 642.959 95.393 644.654 18.613 653.132 c 1
 23.613 688.956 l 1
EndSplineSet
Position2: "cpsp-1" dx=0 dy=0 dh=50 dv=100
Substitution2: "c2pc-1" u.pcap
Substitution2: "c2sc-1" u.smcp
EndChar

StartChar: V
Encoding: 86 86 54
GlifName: V_
Width: 841
VWidth: 1159
Flags: HW
AnchorPoint: "Bottom" 417 -15 basechar 0
AnchorPoint: "Top" 431 704 basechar 0
LayerCount: 2
Fore
SplineSet
267.434 692.695 m 1
 267.434 659.827 l 1
 239.956 660.044 206.645 657.739 187.337 656.261 c 0
 161.818 651.827 167.208 639.742 172.947 626.786 c 2
 441.997 78.771 l 1
 681.094 622.657 l 2
 686.789 637.003 686.572 654.783 665.27 656.261 c 0
 643.61 656.261 598.478 659.566 592.434 660.349 c 1
 593.434 696.173 l 1
 630.149072889 689.108617193 675.413020728 686.05767186 717.699542817 686.05767186 c 3
 763.283614596 686.05767186 805.674466129 689.928906246 830 696.173 c 1
 835 659.393 l 1
 788.953 653.173 758.434 655.871 732.22 611.528 c 0
 711.264 575.024008671 542.349 221.463762843 470.305 60 c 0
 459.044 34 445.434 -2.088 441.434 -27 c 1
 401.176 -27 l 1
 399.654 -1.566 386.871 20.739 371.349 56.739 c 0
 322.783 168.575770833 202.824 414.445932883 94.217 620.613 c 0
 75.871 654.827 59.264 651 6 660.61 c 1
 11 694.695 l 1
 51.0976611137 687.366991743 89.9256103504 684.748145214 121.333971547 684.748145214 c 3
 158.097122708 684.748145214 203.234495823 689.223057849 267.434 692.695 c 1
EndSplineSet
Position2: "cpsp-1" dx=0 dy=0 dh=50 dv=100
Substitution2: "c2pc-1" v.pcap
Substitution2: "c2sc-1" v.smcp
EndChar

StartChar: W
Encoding: 87 87 55
GlifName: W_
Width: 1130
VWidth: 1159
Flags: HW
AnchorPoint: "Bottom" 574 -15 basechar 0
AnchorPoint: "Top" 579 699 basechar 0
LayerCount: 2
Fore
SplineSet
1121 692.478 m 1
 1126.217 659.871 l 1
 1053.61 636.068875977 1049.915 616.705217773 1013.311 525.411 c 0
 874.393 188.108738694 831.044 84.3475326633 814 42 c 0
 804.261 19 795 3.868 793.261 -15 c 1
 759.871 -15.739 l 1
 759.132 -0.349 754.566 18.478 738.827 57.739 c 0
 687.861144531 180.393 637.368237304 303.047 588.132 425.701 c 1
 478.804875977 154.654 441.631672852 61.044 426.522 23.261 c 0
 419 3.261 413.478 -8.305 412.478 -21 c 1
 378.088 -21 l 1
 375.132 -3.61 369.871 17.736 346.264 74.906 c 0
 236.217 346.742700829 130.434 566.882439201 121.173 585.531 c 0
 116.217 595.832458984 110.956 606.422770508 91.871 631.874 c 0
 64.827 655.566 34.305 654.349 5 658.437 c 1
 11 694.739 l 1
 42 685.739 93.18475 681.739 145.277125 681.739 c 3
 197.3695 681.739 250.6305 685.739 285 692.739 c 1
 292.217 661.61 l 1
 222.211 656.912 192.947 644.65659375 192.947 613.311 c 0
 192.947 603.138 195.947 592.704 200.164 583.27 c 2
 414.997 83.51 l 1
 568.481 468.308 l 1
 518.929817383 589.75005625 489.351414062 627.865015821 484.833 635.437 c 1
 469.965 657.827 448.273 654.434 405.003 662.044 c 1
 410.22 689.739 l 1
 442.592416667 684.708208333 482.846244792 682.0623125 524.909282191 682.0623125 c 3
 578.606326389 682.0623125 634.623208333 685.708208333 682.22 692.739 c 1
 686.22 660.61 l 1
 667.431 658.696 616.994 657.23925 603.34 656.261 c 0
 574.17 652.566 573.865 634.047 580.604 616.83 c 2
 795.041 85.859 l 1
 860.305 247.205663366 928.182 422.203782178 972.226 545.015 c 0
 998.572 623.823325196 987.616 659.421302734 865 658.044 c 1
 865 687.478 l 1
 891.313858775 684.296841905 927.804604253 682.17080193 968.742885681 682.17080193 c 3
 1015.99660143 682.17080193 1069.6340253 684.84031619 1121 692.478 c 1
EndSplineSet
Position2: "cpsp-1" dx=0 dy=0 dh=50 dv=100
Substitution2: "c2pc-1" w.pcap
Substitution2: "c2sc-1" w.smcp
EndChar

StartChar: X
Encoding: 88 88 56
GlifName: X_
Width: 761
VWidth: 1159
Flags: HW
AnchorPoint: "Bottom" 371 -15 basechar 0
AnchorPoint: "Top" 364 699 basechar 0
LayerCount: 2
Fore
SplineSet
13 684.739 m 1
 57.9968420527 682.723824778 91.672141547 681.588151438 121.977426514 681.588151438 c 3
 169.971933928 681.588151438 210.086303945 684.54922389 275 691.739 c 1
 276 660.61 l 1
 265.824 658.088 235.037462045 655.522 210.117 654.044 c 0
 188.249 650.349 187.134914524 635.473401102 196.205 623.091 c 2
 375.651 388.519 l 1
 439.103335937 474.789923828 491.598146162 556.215859053 523.226 597.66 c 0
 534.355 613.223 543.02356645 636.889888111 517.053 645.871 c 0
 508.965 647.61 460.789 654.261 442.522 657.827 c 1
 447 685.739 l 1
 487.693841758 683.4317118 528.905234902 681.641974987 570.134055816 681.641974987 c 3
 614.273477968 681.641974987 658.693841758 683.6145764 702 688.739 c 1
 704 656.61 l 1
 686.522 654.871 632.590638842 649.857558584 597.132 614.484 c 0
 580.293904297 596.326944336 551.662500977 558.086555664 397.563 367.041 c 1
 455.173 299.887638317 628.05090123 98.2838156995 649.525 73.818 c 0
 678.695 42.0275714286 701.61 39.6241428571 747.956 31.302 c 1
 742 -2.783 l 1
 713.116195871 2.41174286676 672.709822758 4.84718361852 629.885876866 4.84718361852 c 3
 570.228481705 4.84718361852 506.358555052 0.0298367237074 464 -8.261 c 1
 461 22.39 l 1
 487.66 28.912 522.493182651 32.6089807667 536.361 35.868 c 0
 565.836 44.997 556.606706974 69.1022144735 542.056 88.472 c 0
 504.314 139.63968054 444.918 220.81825576 364.088 317.003 c 1
 289.129962185 220.631934666 224.239257357 128.278888974 183.774 67.95 c 0
 174.862 54.343 168.38533382 33.2277207076 195.686 29.434 c 0
 215.459071429 27.695 249.246571429 24.695 263.261 23.434 c 1
 263 -5.739 l 1
 216.03602131 -2.6744030542 175.297491614 -0.457825123181 135.48250988 -0.457825123181 c 3
 97.365534483 -0.457825123181 60.1113927588 -2.48792773396 19 -7.739 c 1
 17 22.651 l 1
 40.59 26.217 82.4923714943 33.8564306433 117.346 68.038 c 0
 134.069492 84.574304577 145.550776 99.5754916904 339.959 341.176 c 1
 151.273 566.318484375 116.84725896 605.792292557 100.434 622.047 c 0
 69.393 651.132 45.267 656.044 12 659.261 c 1
 13 684.739 l 1
EndSplineSet
Position2: "cpsp-1" dx=0 dy=0 dh=50 dv=100
Substitution2: "c2pc-1" x.pcap
Substitution2: "c2sc-1" x.smcp
EndChar

StartChar: Y
Encoding: 89 89 57
GlifName: Y_
Width: 735
VWidth: 1159
Flags: HW
AnchorPoint: "Bottom" 387 -15 basechar 0
AnchorPoint: "Top" 387 699 basechar 0
LayerCount: 2
Fore
SplineSet
273.217 654.132 m 1
 273.217 654.132 237.384 651.349 212.988 651.349 c 0
 192.378 651.349 181.763311001 643.348692251 194.381 625.132 c 0
 295.821 474.836953067 392.607 363.24431204 398.129 357.821 c 1
 477.091 480.7185 552.647976475 598.85402526 555.053 603.355 c 0
 564.965 619.701 570.704 639.003 547.314 646.393 c 0
 528.267 650.088 500.654 652.871 481 655.393 c 1
 483 690.478 l 1
 506.117070049 686.731778413 568.232496505 682.162146644 628.034714856 682.162146644 c 3
 666.242230872 682.162146644 703.714067189 684.132183703 729 689.478 c 1
 729.261 651.437 l 1
 662.434 646.305 642.316646992 636.189210615 618.308 611.484 c 0
 553.525 537.854626953 478.434 416.753749023 423.692 327.431 c 1
 422.953 276.698856618 419.997 223.189318601 433.299 68.255 c 0
 436.994 34.214 453.079 34.434 549.217 26.78 c 1
 544.739 -11.261 l 1
 490.0048873 -3.94554025147 439.958483027 0.569595519219 389.81269378 0.569595519219 c 3
 344.009415328 0.569595519219 298.384640483 -3.13903887675 248.739 -11.261 c 1
 238.827 25.78 l 1
 331.921 39.9962333984 359.786 45.4416445312 359.786 83.818 c 2
 356.83 300.088 l 1
 338.607 323.349019508 232.098875204 478.645298568 109.563 617.657 c 0
 85.606571792 643.421547248 66.827 642.264 6.261 655.132 c 1
 10 691.217 l 1
 45.1266763385 687.437034069 113.345353307 683.375700316 174.180484969 683.375700316 c 3
 211.97373185 683.375700316 246.84367066 685.059937539 269 689.217 c 1
 273.217 654.132 l 1
EndSplineSet
Position2: "cpsp-1" dx=0 dy=0 dh=50 dv=100
Substitution2: "c2pc-1" y.pcap
Substitution2: "c2sc-1" y.smcp
EndChar

StartChar: Z
Encoding: 90 90 58
GlifName: Z_
Width: 710
VWidth: 1159
Flags: HW
AnchorPoint: "Bottom" 357 -15 basechar 0
AnchorPoint: "Top" 366 699 basechar 0
LayerCount: 2
Fore
SplineSet
12 563 m 1
 59.261 669.39 47.956 704.302 79.132 715.085 c 1
 97.827 692.313005859 133.305 684.635100586 150.525 683.956 c 0
 182.652985352 682.826571289 535.441375 681.696420898 641.305 683.133037109 c 0
 652.872713867 683.430369141 661.553009766 683.528043946 666.566 683.956 c 1
 678.566 662.739 l 1
 658.989625977 640.073611328 l 0
 141.9 36.563 l 1
 236.17 36.563 331.701 35.085 425.971 35.085 c 0
 576.49 35.085 637.648 55.988 672.044 153.434 c 1
 698 141 l 1
 661.783 51.827 650.044 16.61 625.566 -23.607 c 1
 604.305 -13.912 588.044 -2.217 503 -1.478 c 0
 352 0 108 5.912 29 0.739 c 1
 20.305 24.607 l 1
 56.695 47.695 90.5001240234 84.7933740234 117.044 115.478 c 0
 266.396 288.464491211 419.009 466.614082031 563.144 641.654 c 0
 567.144 645.654 l 1
 173.39 645.915 l 2
 102.035 645.915 83.742 644.214836914 37.912 546.566 c 1
 12 563 l 1
EndSplineSet
Position2: "cpsp-1" dx=0 dy=0 dh=50 dv=100
Substitution2: "c2pc-1" z.pcap
Substitution2: "c2sc-1" z.smcp
EndChar

StartChar: parenleft
Encoding: 40 40 59
GlifName: parenleft
Width: 383
VWidth: 1515
Flags: HW
LayerCount: 2
Fore
SplineSet
335.695 725.305 m 1
 354.085 693.698 l 1
 164.662135725 597.10113208 78.736 421.760552194 78.736 211.783 c 3
 78.736 2.29488163545 164.168840326 -172.662715939 353.129 -270.959 c 1
 334.478 -302.044 l 1
 145.3960776 -202.197087392 37 -20.6177572138 37 211.783 c 3
 37 443.447176631 144.816099003 627.431737345 335.695 725.305 c 1
EndSplineSet
Position2: "cpsp-1" dx=0 dy=0 dh=50 dv=100
Position2: "'case' vertical ajustments for all-caps-1" dx=0 dy=125 dh=0 dv=0
EndChar

StartChar: zero
Encoding: 48 48 63
GlifName: zero
Width: 502
VWidth: 1159
Flags: HW
LayerCount: 2
Fore
SplineSet
237.654 362.698 m 3
 158.434 362.698 113.645 285.827 113.645 209.519 c 3
 113.645 112.78 164.302 30.085 263.78 30.085 c 3
 347.478 30.085 380.789 113.997 380.789 185.871 c 3
 380.789 283.654 335.827 362.698 237.654 362.698 c 3
252.434 395.566 m 3
 359.695 395.566 445.434 303.783 445.434 194 c 3
 445.434 87.217 364.434 -0.566 253.434 -0.566 c 3
 142.434 -0.566 53.434 87.217 53.434 194 c 3
 53.434 301.783 144.173 395.566 252.434 395.566 c 3
EndSplineSet
Substitution2: "'zero' Slashed Zero lookup 22-1" zero.alt
Substitution2: "dnom-1" zero.denom
Substitution2: "numr-1" zero.numerator
Substitution2: "lnum-1" zero.proportionallining
Substitution2: "tnum-1" zero.tabulartext
EndChar

StartChar: one
Encoding: 49 49 64
GlifName: one
Width: 371
VWidth: 1159
Flags: HW
LayerCount: 2
Fore
SplineSet
89.871 393.566 m 1
 140.878509766 389.481563477 227.798019531 390.446201172 282.214 403.566 c 1
 284.736 380.305 l 1
 222.648 368.305 221.821 362.176 217.387 328.827 c 0
 216.648 319.827 212.214 249.783 212.214 200 c 3
 212.214 143.956 215.909 66.956 217.387 55.129 c 0
 221.821 28.651 242.513 27.956 289.475 24.651 c 1
 288.214 -1.566 l 1
 216.983716797 4.78690136719 151.275208008 5.64833886719 79.871 -1.566 c 1
 78.132 23.912 l 1
 123.66 28.695 144.613 29.912 153.481 59.129 c 0
 156.437 68.39 160.871 91.912 160.871 200 c 3
 160.871 299.305 158.176 320.827 157.437 326.827 c 0
 153.003 360.915 155.959 366.305 89.132 370.305 c 1
 89.871 393.566 l 1
EndSplineSet
Substitution2: "dnom-1" one.denom
Substitution2: "numr-1" one.numerator
Substitution2: "tnum-1" one.tabulartext
Substitution2: "lnum-1" one.proportionallining
EndChar

StartChar: two
Encoding: 50 50 65
GlifName: two
Width: 445
VWidth: 1159
Flags: HW
LayerCount: 2
Fore
SplineSet
55.478 367 m 1
 82.1929365234 414.232380859 121.723123047 458 190 458 c 0
 266.261 458 328.261 405 328.261 335 c 3
 328.261 215.214 126.777 78.821 108.733 54.777 c 1
 337.739 57.255 l 2
 364.78 57.255 387.519 101.475 414.217 135.651 c 1
 433.956 118.912 l 1
 433.956 118.912 375.522 41.088 371.044 -8.129 c 1
 336.783 3.695 261.522 1.739 187 1.478 c 0
 97 1.217 38 -0.261 33 -0.261 c 1
 27 18 l 1
 76.83 75.783 271.745 194.83 271.745 327.61 c 3
 271.745 385.915 221.613 412.569 174.481 412.569 c 0
 125.61 412.569 96.783 385.176 75.478 353 c 1
 55.478 367 l 1
EndSplineSet
Substitution2: "dnom-1" two.denom
Substitution2: "numr-1" two.numerator
Substitution2: "tnum-1" two.tabulartext
Substitution2: "lnum-1" two.proportionallining
EndChar

StartChar: three
Encoding: 51 51 66
GlifName: three
Width: 388
VWidth: 1159
Flags: HW
LayerCount: 2
Fore
SplineSet
93.61 -210.349 m 1
 216.308 -158.132 261.701 -87.997 261.701 -3.346 c 3
 261.701 71.132 201.047 118.349 150.915 139.61 c 1
 146.654 139.61 116.088 123.044 93.783 122 c 1
 85.566 147.217 l 1
 148.698 165.739 245.396 224.044 245.396 334.654 c 3
 245.396 395.525 196.22 410.874 177.654 410.874 c 3
 137.437 410.874 112.695 385.003 92.739 364.349 c 1
 77.695 381.305 l 1
 87.434 414.261 152.302 455.566 191.173 455.566 c 3
 250.173 455.566 301.173 410.044 301.173 344.522 c 3
 301.173 242.519 203.129 173.39 199.129 169.39 c 1
 249.651 150.346 321.173 93.695 321.173 6 c 3
 321.173 -143.044 146.305 -228.566 103.088 -235.566 c 1
 93.61 -210.349 l 1
EndSplineSet
Substitution2: "dnom-1" three.denom
Substitution2: "numr-1" three.numerator
Substitution2: "tnum-1" three.tabulartext
Substitution2: "lnum-1" three.proportionallining
EndChar

StartChar: four
Encoding: 52 52 67
GlifName: four
Width: 463
VWidth: 1159
Flags: HW
LayerCount: 2
Fore
SplineSet
262.481 39.3665 m 1
 262.481 128.478 267.518324219 226.522135742 261.003 286.7655 c 1
 261.003 286.7655 138.312960938 131.504183594 51.085 39.3665 c 1
 262.481 39.3665 l 1
343.217 408.5865 m 1
 333.825894531 381.707516602 319.442998047 356.337813477 318.997 341.3255 c 0
 316.041 225.868 315.678716797 170.493944336 313.085 39.6275 c 1
 389.742 38.78 398.695 38.431 435.478 103.3255 c 1
 435.478 103.3255 451.714710938 96.3156445313 456.478 94.0645 c 1
 456.478 94.0645 431.623305664 32.4592363281 413.695 -7 c 1
 392.550145508 2.17633789063 341.699848633 0.783744140625 313.085 0.739 c 1
 312.671725586 -101.410525391 311.849574219 -157.741571289 322.434 -179.6305 c 1
 284.217 -203.261 262.739 -226.739 249 -252.3695 c 1
 249 -252.3695 226.420716797 -241.346361328 223.044 -236.2405 c 1
 257.217 -174.824 261.180059571 -151.201329102 261.742 0 c 1
 67.563 0 29.607 1 5.783 -16.217 c 1
 5.783 -16.217 -9.6430390625 -1.47533886719 -14.434 2.478 c 1
 0.566 18.478 298.749351563 366.025055664 319.8475 420.394555664 c 1
 343.217 408.5865 l 1
EndSplineSet
Substitution2: "dnom-1" four.denom
Substitution2: "numr-1" four.numerator
Substitution2: "tnum-1" four.tabulartext
Substitution2: "lnum-1" four.proportionallining
EndChar

StartChar: five
Encoding: 53 53 68
GlifName: five
Width: 362
VWidth: 1159
Flags: HW
LayerCount: 2
Fore
SplineSet
96.261 393.6305 m 1
 159.475361328 395.593694336 243.0205 396 258.129 398.3695 c 0
 285.999548828 402.561466797 300.559549804 428.451049804 313 448.3695 c 1
 313 448.3695 331.453710937 436.881644531 335.956 434.3695 c 1
 310.039444336 393.846733398 282.0205 338.267 264.129 338.3755 c 0
 234.263458008 338.758959961 182.702216797 335.6365 122 335.6365 c 1
 122 335.6365 116.593716797 269.702555664 112.434 217.6305 c 1
 194.2815 223.739 307.173 174.817685547 307.173 48.3695 c 3
 307.173 -95.4402246094 153 -205.478 46.305 -214.478 c 1
 46.305 -214.478 46.5561445312 -189.932861328 44.566 -184.305 c 1
 131.437 -179.739 254.352 -88.6813330078 254.352 33.22 c 3
 254.352 94.8783525391 208.8945 174.962 73.088 162.701 c 1
 81.9355 216.091 92.787578125 309.295077148 96.261 393.6305 c 1
EndSplineSet
Substitution2: "dnom-1" five.denom
Substitution2: "numr-1" five.numerator
Substitution2: "tnum-1" five.tabulartext
Substitution2: "lnum-1" five.proportionallining
EndChar

StartChar: six
Encoding: 54 54 69
GlifName: six
Width: 487
VWidth: 1159
Flags: HW
LayerCount: 2
Fore
SplineSet
367.173 631.305 m 1
 367.173 631.305 375.246611328 612.600911133 378.129 608.566 c 1
 219.648 541.393 129.689 408.512730469 129.689 236.17 c 3
 129.689 137.429263672 178.473398438 24.258 281.343 24.258 c 3
 339.427708008 24.258 384.657 86.3759052734 384.657 151.396 c 3
 384.657 253.672673828 329.707111328 326.786 261.393 326.786 c 3
 227.326266602 326.786 202.255 306.349 180.689 272.082 c 1
 159.428 284.516 l 1
 178.733 332.085 226.750974609 365.566 285.78 365.566 c 3
 367.305 365.566 438.217 278.084887696 438.217 178 c 3
 438.217 77.0079160156 346.322320312 -11.566 256.217 -11.566 c 3
 132.676191406 -11.566 70.217 118.020770508 70.217 214 c 3
 70.217 415.510904297 193.695 573.044 367.173 631.305 c 1
EndSplineSet
Substitution2: "dnom-1" six.denom
Substitution2: "numr-1" six.numerator
Substitution2: "tnum-1" six.tabulartext
Substitution2: "lnum-1" six.proportionallining
EndChar

StartChar: seven
Encoding: 55 55 70
GlifName: seven
Width: 420
VWidth: 1159
Flags: HW
LayerCount: 2
Fore
SplineSet
86.173 421.217 m 1
 91.563 411.044 99.2159394531 408.521729492 119.173 408.088 c 0
 238.927876953 404.446404297 412.651 406.61 426.651 409.566 c 1
 426.651 409.566 434.084233398 391.709388672 436.39 388.827 c 1
 404.827 358.305 154.83 -113.469 141.343 -171.044 c 1
 141.343 -171.044 101.261789063 -165.857377929 83.393 -166.434 c 1
 184.698 7.308 262.646715821 138.210641602 365.223 335.27 c 0
 368.161431641 341.088407227 363.748608398 348.880856446 357.572 349.355 c 0
 275.262286133 353.878488281 265.047 355.267 140.173 352.311 c 0
 87.7512001953 351.142600586 64.654 344.773055664 43.129 284.566 c 1
 43.129 284.566 22.0455332031 292.891477539 17.434 294.044 c 1
 18.739 298.742 56.173 395.217 62.173 425.956 c 1
 86.173 421.217 l 1
EndSplineSet
Substitution2: "dnom-1" seven.denom
Substitution2: "numr-1" seven.numerator
Substitution2: "tnum-1" seven.tabulartext
Substitution2: "lnum-1" seven.proportionallining
EndChar

StartChar: eight
Encoding: 56 56 71
GlifName: eight
Width: 468
VWidth: 1159
UnlinkRmOvrlpSave: 1
Flags: HW
LayerCount: 2
Fore
SplineSet
221.261 604.132 m 3
 174.209466797 604.132 132.17 553.262533203 132.17 511.343 c 3
 132.17 357.468415039 412.39 330.529532227 412.39 155 c 3
 412.39 56.1547099609 330.147290039 -8.566 222.39 -8.566 c 3
 136.842786133 -8.566 62.39 43.2022734375 62.39 133 c 3
 62.39 339.348458984 329.003 331.206174804 329.003 481.481 c 3
 329.003 527.450170898 297.579170898 604.132 221.261 604.132 c 3
231.607 632.566 m 3
 309.008617398 632.566 377.39 586.351688226 377.39 497 c 3
 377.39 330.149792969 117.428 334.541710937 117.428 162.56 c 3
 117.428 93.50725 167.184365234 22.824 243.082 22.824 c 3
 341.149342773 22.824 357.352 102.428407227 357.352 136.654 c 3
 357.352 216.731625977 311.470635056 250.270905496 238.659682617 302.525 c 0
 168.349585937 353.367493164 93.39 403.438510742 93.39 484 c 3
 93.39 572.988971679 167.116232066 632.566 231.607 632.566 c 3
EndSplineSet
Substitution2: "dnom-1" eight.denom
Substitution2: "numr-1" eight.numerator
Substitution2: "lnum-1" eight.proportionallining
Substitution2: "tnum-1" eight.tabulartext
EndChar

StartChar: uniFB00
Encoding: 64256 64256 73
GlifName: uniF_B_00
Width: 642
VWidth: 1159
Flags: HW
LayerCount: 2
Fore
SplineSet
400.566 401.176 m 1
 400.566 439.132 399.088 483.088 399.088 494.827 c 1
 399.088 556.296323652 411.69214146 600.342415141 433.853667969 635.659643555 c 1
 396.06507189 658.484376829 348.738802093 679.44 313.176 679.44 c 1
 219.6065 679.44 177.777 612.40085 177.777 494.654 c 1
 177.777 483.915 177.038 438.393 176.299 401.176 c 1
 207.121096591 401.915 246.617903409 402.654 288.525 402.654 c 1
 334.2674375 402.654 381.4275625 401.915 400.566 401.176 c 1
475.752152344 683.820657226 m 1
 483.519097153 691.716412335 492.969700889 700.065741548 502.78 707.393 c 0
 537.638766129 732.875333333 576.05525 759.393 633.082 759.393 c 1
 668.997 759.393 717.692 746.827 742.17 725.088 c 1
 741.431 705.135 738.255 700.437 702.044 673.094 c 1
 665.132 692.66 631.261 712.484 596.132 712.484 c 1
 502.855 712.484 462.994 623.877 462.994 499.827 c 1
 462.994 489.088 460.777 438.393 460.038 401.176 c 1
 516.105744318 402.654 567.932255682 402.654 624 404.132 c 1
 624 363.874 l 1
 568.221431818 365.352 515.077568182 366.091 459.299 367.569 c 1
 458.56 334.959 458.56 308.132 458.56 294.827 c 1
 458.56 210.476565977 459.038 131.39 462.733 49.302 c 0
 463.472 35.607 467.906 32.0030190218 482.601 31.173 c 0
 509.308685714 30.173 533.852314286 29.651 560.56 28.39 c 1
 557.299 -5.217 l 1
 517.797561798 -0.478 461.413438202 1.261 421.912 1.261 c 1
 394.261 1.261 352.654 -1.739 325.003 -5.739 c 1
 322.481 27.129 l 1
 334.525 28.39 349.595652447 28.8827065559 362.135 30.912 c 0
 389.22 36.607 392.176 45.953 393.654 76.302 c 0
 397.349 130.129 401.305 200.476236567 401.305 267.827 c 1
 401.305 289.132 400.566 328.22 400.566 367.569 c 1
 381.4275625 366.83 334.2674375 366.83 288.525 366.83 c 1
 246.856659091 366.83 206.143340909 366.83 175.56 367.569 c 1
 174.821 334.959 174.821 308.132 174.821 294.827 c 1
 174.821 210.476565977 175.299 131.39 178.994 49.302 c 0
 179.733 35.607 184.167 32.031625 198.862 31.173 c 0
 223.601 30.173 235.994 29.651 260.733 28.39 c 1
 258.211 -5.956 l 1
 220.387 -1.217 175.997 1.261 138.173 1.261 c 1
 110.522 1.261 68.176 -1.739 40.525 -5.739 c 1
 38.742 27.129 l 1
 50.786 28.39 65.856652447 28.8827065559 78.396 30.912 c 0
 105.481 36.607 108.437 45.953 109.915 76.302 c 0
 113.61 130.129 116.088 200.476236567 116.088 267.827 c 1
 116.088 289.132 115.349 328.22 115.349 367.569 c 1
 91.132 366.83 68.176 364.613 43.959 363.874 c 1
 43.959 404.132 l 1
 68.176 403.393 91.132 401.915 115.349 401.176 c 1
 115.349 439.132 115.349 477.915 115.349 489.654 c 1
 115.349 593.50227907 155.790515195 629.158080341 217.997 674.088 c 0
 253.425043478 699.676666667 295.252 726.349 353.082 726.349 c 1
 389.545865576 726.349 449.11777763 707.045924376 475.752152344 683.820657226 c 1
EndSplineSet
Substitution2: "salt-1" uniFB00.alt
LCarets2: 1 311
Ligature2: "liga-1" f f
EndChar

StartChar: question
Encoding: 63 63 74
GlifName: question
Width: 378
VWidth: 1159
Flags: HW
LayerCount: 2
Fore
SplineSet
38 573.608450976 m 1
 39.5098118601 587.696102792 40.1228805802 600.128941276 40.1228805802 611.126474821 c 1
 40.1228805802 655.484347728 26.2403514741 677.211129092 26.2403514741 686.388242759 c 1
 26.2403514741 692.200045412 31.8689094798 696.708094329 51.478 701.1132 c 1
 69.8584678261 648.232297872 77.0217438201 647.9402 106.868 647.9402 c 3
 206.142276693 647.9402 301 567.125765329 301 444.799949024 c 3
 301 276.568581091 177.17828 266.407068244 161.56 260.755949024 c 0
 141.37791 250.409949024 131.014913 224.51121933 129.044 183.434 c 1
 129.044 183.434 114.697688 182.494949024 109.478 182.494949024 c 1
 107.09593176 211.275307468 104.889387037 238.522247093 104.889387037 260.856820278 c 3
 104.889387037 292.12664629 109.677093745 314.948395509 125.736 323.356949024 c 0
 156.858792 336.832333922 274.783 315.34601765 274.783 438.148949024 c 3
 274.783 524.830685068 198.724560067 577.570618761 90.5765723821 577.570618761 c 3
 73.620762765 577.570618761 56.0342096419 576.274566988 38 573.608450976 c 1
EndSplineSet
Refer: 48 46 S 1 0 0 1 18 0 2
Position2: "cpsp-1" dx=0 dy=0 dh=50 dv=100
Substitution2: "smcp-1" question.smcp
Substitution2: "pcap-1" question.pcap
EndChar

StartChar: exclam
Encoding: 33 33 75
GlifName: exclam
Width: 266
VWidth: 1159
Flags: HW
LayerCount: 2
Fore
SplineSet
112.132 208.739 m 1
 112.132 338.843722222 110.654 436.922666667 105.481 533 c 0
 102.525 579.797203 84.789 603.693586 86.267 653.478 c 1
 146.126 660.868 184.167 681.56 187.862 658.651 c 1
 176.038 623.311524644 177.516 608.246923308 173.082 533 c 0
 164.953 408 151.651 342 151.651 208 c 1
 112.132 208.739 l 1
EndSplineSet
Refer: 48 46 N 1 0 0 1 23 0 2
Substitution2: "pcap-1" exclam.pcap
Substitution2: "smcp-1" exclam.smcp
Position2: "cpsp-1" dx=0 dy=0 dh=50 dv=100
EndChar

StartChar: paragraph
Encoding: 182 182 76
GlifName: paragraph
Width: 591
VWidth: 1159
UnlinkRmOvrlpSave: 1
Flags: HW
LayerCount: 2
Fore
SplineSet
311.255 675.088 m 1
 347.079 681 l 1
 337.601 45.261 l 1
 303.255 54.129 l 1
 311.255 675.088 l 1
554.478 742.044 m 1
 556.478 695.135 l 1
 512.311093023 691.515125 359.557150313 686.346513418 285.167 637.217 c 0
 233.332185522 603.171827817 212.469 575.260356465 212.469 310.924 c 3
 212.469 154.8464 235.354250637 119.701209615 276.038 87.956 c 0
 298.447184186 70.2934199219 382.912357477 49.8319072266 466.651 37.126 c 1
 458.217 -9.044 l 1
 260.143193598 34.0979738842 222.511639026 68.5807755666 167.695 129.434 c 0
 108.51923301 195.759018868 79.1819922129 278.176654112 62.607 342.478 c 0
 59.4474399862 354.743155459 56.6783671875 364.875080434 56.6783671875 375.118775391 c 3
 56.6783671875 382.396203525 58.1999110183 390.745401897 61.607 399.522 c 0
 91.9081538461 477.600906977 143.845062652 587.088954997 245.434 657.783 c 0
 347.77974026 729.003607143 554.478 742.044 554.478 742.044 c 1
EndSplineSet
Position2: "cpsp-1" dx=0 dy=0 dh=50 dv=100
EndChar

StartChar: ampersand
Encoding: 38 38 78
GlifName: ampersand
Width: 676
VWidth: 1159
Flags: HW
LayerCount: 2
Fore
SplineSet
206.0455 367.725498047 m 1
 124.632050485 334.245437192 76.472 271.641381028 76.472 204.516 c 3
 76.472 102.671012237 137.000445177 35.821 230.777 35.821 c 3
 309.975532835 35.821 356.363073321 105.686014955 393.6995 151.637498047 c 1
 324.091 303.783 244.800225821 351.308351479 206.0455 367.725498047 c 1
206.5265 602.508498047 m 1
 175.655841573 602.508498047 115.346 575.047 115.346 520.041 c 3
 115.346 464.045767134 180.212761084 438.210884854 222.7815 415.156498047 c 1
 271.9190194 444.352959573 295.9165 472.43072881 295.9165 498.420498047 c 3
 295.9165 557.274045916 253.252563277 602.508498047 206.5265 602.508498047 c 1
638.0835 465.802501953 m 1
 599.984216979 465.802501953 570.20919816 454.804274352 560.956 430.138 c 0
 528.374520698 340.053734089 497.254236219 258.83196217 447.3475 176.980498047 c 1
 482.5794 86.745 520.807040982 33.692 558.475 33.692 c 3
 599.668158575 33.692 627.501457125 85.88925 643.088 118.912 c 1
 671.739 106.695 l 1
 638.10665815 37.535623643 611.979901825 -6.566 532.61 -6.566 c 3
 477.165096837 -6.566 438.514896104 51.4568775171 411.22 116.874 c 1
 379.726685694 83.9786281447 329.82761151 -12.566 199 -12.566 c 3
 83.6540128965 -12.566 17 79.8185196187 17 172 c 3
 17 277.049697168 89.889595 348.606724312 173.0455 384.159498047 c 1
 122.838883361 408.908317065 81 450.791055493 81 506 c 3
 81 594.081291532 156 627.755828701 231 654.827 c 1
 313.873888591 625.416549756 347.9985 578.3504133 347.9985 502.854498047 c 3
 347.9985 482.8707566 307.005030618 432.881648021 255.6935 400.200498047 c 1
 308.823172507 378.47850649 391.897596896 294.504399896 429.044 208.692 c 1
 468.618383046 274.564332658 513.302017522 381.597422072 528.349 452.657 c 0
 533.159304452 474.06900545 495.41718292 487.028430246 476.0455 493.670501953 c 1
 485.871 524.217 l 1
 525.147294425 509.656937 593.412943496 496.917045 640.17 497.827 c 1
 638.0835 465.802501953 l 1
EndSplineSet
Substitution2: "pcap-1" ampersand.pcap
Substitution2: "smcp-1" ampersand.smcp
Position2: "cpsp-1" dx=0 dy=0 dh=50 dv=100
EndChar

StartChar: quotesingle
Encoding: 39 39 79
GlifName: quotesingle
Width: 200
VWidth: 1159
Flags: HW
LayerCount: 2
Fore
SplineSet
60.135 698.134 m 1
 137.343 698.134 l 1
 136.578874 647.168126 118.621174 514.761826 116.651 447.266 c 1
 80.827 447.266 l 1
 78.7656334 514.670929 61.0139666 647.28341 60.135 698.134 c 1
EndSplineSet
Position2: "cpsp-1" dx=0 dy=0 dh=7 dv=14
EndChar

StartChar: bracketleft
Encoding: 91 91 85
GlifName: bracketleft
Width: 246
VWidth: 1515
Flags: HW
LayerCount: 2
Fore
SplineSet
77.258 678.132 m 1
 77.258 -191.132 l 1
 219 -197.783 l 1
 219 -228.434 l 1
 37 -228.434 l 1
 37 715.434 l 1
 219 715.434 l 1
 219 685.522 l 1
 77.258 678.132 l 1
EndSplineSet
Position2: "cpsp-1" dx=0 dy=0 dh=50 dv=100
Position2: "'case' vertical ajustments for all-caps-1" dx=0 dy=90 dh=0 dv=0
EndChar

StartChar: asterisk
Encoding: 42 42 87
GlifName: asterisk
Width: 362
VWidth: 1159
Flags: HW
LayerCount: 2
Fore
SplineSet
187.998743002 521.082663155 m 1
 162.512887785 470.643766611 163.766873236 446.753813814 131.841339552 391.106955964 c 1
 114.844339552 388.150955964 84.3739367274 415.805224476 80.6789367274 429.107224476 c 1
 116.211645689 481.686356544 134.547381965 487.233125155 168.713461035 532.660970026 c 1
 111.93543824 540.902172717 89.9103683137 534.017184477 28.5729039222 546.895275001 c 1
 19.7049039222 563.892275001 39.0695068869 600.978845438 47.9375068869 607.629845438 c 1
 108.667543645 590.343344357 120.752550032 573.510502755 173.055153199 555.053367206 c 1
 163.798067089 612.625915645 148.216734484 630.562593522 141.926968643 691.483136774 c 1
 153.011968643 703.307136774 194.72599836 700.136167828 206.54999836 691.268167828 c 1
 208.482109949 630.088687526 198.169504014 614.947601078 196.321663138 556.966688569 c 1
 248.994987342 584.687416308 259.598674542 602.559422066 317.301553225 628.487794389 c 1
 329.125553225 623.314794389 343.398811988 587.250484898 336.747811988 568.036484898 c 1
 279.624158054 547.072595259 260.649382769 552.050591006 205.296940995 535.603520599 c 1
 246.622033868 493.818614499 268.444570563 487.427293168 310.266070208 442.059436432 c 1
 308.788070208 427.279436432 275.269114014 405.400212457 258.272114014 405.400212457 c 1
 219.97462942 454.489257625 220.35038908 474.106091896 187.998743002 521.082663155 c 1
EndSplineSet
EndChar

StartChar: Acute
Encoding: 58018 58018 90
GlifName: A_cute
Width: 222
VWidth: 1159
Flags: HW
AnchorPoint: "Top" 64 699 mark 0
LayerCount: 2
Fore
SplineSet
26.5976660156 779.185807618 m 5
 80.2944228516 816.337841797 172.87665332 867.802228516 232.929726563 887.398064453 c 5
 234.997338868 885.212818359 251.881064453 853.277621094 258.829396484 831.233193359 c 5
 200.112871094 821.962583984 121.415304687 791.787255859 40.1164228516 747.026368164 c 5
 26.5976660156 779.185807618 l 5
EndSplineSet
EndChar

StartChar: acutecomb
Encoding: 769 769 92
GlifName: acutecomb
Width: 0
VWidth: 1159
Flags: HW
AnchorPoint: "TopMark" -216 403 mark 0
AnchorPoint: "Top" -198.5 402 mark 0
AnchorPoint: "TopMark" -191 616 basemark 0
LayerCount: 2
Fore
SplineSet
-233.929529 447.678875 m 1
 -207.854241188 508.027129815 -156.944227625 602.043441 -117.403716 652.040852 c 1
 -114.690229655 651.482558295 -85.871633715 635.701044436 -69.8031449 622.11218 c 1
 -113.138410359 581.10773343 -162.829781859 512.00494016 -207.739399 429.790789 c 1
 -233.929529 447.678875 l 1
EndSplineSet
EndChar

StartChar: uni0302
Encoding: 770 770 93
GlifName: uni0302
Width: 0
VWidth: 1159
Flags: HW
AnchorPoint: "TopMark" -198.5 587 basemark 0
AnchorPoint: "TopMark" -200.5 384 mark 0
AnchorPoint: "Top" -198.5 401 mark 0
LayerCount: 2
Fore
SplineSet
-84.29325 435.8522 m 1
 -104.288949024 422.860898047 l 1
 -197.6305 543.045359 l 1
 -290.711050976 422.860898047 l 1
 -310.70675 435.8522 l 1
 -212.81055 607.5566 l 1
 -182.18945 607.5566 l 1
 -84.29325 435.8522 l 1
EndSplineSet
EndChar

StartChar: gravecomb
Encoding: 768 768 94
GlifName: gravecomb
Width: 0
VWidth: 1159
Flags: HW
AnchorPoint: "TopMark" -195 625 basemark 0
AnchorPoint: "Top" -198.5 409 mark 0
AnchorPoint: "TopMark" -196 410 mark 0
LayerCount: 2
Fore
SplineSet
-168.014174 449.322411 m 1
 -194.203565 431.434325 l 1
 -239.113182141 513.64773716 -288.804553641 582.751526515 -332.139154 623.755716 c 1
 -316.282220932 637.24878344 -286.169425738 652.839228254 -284.539987 653.683649 c 1
 -244.998736375 603.686977 -194.090200813 509.6704009 -168.014174 449.322411 c 1
EndSplineSet
EndChar

StartChar: Grave
Encoding: 58019 58019 96
GlifName: G_rave
Width: 222
VWidth: 1159
Flags: HW
AnchorPoint: "Top" 64 699 mark 0
LayerCount: 2
Fore
SplineSet
119.306033203 778.295963867 m 5
 105.787743164 746.136524414 l 5
 24.4898378906 790.896435547 -54.2089599609 821.073461914 -112.924508789 830.344071289 c 5
 -106.110409179 852.172716797 -88.004625 884.745157226 -87.0245839844 886.507499024 c 5
 -26.971765625 866.912129882 65.6090214844 815.447021484 119.306033203 778.295963867 c 5
EndSplineSet
EndChar

StartChar: uni030A
Encoding: 778 778 98
GlifName: uni030A_
Width: 0
VWidth: 1159
Flags: HW
AnchorPoint: "TopMark" -200.5 382 mark 0
AnchorPoint: "TopMark" -198.5 562 basemark 0
AnchorPoint: "Top" -198.5 395 mark 0
LayerCount: 2
Fore
SplineSet
-198 546.143409125 m 5
 -221.930823682 546.143409125 -244.088529149 526.643693667 -244.088529149 500.053631211 c 5
 -244.088529149 473.534838948 -222.817013289 455.856590875 -198 455.856590875 c 5
 -174.069176318 455.856590875 -151.911470851 475.356306333 -151.911470851 501.946368789 c 5
 -151.911470851 526.69686286 -173.182986711 546.143409125 -198 546.143409125 c 5
-198 575.716070274 m 5
 -157.012619434 575.716070274 -121.880400469 543.457662317 -121.880400469 502.403529258 c 5
 -121.880400469 458.488255551 -158.476409834 426.283929726 -198 426.283929726 c 5
 -238.987380566 426.283929726 -274.119599531 455.608883254 -274.119599531 499.596470742 c 5
 -274.119599531 543.510693108 -237.523590166 575.716070274 -198 575.716070274 c 5
EndSplineSet
EndChar

StartChar: uni031B
Encoding: 795 795 99
GlifName: uni031B_
Width: 0
VWidth: 1159
Flags: HW
AnchorPoint: "Horn" -73.5 341.8 mark 0
LayerCount: 2
Fore
SplineSet
22.8306767578 422.744841797 m 3
 22.8306767578 437.944655639 13.4945138275 448.017147104 -4.49029980469 457.016732422 c 1
 2.49704927778 478.687556796 17.7955262626 492.322265625 35.60003125 492.322265625 c 3
 57.4172539474 492.322265625 75.625 472.250421875 75.625 444.775390625 c 3
 75.625 399.205078125 -15.2378927954 330.428 -84.5 330 c 1
 -85 348 l 1
 -36.9545360703 349.636044432 22.8306767578 390.161276654 22.8306767578 422.744841797 c 3
EndSplineSet
EndChar

StartChar: tildecomb
Encoding: 771 771 100
GlifName: tildecomb
Width: 0
VWidth: 1159
Flags: HW
AnchorPoint: "TopMark" -214 389 mark 0
AnchorPoint: "TopMark" -198.5 538 basemark 0
AnchorPoint: "Top" -210 382 mark 0
LayerCount: 2
Fore
SplineSet
-343.509814 437.219106 m 1
 -315.204950222 488.040480929 -278.851731479 526.66097757 -266.023340524 526.66097757 c 3
 -227.105809234 526.66097757 -181.335081176 488.832675789 -144.760135937 488.832675789 c 3
 -136.071113072 488.832675789 -113.987583618 514.508836455 -101.771856 545.520936 c 1
 -72.9104627 532.832321 l 1
 -92.5290315405 485.045611129 -127.196393075 438.228675789 -141.775048938 438.228675789 c 3
 -179.946425387 438.228675789 -234.967260927 476.46638357 -268.774042641 476.46638357 c 3
 -279.250174799 476.46638357 -298.651 447.877769 -315.20389 423.564655 c 1
 -343.509814 437.219106 l 1
EndSplineSet
EndChar

StartChar: uni0306
Encoding: 774 774 105
GlifName: uni0306
Width: 0
VWidth: 1159
Flags: HW
AnchorPoint: "TopMark" -200.5 396 mark 0
AnchorPoint: "TopMark" -202 541 basemark 0
AnchorPoint: "Top" -198.5 393 mark 0
LayerCount: 2
Fore
SplineSet
-329.557830836 546.722125729 m 1
 -302.700106522 558.286825405 l 1
 -287.517747318 506.621485254 -242.549819636 481.409341 -197.923279 481.409341 c 0
 -153.363109473 481.409341 -108.166775496 506.526566742 -92.2932558232 558.316258505 c 1
 -65.4475907461 546.696727612 l 1
 -84.4923612546 472.489910849 -141.109796113 434.708 -198.026 434.708 c 0
 -254.935905464 434.708 -311.207916426 472.505611093 -329.557830836 546.722125729 c 1
EndSplineSet
EndChar

StartChar: uni0313
Encoding: 787 787 111
GlifName: uni0313
Width: 0
VWidth: 1159
Flags: HW
AnchorPoint: "TopMark" -178 410 mark 0
AnchorPoint: "TopMark" -167 631 basemark 0
AnchorPoint: "Top" -179 414 mark 0
LayerCount: 2
Fore
SplineSet
-199.673374023 446.339677735 m 1
 -213.056185547 464.686977539 l 1
 -185.516146484 484.867995117 -157.176149414 519.343511718 -166.677013672 539.981179688 c 0
 -174.143196289 555.898537109 -189.960682617 566.771498047 -205.590469727 575.05566211 c 0
 -209.217678711 576.605176758 -210.414945312 581.676124024 -210.414945312 586.148798828 c 3
 -210.414945312 590.55524707 -209.241892578 594.411850586 -205.802022461 595.832649414 c 0
 -189.84853418 604.108657227 -177.409553711 615.283673828 -169.670541016 631.752833008 c 0
 -168.285170899 635.380508789 -163.94172168 637.985873047 -159.598272461 637.985873047 c 3
 -155.161493164 637.985873047 -150.975816406 635.403958008 -149.526725586 631.964385742 c 0
 -140.677996093 615.37721582 -127.848919922 603.584873047 -111.775126953 595.832649414 c 0
 -108.148172852 594.424084961 -106.352633789 590.585578124 -106.352633789 586.148798828 c 1
 -106.352633789 580.654298828 -121.428895508 492.858395508 -199.673374023 446.339677735 c 1
EndSplineSet
EndChar

StartChar: uni0315
Encoding: 789 789 113
GlifName: uni0315
Width: 0
VWidth: 1159
Flags: HW
AnchorPoint: "TopRight" -110.5 531 mark 0
LayerCount: 2
Fore
SplineSet
-57.14 656.723030586 m 5
 -5.797 641.594030586 l 5
 -19.031363779 577.887565805 -47.9127280811 502.547221344 -106 450.494 c 5
 -126 464.494 l 5
 -85.4941054189 521.704652959 -66.0251747019 587.5209386 -57.14 656.723030586 c 5
EndSplineSet
EndChar

StartChar: Circumflex
Encoding: 58020 58020 159
GlifName: C_ircumflex
Width: 281
VWidth: 1159
Flags: HMW
AnchorPoint: "Top" 140 699 mark 0
LayerCount: 2
Fore
SplineSet
279.504969414 761.361085641 m 5
 253.662916399 747.855122344 l 5
 243.232736164 756.271871579 145.129505663 803.485920476 140.5 803.485920476 c 5
 136.1935 803.485920476 38.3744028932 756.652789094 27.3373053016 747.855122344 c 5
 1.49511926594 761.361085641 l 5
 121.845922516 859.400101953 l 5
 159.154077484 859.400101953 l 5
 279.504969414 761.361085641 l 5
EndSplineSet
EndChar

StartChar: Tilde
Encoding: 58022 58022 161
GlifName: T_ilde
Width: 329
VWidth: 1159
Flags: HW
AnchorPoint: "Top" 165 699 mark 0
LayerCount: 2
Fore
SplineSet
16.6379677734 757.218748047 m 5
 47.9104521484 808.040869141 88.0762431641 846.660914062 102.249793945 846.660914062 c 7
 145.247988281 846.660914062 195.818170898 808.832479492 236.228275391 808.832479492 c 7
 245.828188477 808.832479492 270.227880859 834.509242188 283.724623047 865.521097656 c 5
 315.611787109 852.832367188 l 5
 293.936436523 805.045723633 255.633851563 758.228479492 239.526529297 758.228479492 c 7
 197.351979493 758.228479492 136.562327148 796.466106445 99.2105556641 796.466106445 c 7
 87.6357236328 796.466106445 66.2006855469 767.878126953 47.9118535156 743.564308594 c 5
 16.6379677734 757.218748047 l 5
EndSplineSet
EndChar

StartChar: Breve
Encoding: 58023 58023 162
GlifName: B_reve
Width: 321
VWidth: 1159
Flags: HW
AnchorPoint: "Top" 162 699 mark 0
LayerCount: 2
Fore
SplineSet
16.7646 838.464 m 5
 45.0975122344 851.492961258 l 5
 61.5697686642 812.346852722 110.745559417 792.712115155 160.081325007 792.712115155 c 7
 209.307539486 792.712115155 258.693039972 812.26486562 275.902118266 851.492961258 c 5
 304.235 838.464 l 5
 283.3205 777.7865 221.529825 747.44775 159.9293125 747.44775 c 7
 98.3288 747.44775 36.91845 777.7865 16.7646 838.464 c 5
EndSplineSet
EndChar

StartChar: Ring
Encoding: 58026 58026 165
GlifName: R_ing
Width: 281
VWidth: 1159
Flags: HW
AnchorPoint: "Top" 132 699 mark 0
LayerCount: 2
Fore
SplineSet
139.5 868.246 m 5
 114.908 868.246 92.1377 848.208 92.1377 820.884 c 5
 92.1377 793.56 113.998 775.344 139.5 775.344 c 5
 164.092 775.344 186.862 795.382 186.862 822.706 c 5
 186.862 848.208 165.002 868.246 139.5 868.246 c 5
139.5 902.866932469 m 5
 183.944511041 902.866932469 222.038715524 867.840074431 222.038715524 823.261742274 c 5
 222.038715524 775.642077952 182.356457222 740.72302675 139.5 740.72302675 c 5
 95.0556191835 740.72302675 56.9610627766 772.565102828 56.9610627766 820.328216945 c 5
 56.9610627766 867.945972548 96.6433854526 902.866932469 139.5 902.866932469 c 5
EndSplineSet
EndChar

StartChar: Uni030B
Encoding: 58027 58027 166
GlifName: U_ni030B_
Width: 300
VWidth: 1159
Flags: HW
AnchorPoint: "Top" 87 699 mark 0
LayerCount: 2
Fore
SplineSet
21.6745 753.4387 m 5
 45.8065 812.1367 64.9918657718 859.132120482 99.437 909.651 c 5
 99.437 909.651 127.512180918 895.623694545 145.1935 884.3097 c 5
 104.644352941 839.94499025 89.1970588235 815.746057659 46.717 735.082949024 c 5
 21.6745 753.4387 l 5
121.500569 754.580588 m 5
 164.973499 807.519827 194.742041578 843.443902766 241.891958 880.99128 c 5
 241.891958 880.99128 264.747693682 859.595663555 278.428162 843.789976 c 5
 226.363868777 813.345354705 204.450897375 794.674806026 140.174877 729.653808 c 5
 121.500569 754.580588 l 5
EndSplineSet
EndChar

StartChar: eogonek
Encoding: 281 281 253
GlifName: eogonek
Width: 409
VWidth: 1159
UnlinkRmOvrlpSave: 1
Flags: HW
HStem: -303.658 60.1279<275.366 346.494> 425 168
VStem: 53 185 190.912 69.209<-230.259 -111.139>
AnchorPoint: "Top" 209 465 basechar 0
LayerCount: 2
Back
SplineSet
366.630859375 52.54296875 m 5xd0
 276.377929688 -47.1502175719 262.771484375 -94.5674013864 262.771484375 -186 c 7
 262.771484375 -236.143554688 288.107421875 -265.872070312 320.166015625 -265.872070312 c 7
 339.918945312 -265.872070312 363.635742188 -255.18359375 387.97265625 -231.599609375 c 13
 387.97265625 -231.599609375 399.081054688 -241.926757812 401.771484375 -250 c 5
 374.767578125 -302.788085938 329.271484375 -326 287.771484375 -326 c 7
 237.798828125 -326 193.561523438 -284.413085938 193.561523438 -214.834960938 c 7
 193.561523438 -150.617750838 236.666992188 -26.3930451996 359.931640625 73.76171875 c 5
 366.630859375 52.54296875 l 5xd0
EndSplineSet
Fore
SplineSet
363.98046875 49.884765625 m 1xd0
 273.727539062 -43.5393374647 260.12109375 -87.9747324245 260.12109375 -173.658203125 c 3
 260.12109375 -217.5234375 285.45703125 -243.530273438 317.515625 -243.530273438 c 3
 330.34375 -243.530273438 345.74609375 -239.079101562 361.55078125 -229.2578125 c 1
 361.55078125 -229.2578125 372.66015625 -239.584960938 375.349609375 -247.658203125 c 1
 353.9765625 -286.5546875 317.967773438 -303.658203125 285.12109375 -303.658203125 c 3
 235.149414062 -303.658203125 190.912109375 -265.8125 190.912109375 -202.493164062 c 3
 190.912109375 -141.613760624 234.016601562 -23.8457629693 357.282226562 71.103515625 c 1
 363.98046875 49.884765625 l 1xd0
EndSplineSet
Refer: 4 101 N 1 0 0 1 0 0 3
Substitution2: "smcp-1" eogonek.smcp
Substitution2: "case-1" Eogonek
Substitution2: "pcap-1" eogonek.pcap
EndChar

StartChar: uni0328
Encoding: 808 808 254
GlifName: uni0328
Width: 0
VWidth: 1159
Flags: HW
AnchorPoint: "Ogonek" -104.35 21.6582 mark 0
LayerCount: 2
Back
SplineSet
-94.3691 15.543 m 1
 -195.162388974 -70.3584937184 -226.228515625 -111.215514218 -226.228515625 -190 c 3
 -226.228515625 -221.309227792 -201.775586907 -239.872070312 -170.833984375 -239.872070312 c 3
 -154.801506148 -239.872070312 -135.55173736 -232.614365408 -115.798828125 -216.599609375 c 1
 -115.798828125 -216.599609375 -104.690305483 -226.926828613 -102 -235 c 1
 -125.978710258 -280.147631579 -166.377945685 -300 -203.228515625 -300 c 3
 -253.201025342 -300 -297.438476562 -268.513714542 -297.438476562 -215.834960938 c 3
 -297.438476562 -159.628200176 -233.56061762 -50.8996824072 -101.068 36.7617 c 1
 -94.3691 15.543 l 1
EndSplineSet
Fore
SplineSet
-94.3923049391 15.3352623516 m 1
 -192.79325103 -62.8907067754 -215.509673383 -113.822280548 -215.509673383 -180.657924805 c 3
 -215.509673383 -223.975733194 -190.491804568 -249.301408 -159.728968578 -249.301408 c 3
 -142.375409225 -249.301408 -122.139838148 -242.219100678 -105.064167969 -225.774458984 c 1
 -103.251368386 -226.911271962 -93.4624230847 -236.035274829 -90.569 -244.522 c 1
 -112.470378256 -282.900917458 -149.601822957 -300 -183.668873578 -300 c 3
 -231.030874839 -300 -272.919124383 -263.058239869 -272.919124383 -201.966989805 c 3
 -272.919124383 -145.321658349 -226.526554223 -45.5935063392 -101.227395555 36.7655281359 c 1
 -94.3923049391 15.3352623516 l 1
EndSplineSet
EndChar

StartChar: Aogonek
Encoding: 260 260 255
GlifName: A_ogonek
Width: 730
VWidth: 0
HStem: -346.802 72.7783<509.644 579.002> 245 42<247 437.657> 692 20G<358 405.73>
VStem: 360 43<632.023 712> 417.273 71.958<-253.556 -112.611>
LayerCount: 2
Fore
SplineSet
247 287 m 1
 300 282 410 283 459 283 c 1
 420 383 394 443 352 545 c 9
 311 444 284 378 247 287 c 1
515.106 9.30371 m 0
 528.580338516 25.1898171388 540.25 48 535 76 c 0
 512 139 498 173 475 236 c 1
 415 246 318 252 231 245 c 9
 204.87 183.38 185 147 164 87 c 0
 152 51 176 29 247 34 c 9
 245 -10 l 1
 190 1 82 4 27 -5 c 9
 27 -5 23 20 22 34 c 1
 71 48 95 57 106 80 c 0
 198 289 276 470 344 640 c 0
 359 678 356 679 360 712 c 9
 403 712 l 9
 408.46 684.7 403 681 417 642 c 0
 489.318 423.284 532.922 291.261 632 78.1982 c 0
 640 60.9938 671.846 35.0799 702 32 c 9
 702 32 701 8 700 -4 c 1
 648.463 32.9972 584.223 32.6444 544 -14 c 0
 498.216367131 -67.0927599884 489.231445312 -140.721568606 489.231445312 -196.747070312 c 3
 489.231445312 -237.611373161 518.631004142 -274.0234375 550.14453125 -274.0234375 c 3
 569.969724697 -274.0234375 593.77495698 -267.592408263 618.200195312 -253.40234375 c 9
 618.200195312 -253.40234375 629.310038072 -263.730014861 632 -271.801757812 c 1
 605.823 -315.298757812 555.232 -346.801757812 515 -346.801757812 c 3
 465.302222486 -346.801757812 417.2734375 -298.236689929 417.2734375 -235.232421875 c 3
 417.2734375 -105.15651352 478.973157111 -33.2965417808 515.106 9.30371 c 0
EndSplineSet
Validated: 33
Position2: "cpsp-1" dx=0 dy=0 dh=50 dv=100
Substitution2: "c2pc-1" aogonek.pcap
Substitution2: "c2sc-1" aogonek.smcp
EndChar

StartChar: Uni0328
Encoding: 58029 58029 257
GlifName: U_ni0328
Width: 0
VWidth: 1159
Flags: HW
AnchorPoint: "Ogonek" -105.35 23.6582 mark 0
LayerCount: 2
Fore
SplineSet
-92.693893475 14.4805942906 m 5
 -172.87335847 -38.6283999515 -216.312939453 -123.789071078 -216.312939453 -197.72409375 c 7
 -216.312939453 -240.351445724 -186.535309804 -277.427438477 -153.776325196 -277.427438477 c 7
 -130.25541809 -277.427438477 -100.187181716 -263.882813165 -73.0366484375 -236.510742188 c 5
 -73.0366484375 -236.510742188 -61.5069641192 -246.838961447 -58.7158203125 -254.911132812 c 5
 -85.7705506897 -302.647325281 -138.205109564 -338.23046875 -179.78515625 -338.23046875 c 7
 -228.965068015 -338.23046875 -275.583984375 -289.420252063 -275.583984375 -227.85546875 c 7
 -275.583984375 -144.145292738 -241.514987387 -38.8975355005 -98.8711 45.1113 c 5
 -92.693893475 14.4805942906 l 5
EndSplineSet
EndChar

StartChar: Eogonek
Encoding: 280 280 258
GlifName: E_ogonek
Width: 672
VWidth: 0
UnlinkRmOvrlpSave: 1
HStem: -347.889 73.7197<484.634 553.852> -9 35<56 103.477> 3.0702 37.3021<232.525 492.796> 333 36<205 473.393> 646.077 36.8925<248.298 487.505> 657 31<48 108.489>
VStem: 122 93<372.549 638.287> 126.788 78.2122<90.4625 333 369 603.172> 395.766 71.875<-257.592 -149.807> 497 36<247.75 305.348 393.846 441.094> 538 30<537 618.59>
AnchorPoint: "Top" 330 699 basechar 0
LayerCount: 2
Fore
SplineSet
48 688 m 1xd6e0
 120.521055818 684.355725838 206.588460485 682.969176485 287.955928091 682.969176485 c 3
 429.86328558 682.969176485 557.47511282 687.186564497 574 691 c 1
 585.145145837 681.247997393 589.133414459 675.741599913 589.133414459 667.087387512 c 3
 589.133414459 650.893580795 575.168856119 623.677987617 568 537 c 1
 538 534 l 1
 527 570 546 617 510 628 c 0
 468.488636507 639.860389569 402.664140046 646.076658986 339.417525988 646.076658986 c 3
 306.677490841 646.076658986 274.628246937 644.410894684 247 641 c 0
 229 639 216 625 215 607 c 0x9ae0
 211 525.313559322 206 444.635593221 205 369 c 1
 269 371 429 371 443 372 c 0
 480 377 485 403 501 447 c 1
 535 440 l 1
 526.800908316 409.132831309 523.486685813 378.498275435 523.486685813 347.871954284 c 3
 523.486685813 314.997648821 527.305294619 282.132831309 533 249 c 1
 497 240 l 1
 477 311 484 324 443 328 c 0
 399 333 298 332 205 333 c 1
 204 235.613545816 208 147.262948207 220 81 c 0
 224 64 233 50 250 49 c 0
 295.831179232 44.5647245905 336.319436302 40.3723092792 374.696225476 40.3723092792 c 3
 414.193090286 40.3723092792 451.453436792 44.8130178498 490 58 c 0
 550.414440108 78.6680979317 560.916666667 101 601 177 c 1
 629 170 l 1
 601.909278218 96.0751847998 563.005363884 18.4683882549 538.489257812 -19.9775390625 c 0
 508.313510966 -67.2988618945 467.640625 -148.391015834 467.640625 -206.689453125 c 0
 467.640625 -242.779181534 495.826784961 -274.168945312 526.834960938 -274.168945312 c 0
 547.809960937 -274.168945312 572.993960937 -265.436945313 598.834960938 -246.168945312 c 1
 598.834960938 -246.168945312 609.943822568 -256.497164572 612.633789062 -264.569335938 c 1
 585.578932221 -312.305955472 533.145209671 -347.888671875 491.565429688 -347.888671875 c 0
 442.385016588 -347.888671875 395.765625 -303.499671875 395.765625 -247.513671875 c 0
 395.765625 -172.157942368 443.587456716 -80.3722695124 506.53125 0.1865234375 c 1
 426.116814261 0.92057786207 344.873636713 3.07020290016 269.953021447 3.07020290016 c 3xb9e0
 188.876938008 3.07020290016 115.205017511 0.552841530585 58 -9 c 1
 48 26 l 1
 101 36 124 49 124 77 c 1
 125.797958971 111.804426856 126.787753827 207.154066657 126.787753827 309.259280672 c 3xd1e0
 126.787753827 434.312117879 125.303061543 569.498316407 122 616 c 0
 121 643 116 643 43 657 c 1
 48 688 l 1xd6e0
EndSplineSet
Position2: "cpsp-1" dx=0 dy=0 dh=50 dv=100
Substitution2: "c2pc-1" eogonek.pcap
Substitution2: "c2sc-1" eogonek.smcp
EndChar

StartChar: Iogonek
Encoding: 302 302 259
GlifName: I_ogonek
Width: 341
VWidth: 0
UnlinkRmOvrlpSave: 1
Flags: HW
HStem: -346.889 73.7197<164.804 231.852> -10 40<16.125 119.789> 652 43<21.3488 120.801>
VStem: 73.7656 71.875<-253.641 -109.865> 131 90<41.0295 293.416> 137.915 75.6029<80.3904 534.592>
LayerCount: 2
Fore
SplineSet
207.177734375 3.734375 m 1xf0
 167.264648438 -46.17578125 145.640625 -131.358398438 145.640625 -195.689453125 c 3
 145.640625 -237.126953125 173.827148438 -273.168945312 204.834960938 -273.168945312 c 3
 225.810546875 -273.168945312 250.994140625 -264.435546875 276.834960938 -245.168945312 c 9
 276.834960938 -245.168945312 287.944335938 -255.497070312 290.633789062 -263.569335938 c 1
 263.579101562 -311.305664062 211.14453125 -346.888671875 169.564453125 -346.888671875 c 3
 120.384765625 -346.888671875 73.765625 -298.078125 73.765625 -236.513671875 c 3
 73.765625 -152.803710938 98.1953125 -47.5556640625 200.478515625 36.453125 c 1
 207.177734375 3.734375 l 1xf0
EndSplineSet
Refer: 34 73 N 1 0 0 1 0 0 3
Position2: "cpsp-1" dx=0 dy=0 dh=50 dv=100
Substitution2: "c2pc-1" iogonek.pcap
Substitution2: "c2sc-1" iogonek.smcp
EndChar

StartChar: iogonek
Encoding: 303 303 260
GlifName: iogonek
Width: 263
VWidth: 0
UnlinkRmOvrlpSave: 1
Flags: HW
HStem: -326 60.1279<121.017 198.674> -7 33<33 87 184 254> 572 102<98.589 183.411>
VStem: 36.5625 69.209<-252.6 -120.517> 89 104<581.438 664.599> 97 71<57 330>
LayerCount: 2
Fore
SplineSet
168 12.9248046875 m 5xe4
 113.924804688 -74.3896484375 105.771484375 -115.919921875 105.771484375 -196 c 7
 105.771484375 -239.865234375 131.106445312 -265.872070312 163.166015625 -265.872070312 c 7
 182.918945312 -265.872070312 206.635742188 -255.18359375 230.97265625 -231.599609375 c 5
 230.97265625 -231.599609375 242.081054688 -241.926757812 244.771484375 -250 c 5
 217.768554688 -302.788085938 172.271484375 -326 130.771484375 -326 c 7
 80.798828125 -326 36.5625 -288.154296875 36.5625 -224.834960938 c 7xf0
 36.5625 -167.208984375 66.80859375 -55.732421875 153.30078125 34.1435546875 c 5
 168 12.9248046875 l 5xe4
EndSplineSet
Refer: 8 105 N 1 0 0 1 0 0 3
Substitution2: "smcp-1" iogonek.smcp
Substitution2: "case-1" Iogonek
Substitution2: "pcap-1" iogonek.pcap
EndChar

StartChar: uogonek
Encoding: 371 371 262
GlifName: uogonek
Width: 506
VWidth: 0
UnlinkRmOvrlpSave: 1
Flags: HW
HStem: -324.658 60.1279<313.017 390.674> -18.7812 20G<319.052 378.615> -11 55<171 272> 338 31<291 350>
VStem: 69 76<71 327> 228.562 69.21<-251.259 -142.76> 358 65<36 52 75 331>
LayerCount: 2
Fore
SplineSet
379 -20 m 1xde
 308.413085938 -92.994140625 297.771484375 -127.711914062 297.771484375 -194.658203125 c 3
 297.771484375 -238.5234375 323.107421875 -264.530273438 355.166015625 -264.530273438 c 3
 374.918945312 -264.530273438 398.635742188 -253.841796875 422.97265625 -230.2578125 c 1
 422.97265625 -230.2578125 434.081054688 -240.584960938 436.771484375 -248.658203125 c 1
 409.767578125 -301.446289062 364.271484375 -324.658203125 322.771484375 -324.658203125 c 3
 272.798828125 -324.658203125 228.561523438 -286.8125 228.561523438 -223.493164062 c 3
 228.561523438 -173.491210938 265.803710938 -76.765625 372.30078125 1.21875 c 1
 379 -20 l 1xde
EndSplineSet
Refer: 20 117 N 1 0 0 1 0 0 3
Substitution2: "smcp-1" uogonek.smcp
Substitution2: "case-1" Uogonek
Substitution2: "pcap-1" uogonek.pcap
EndChar

StartChar: uni0327
Encoding: 807 807 268
GlifName: uni0327
Width: 0
VWidth: 1159
UnlinkRmOvrlpSave: 1
Flags: HW
AnchorPoint: "Bottom" -193 -15 mark 0
LayerCount: 2
Fore
SplineSet
-289.175 -200.003 m 1
 -284.618902125 -177.550875617 l 1
 -233.668366842 -191.997047941 -185.082 -160.508819438 -185.082 -121.607 c 1
 -185.082 -105.194718267 -198.288534245 -79.6567960503 -235.069932711 -94.8679016313 c 1
 -241.123 -72.4629 l 1
 -238.075 -70.4492 -234.793382234 -68.7688348139 -231.521 -67.0766 c 0
 -200.55109454 -47.1057002022 -206.635987338 -44.1451002374 -186.885006117 5.43261926594 c 1
 -153.712006117 13.4326044859 l 1
 -153.712006117 13.4326044859 -171.39820808 -42.9636646423 -177.682069328 -53.2337028547 c 1
 -153.705479041 -57.2816706177 -132.572 -76.6603705727 -132.572 -111.429 c 1
 -132.572 -180.25 -220.06 -229.425 -289.175 -200.003 c 1
EndSplineSet
EndChar

StartChar: cedillafloating
Encoding: 58084 58084 269
GlifName: cedillafloating
Width: 0
VWidth: 1159
Flags: W
VStem: -195 63.126<-165.104 -94.3473>
AnchorPoint: "Bottom" -193 -15 mark 0
LayerCount: 2
Fore
SplineSet
-289.175 -200.003 m 1
 -285.141 -177.812 l 1
 -239 -188 -195 -161.724 -195 -125 c 3
 -195 -109.445 -206 -85 -236.636 -95.1289 c 1
 -241.123 -72.4629 l 1
 -199.113 -38.5203 -131.874 -44.0724 -131.874 -109.349 c 3
 -131.874 -179.786 -219.751 -230.116 -289.175 -200.003 c 1
EndSplineSet
Validated: 33
EndChar

StartChar: Uni0327
Encoding: 58030 58030 281
GlifName: U_ni0327
Width: 0
VWidth: 1159
Flags: HW
AnchorPoint: "Bottom" -191 -15 mark 0
LayerCount: 2
Fore
SplineSet
-302.112 -226.844 m 5
 -297.392889891 -201.402963297 l 5
 -237.820512 -218.594939 -182.679792 -181.379054607 -182.679792 -135.674249 c 5
 -182.679792 -109.694469545 -205.825197 -86.99431 -240.667 -104.142 c 5
 -245.892 -77.6221 l 5
 -240.885959643 -73.5834892297 -235.514258932 -70.3334938049 -230.059014273 -67.5293730844 c 4
 -200.017207637 -48.9631962459 -205.332258567 -43.7738462644 -185.744075445 2.35535983687 c 5
 -145.442075445 9.83338939688 l 5
 -145.442075445 9.83338939688 -155.914996487 -33.9623125507 -175.739902125 -61.1452935609 c 5
 -146.939635974 -68.234309748 -124.031 -91.4186561774 -124.031 -124.709 c 5
 -124.031 -204.066 -223.518 -260.771 -302.112 -226.844 c 5
EndSplineSet
EndChar

StartChar: Cedillafloating
Encoding: 58085 58085 282
GlifName: C_edillafloating
Width: 0
VWidth: 1159
Flags: W
VStem: -194.928 70.8965<-182.621 -103.74>
AnchorPoint: "Bottom" -193 -15 mark 0
LayerCount: 2
Fore
SplineSet
-302.112 -226.844 m 1
 -297.393 -200.881 l 1
 -243.408 -212.801 -194.928 -182.057 -194.928 -139.091 c 3
 -194.928 -120.892 -206.798 -92.29 -240.642 -104.142 c 1
 -245.892 -77.6221 l 1
 -199.032 -34.292 -124.031 -58.5156 -124.031 -124.709 c 3
 -124.031 -204.066 -223.518 -260.771 -302.112 -226.844 c 1
EndSplineSet
Validated: 33
EndChar

StartChar: Uni030F
Encoding: 58034 58034 295
GlifName: U_ni030F_
Width: 300
VWidth: 1159
Flags: HW
AnchorPoint: "Top" 87 699 mark 0
LayerCount: 2
Fore
SplineSet
152.3255 753.4387 m 5
 127.283 735.082949024 l 5
 84.8029411765 815.746057659 69.3556470588 839.94499025 28.8065 884.3097 c 5
 46.4875234826 895.623694545 74.563 909.651 74.563 909.651 c 5
 109.008134228 859.132120482 128.1935 812.1367 152.3255 753.4387 c 5
51.7743981 754.163792 m 5
 33.0995728 729.236273 l 5
 -31.1762997749 794.258010026 -53.0888277765 812.927819705 -105.152382 843.372441 c 5
 -91.4738350821 859.178867555 -68.6174343 880.573745 -68.6174343 880.573745 c 5
 -21.4670005779 843.027106766 8.3013203 807.103031 51.7743981 754.163792 c 5
EndSplineSet
EndChar

StartChar: uni01EA
Encoding: 490 490 308
GlifName: uni01E_A_
Width: 845
VWidth: 0
UnlinkRmOvrlpSave: 1
Flags: HW
HStem: -346.889 73.7197<406.804 473.852> -7 50<342.523 545.448> 657 49<304.396 495.712>
VStem: 43 93<267.4 455.825> 315.766 71.875<-253.641 -127.154> 701 101<222.803 442.21>
AnchorPoint: "Middle" 417.697 364.853 basechar 0
AnchorPoint: "Top" 420 699 basechar 0
LayerCount: 2
Fore
SplineSet
499.177734375 3.734375 m 1
 426.834960938 -46.17578125 387.640625 -131.358398438 387.640625 -195.689453125 c 3
 387.640625 -237.126953125 415.827148438 -273.168945312 446.834960938 -273.168945312 c 3
 467.810546875 -273.168945312 492.994140625 -264.435546875 518.834960938 -245.168945312 c 9
 518.834960938 -245.168945312 529.944335938 -255.497070312 532.633789062 -263.569335938 c 1
 505.579101562 -311.305664062 453.14453125 -346.888671875 411.564453125 -346.888671875 c 3
 362.384765625 -346.888671875 315.765625 -298.078125 315.765625 -236.513671875 c 3
 315.765625 -152.803710938 349.834960938 -47.5556640625 492.478515625 36.453125 c 1
 499.177734375 3.734375 l 1
EndSplineSet
Refer: 40 79 N 1 0 0 1 0 0 3
Position2: "cpsp-1" dx=0 dy=0 dh=50 dv=100
EndChar

StartChar: uni01EB
Encoding: 491 491 309
GlifName: uni01E_B_
Width: 505
VWidth: 0
UnlinkRmOvrlpSave: 1
Flags: HW
HStem: -326 60.1279<272.366 350.024> -11 39<199.926 327.747> 374 45<168.903 305.133>
VStem: 32 76<130.211 291.037> 187.912 69.209<-252.6 -139.048> 395 78<107.641 276.826>
AnchorPoint: "Top" 251 465 basechar 0
AnchorPoint: "Middle" 255 206 basechar 0
LayerCount: 2
Fore
SplineSet
360.98046875 13.54296875 m 1
 270.727539062 -74.0302734375 257.12109375 -115.682617188 257.12109375 -196 c 3
 257.12109375 -239.865234375 282.45703125 -265.872070312 314.515625 -265.872070312 c 3
 334.268554688 -265.872070312 357.986328125 -255.18359375 382.322265625 -231.599609375 c 9
 382.322265625 -231.599609375 393.431640625 -241.926757812 396.12109375 -250 c 1
 369.1171875 -302.788085938 323.62109375 -326 282.12109375 -326 c 3
 232.149414062 -326 187.912109375 -288.154296875 187.912109375 -224.834960938 c 3
 187.912109375 -172.674804688 223.05859375 -76.5009765625 320.63671875 8 c 9
 360.98046875 13.54296875 l 1
EndSplineSet
Refer: 14 111 N 1 0 0 1 0 0 3
Substitution2: "case-1" uni01EA
EndChar

StartChar: thorn
Encoding: 254 254 317
GlifName: thorn
Width: 515
VWidth: 1159
Flags: W
HStem: -348 32<8.34375 55.6963> -342 34<151.753 229> -10 46<184.803 329.513> 369 43<198.188 323.819> 654 29<16 45.5305>
VStem: 67 82<-302.037 -18.4171> 80 65<-197.411 7 69.4004 345.78 368 599.495> 406 69<130.435 275.055>
LayerCount: 2
Fore
SplineSet
145 332 m 9x3b
 144 241 143 189 143 98 c 3
 143 92 147 85 154 79 c 0
 185 52 227 36 268 36 c 3
 345 36 406 96 406 180 c 3
 406 270 352 369 251 369 c 3
 207 369 155 342 145 332 c 9x3b
76 31 m 24
 79.1289 217.79 80 367 80 510 c 3
 80 570 80 607 76 627 c 0
 71 654 64 656 46 656 c 3
 36 656 25 654 16 654 c 1
 11 683 l 1
 48 690 104 718 154 759 c 1
 175 743 l 1
 165 717 157 687 156 667 c 0
 151 599 145 484 145 368 c 1xbb
 178 382 234 412 294 412 c 3
 399 412 475 315 475 223 c 3
 475 94 363.004 -10 225 -10 c 3
 198 -10 170 -2 144 7 c 1
 144 -75 144 -247 149 -284 c 0
 151 -299 170 -303 181 -304 c 0
 197 -305 216 -307 230 -308 c 1
 229 -342 l 1x7d
 190 -341 159 -339 117 -339 c 3
 87 -339 39 -344 9 -348 c 1
 6 -316 l 1
 17 -315 25 -313 36 -311 c 0
 59 -305 65 -294 67 -266 c 0xbd
 72 -214 74.0589 -84.8672 76 31 c 24
EndSplineSet
Validated: 1
Substitution2: "pcap-1" thorn.pcap
Substitution2: "case-1" Thorn
Substitution2: "smcp-1" thorn.smcp
EndChar

StartChar: Thorn
Encoding: 222 222 318
GlifName: T_horn
Width: 594
VWidth: 1159
Flags: W
HStem: -9 35<33 79.7574> 178 45<189.142 391.092> 519 42<188.8 373.894> 661 31<15.871 81.5947>
VStem: 103 86.1416<54.7783 182.945 226.958 514.181 554.895 640.551> 465 87<299.251 431.707>
LayerCount: 2
Fore
SplineSet
300 652.244140625 m 1
 269.541015625 652.76953125 239.069335938 648.46484375 211 641 c 0
 193.498046875 636.344726562 190 622 189 604 c 0
 188.240234375 587.23828125 187.66015625 570.91015625 187.219726562 554.89453125 c 1
 223.961914062 557.525390625 259.918945312 561 309 561 c 3
 442 561 552 478 552 375 c 3
 552 258.262695312 417.193359375 178 292 178 c 3
 251.719726562 178 228.8125 181.861328125 189.141601562 182.9453125 c 1
 190.319335938 145.3203125 192.446289062 106.4140625 198 75 c 0
 201.80078125 58.8486328125 209.211914062 38.1826171875 306 36.1611328125 c 1
 302 -10.6103515625 l 1
 253.839897611 0.765337346976 217.431629665 6.17477902914 177.51514646 6.17477902914 c 3
 138.247715333 6.17477902914 95.5852303172 0.939824883774 35 -9 c 1
 25 26 l 1
 78 36 103 49 103 77 c 1
 104.6 108.20234375 105.4 187.70734375 105.4 277.3266875 c 3
 105.4 411.755703125 103.6 568.941992187 100 620 c 0
 99 647 85 647 12 661 c 1
 17 692 l 1
 64.3137479468 686.877828443 116.634803726 684.064503692 169.426581172 684.064503692 c 3
 212.805530712 684.064503692 256.502306442 685.964030206 298 690.04296875 c 1
 300 652.244140625 l 1
189.073242188 226.958007812 m 1
 228.5625 225.396484375 249.3671875 223 290 223 c 3
 436 223 465 311 465 364 c 3
 465 424 404 519 288 519 c 3
 266.518554688 519 216.749023438 516.599609375 187.26171875 510.466796875 c 1
 185.9765625 417.948242188 187.340820312 313.534179688 189.073242188 226.958007812 c 1
EndSplineSet
Validated: 33
Position2: "cpsp-1" dx=0 dy=0 dh=50 dv=100
Substitution2: "c2pc-1" thorn.pcap
Substitution2: "c2sc-1" thorn.smcp
EndChar

StartChar: AE
Encoding: 198 198 319
GlifName: A_E_
Width: 1067
VWidth: 1159
Flags: HW
AnchorPoint: "Top" 580.585 699 basechar 0
AnchorPoint: "Bottom" 569.957 -15 basechar 0
LayerCount: 2
Fore
SplineSet
396 692 m 1
 442.758017159 687.959183703 557.137296907 686.250146644 655.491495054 686.250146644 c 1
 798.23899434 686.250146644 957.290373124 689.775778413 969 692.478 c 1
 979.621749934 683.15271593 983.438701684 677.508812042 983.438701684 668.718448512 c 1
 983.438701684 652.333290475 970.159561141 625.011793776 963 542.393 c 1
 934.566 540.176 l 1
 926.8285 591.914249024 953.397496504 632.050145951 905 639.657 c 0
 860.823807005 648.098401018 794.62911018 652.930265248 730.013321802 652.930265248 c 3
 699.091523571 652.930265248 668.556769369 651.784651171 641.387 649.264 c 0
 611.985072266 647.786 605.428 638.831405274 604.689 618.396 c 0
 601.733 530.868356876 598.038 448.154233796 597.299 367.39 c 1
 666.57501596 368.868 828.065613392 368.886445802 843.22 369.607 c 0
 879.599105469 373.267335937 881.1745 389.201249024 898.61 440.953 c 1
 930 435.78 l 1
 921.800841833 406.431375791 918.486592456 377.303803103 918.486592456 348.184055857 c 1
 918.486592456 316.926923943 922.305238736 285.678808407 928 254.176 c 1
 895.132 247.525 l 1
 875.5235 320.691249024 882.686371758 327.871 843.22 330.827 c 0
 795.592915625 334.522 697.965166183 333.783 597.299 334.522 c 1
 596.56 230.898628334 599.516 140.022524169 608.384 69.516 c 0
 611.34 51.0009765625 614.916777527 41.5039472234 644.387 40.648 c 0
 693.232446954 37.2667410895 734.549666679 34.1898094089 773.578281525 34.1898094089 c 1
 816.143554259 34.1898094089 856.113343771 37.553820191 899.616 47.299 c 0
 949.258742188 62.079 958.262915039 87.9805859375 994.044 171.258 c 1
 1020.739 164.519 l 1
 1006.88740723 104.865836914 994.020135742 58.1494853516 982.261 -1.566 c 1
 904.727396908 -0.491820849435 771.752237606 0.702638721292 665.354074137 0.702638721292 c 1
 582.913579768 0.702638721292 494.028471947 -1.15764132115 451 -8.217 c 1
 443.61 23.912 l 1
 506.971093023 31.3327058823 531.176 41.0318235294 531.176 67.082 c 1
 532.145933028 96.2649425882 532.780849362 164.441899035 533.023859375 245.002890625 c 1
 469.466518826 251.304455165 355.200428422 254.122957084 271.350992188 249.349 c 1
 231.29058209 181.75771 203.319748719 140.331639954 168.632481 76.038 c 0
 149.445226759 40.9152487566 164.378132 30.305 244.431443 28.258 c 1
 239.598904164 -10.522 l 1
 207.951122305 -3.77642847815 156.803243069 0.0350587824529 108.669971358 0.0350587824529 c 1
 76.323063593 0.0350587824529 45.3376172808 -2.16572458162 22.546893475 -5.261 c 1
 22.546893475 -5.261 18.2832141241 17.564 19.9365061172 30.346 c 1
 77.1029854231 42.5473695652 103.235151258 49.4134422631 117.220828 70.865 c 0
 246.68785203 281.336717611 365.316321061 481.015278788 464.905640625 653.641708984 c 1
 443.663671508 656.314710028 418.573467373 658.876859494 391.783 662.566 c 1
 396 692 l 1
499.983401367 647.243296875 m 1
 472.512490109 599.003024449 342.5291277 370.907496759 292.96 286.912 c 1
 344.702543149 283.362129042 477.662016677 284.581911749 533.16253125 284.686210938 c 1
 533.309973565 419.04031971 532.234203205 572.427291864 529.698 623.22 c 0
 529.442909392 637.894814905 522.329167067 642.947287437 499.983401367 647.243296875 c 1
EndSplineSet
Position2: "cpsp-1" dx=0 dy=0 dh=50 dv=100
Substitution2: "c2pc-1" ae.pcap
Substitution2: "c2sc-1" ae.smcp
EndChar

StartChar: ae
Encoding: 230 230 322
GlifName: ae
Width: 578
VWidth: 1159
Flags: HW
AnchorPoint: "Top" 283.52 465 basechar 0
AnchorPoint: "Bottom" 280.52 -15 basechar 0
LayerCount: 2
Fore
SplineSet
379.638867188 376.264 m 3
 333.403816178 376.264 298.423004048 310.800957 292.77753125 233.434 c 1
 356.137787514 252.612502441 405.324613303 267.236980702 464.874 284.152651053 c 0
 467.486202751 284.894368706 470.12028585 285.640881009 472.779166992 286.393 c 1
 462.401906705 331.845 422.185101618 376.264 379.638867188 376.264 c 3
292.171289062 206.434 m 1
 285.942908019 109.231581747 334.253309012 34.431 408.641956054 34.431 c 3
 454.43992016 34.431 494.52404336 58.345 523.523234375 83.346 c 1
 542.21946875 58.434 l 1
 503.31636072 25.8139852941 447.740492106 -8.783 383.827257812 -8.783 c 3
 327.460283784 -8.783 286.509561446 20.5894604192 264.170159179 60.8360654297 c 1
 204.812146344 26.9405187962 142.184942483 -10.566 85.43453125 -10.566 c 3
 35.00053125 -10.566 24.43453125 25.434 24.43453125 69.434 c 3
 24.43453125 90.7795254237 26.9808825219 113.702127223 34.4309335937 126.868 c 0
 41.4291441201 140.868 49.5580322608 146.02992279 63.8269335937 153.349 c 0
 117.919062915 180.619628442 170.093596129 195.271030405 238.064414062 216.670695312 c 1
 240.961299612 242.841609263 246.491462536 266.623227979 253.984665039 288.171918946 c 1
 254.965092284 310.40025396 243.250779775 326.879342932 229.303266601 341.343020508 c 0
 219.748849093 354.232306357 183.061241495 380.44 159.694933594 380.44 c 3
 134.954381707 380.44 101.770933594 364.474285714 101.770933594 339.39 c 3
 101.770933594 330.999 107.547219308 318.878666667 108.509933594 314.217 c 1
 46.8209335937 290.22 l 1
 43.1689335937 299.50225 38.6039335937 318.06675 38.6039335937 327.349 c 3
 38.6039335937 342.240219512 46.6576002604 358.195097561 66.6479335937 370.959 c 1
 117.378741768 405.707875 184.185713874 425.132 198.51953125 425.132 c 3
 217.943865333 425.132 278.324546205 381.10429 295.441664062 361.01634375 c 1
 329.338010327 401.070839989 372.029677951 417.261 389.41621875 417.261 c 3
 444.264009366 417.261 500.568831517 371.086044249 520.859375 323 c 0
 525.897188595 311.230865778 536.359742785 303.2784 549.739 303.827 c 1
 550.261 279.827 l 1
 468.203540095 257.8091 376.38545317 231.597314286 292.171289062 206.434 c 1
236.478476562 188.994453125 m 1
 198.15966792 176.737167385 156.904991729 163.602807959 138.51953125 154.651 c 0
 102.961166952 137.791640724 76.6419335937 120.325893261 76.6419335937 83.909 c 3
 76.6419335937 50.6741604 93.7026368869 27.475 124.031933594 27.475 c 3
 151.153381216 27.475 207.337262773 54.0491702812 253.949122071 80.7150488281 c 1
 241.473900683 112.120968904 235.823758092 148.627282999 236.478476562 188.994453125 c 1
EndSplineSet
Substitution2: "pcap-1" ae.pcap
Substitution2: "case-1" AE
Substitution2: "smcp-1" ae.smcp
EndChar

StartChar: germandbls
Encoding: 223 223 327
GlifName: germandbls
Width: 579
VWidth: 1159
Flags: HW
LayerCount: 2
Fore
SplineSet
312 756 m 1
 411.877 756 454.845 679.623 454.845 588.779 c 1
 454.845 444.181823488 340.651 382.486231402 340.651 341.868 c 1
 340.651 317.721869565 358.925010968 295.277831908 414.651 272.607 c 1
 493.9128773 243.459910152 539 186.41572902 539 128 c 1
 539 33.1543 458.812 -9 408 -9 c 1
 365.699560976 -9 332.401317073 2 300 16 c 1
 304 30 306 44 306 59 c 0
 306 68.3555 304.571 95.6445 301 105 c 1
 323 112 l 1
 342.016106026 55.0513420444 361.877567657 26.824 421.302 26.824 c 1
 452.544 26.824 486.918 56.159432608 486.918 111.742 c 1
 486.918 169.380498632 435.031062948 201.910435137 397.827 219.047 c 0
 350.972945963 241.388914715 284.874 260.297965248 284.874 326.349 c 1
 284.874 358.198332648 405.548101 434.998409774 405.548101 576.217517 c 1
 405.548101 658.36207385 356.444602341 712.047 287.135 712.047 c 1
 209.372313658 712.047 165.433513 606.584908572 158.733 450.346 c 1
 156.02826 414.392479629 154.299 294.499285122 154.299 249 c 0
 154.299 181.290064123 155.161413 117.758623601 159.472 51.651 c 0
 160.018121 36.6462516269 164.635658232 31.4545951789 176.472 30.651 c 0
 188.296270545 29.7815 199.175729455 29.2595 211 27.346 c 1
 208 -6 l 1
 182.625 -1 146.375 1 121 1 c 0
 97.2266 1 60.7734 -2 37 -6 c 1
 36 26.868 l 1
 48.276 28.129 64.098380165 29.0829422493 76.176 30.651 c 1
 92.1614332597 35.8920333319 94.2493828 47.7647707279 95.088 70.038 c 1
 98.321125 117.957744447 100.232437688 168.605038232 100 222 c 0
 99.405451163 260.642482418 99.1644313653 311.518697619 99.0666233312 361.481 c 1
 40 357.044 l 1
 40 386 l 1
 59.9402 389.935 79.0951 397.74 99.0097 401.801 c 1
 99 418.369 99 431.948961258 99 446.651 c 0
 99 577.184053016 142.672 649.809 205 704 c 0
 235.99760061 730.899607917 267.064 756 312 756 c 1
EndSplineSet
MultipleSubs2: "case-2" S S
Substitution2: "pcap-1" uni1E9E.pcap
Substitution2: "case-1" uni1E9E
Substitution2: "smcp-1" uni1E9E.smcp
EndChar

StartChar: greater
Encoding: 62 62 333
GlifName: greater
Width: 463
VWidth: 0
Flags: HW
LayerCount: 2
Fore
SplineSet
75.2405 372.4904 m 1
 103.39 412 l 1
 412 203.522 l 1
 85.132 -7 l 1
 70.915 17.695 l 1
 341.7655 192.1414 l 1
 75.2405 372.4904 l 1
EndSplineSet
Position2: "'case' vertical ajustments for all-caps-1" dx=0 dy=90 dh=0 dv=0
EndChar

StartChar: braceleft
Encoding: 123 123 336
GlifName: braceleft
Width: 266
VWidth: 1515
Flags: HW
LayerCount: 2
Fore
SplineSet
239.5 718.387949024 m 1
 239.5 718.387949024 239.5 698.149459024 239.5 689.214949024 c 1
 180.187480203 688.195543707 144.3445 658.8371271 144.3445 554.993249024 c 3
 144.3445 484.325324352 174.78 466.313989286 174.78 390 c 3
 174.78 334.826980828 122.06063367 268.609957002 71.409 243.299949024 c 1
 122.06063367 217.989957385 174.78 151.250982355 174.78 96.5996024469 c 3
 174.78 19.2407933188 144.3445 3.57915511894 144.3445 -68.3936465766 c 3
 144.3445 -172.760204288 181.500156674 -201.595644869 239.5 -202.615050976 c 1
 239.5 -231.788050976 l 1
 164.150686797 -234.041083995 94.11 -193.998564323 94.11 -50.1401987766 c 3
 94.11 13.9416865502 119.742 44.0039513763 119.742 98.8166024469 c 3
 119.742 145.772163872 85.4654018673 208.482029411 11.5 230.299949024 c 1
 11.5 256.038949024 l 1
 84.9434018673 277.899187995 119.742 340.473076262 119.742 387.783 c 3
 119.742 443.639094115 94.11 471.352450523 94.11 536.739949024 c 3
 94.11 680.598471213 162.561657385 720.640981266 239.5 718.387949024 c 1
EndSplineSet
Position2: "cpsp-1" dx=0 dy=0 dh=50 dv=100
Position2: "'case' vertical ajustments for all-caps-1" dx=0 dy=90 dh=0 dv=0
EndChar

StartChar: asciitilde
Encoding: 126 126 339
GlifName: asciitilde
Width: 394
VWidth: 0
Flags: HW
LayerCount: 2
Fore
SplineSet
18.522 200.569 m 1
 48.3536129032 240.4326 99.9129032258 278.563 111 278.563 c 3
 153.744931818 278.563 244.205136364 247.997 285.956 247.997 c 3
 296.620363636 247.997 328.613454546 269.372869565 344.61 292.692 c 1
 375.478 279.431 l 1
 350.170941177 240.355020618 304.681670588 194.437 289.434 194.437 c 3
 249.185962162 194.437 144.545718919 225.003 107.827 225.003 c 3
 93.97875 225.003 63.0865 201.966692308 48.173 187.569 c 1
 18.522 200.569 l 1
EndSplineSet
Position2: "cpsp-1" dx=0 dy=0 dh=50 dv=100
Position2: "'case' vertical ajustments for all-caps-1" dx=0 dy=90 dh=0 dv=0
EndChar

StartChar: kgreenlandic
Encoding: 312 312 345
GlifName: kgreenlandic
Width: 520
VWidth: 1159
Flags: W
HStem: -5 33<33.6364 85.0934 314.455 358.094 457 501.545> 344 29<39.7931 76.7086> 374 27<269 299.949 413.248 459.333> 395 20G<145.5 187>
VStem: 105 64<42.314 204 227 346.994>
LayerCount: 2
Fore
SplineSet
179 211 m 1xe8
 169 204 l 1
 169 140.25 171.723635175 78.5727361869 175 54 c 0
 177 39 185.619315018 37.1522739927 196 33 c 0
 206 29 216 28 230 27 c 1
 225 -7 l 1
 191 -1 172 4 130 4 c 3
 100 4 64 -3 34 -5 c 1
 32 28 l 1
 43 29 54.2438024311 30.030722479 64 33 c 0
 87 40 93.3132247115 48.0575369992 96 76 c 0
 101 128 105 170 105 235 c 3
 105 253.368013699 103.27297056 281.632471039 101 318 c 0
 100 334 94 348 77 348 c 3
 71 348 51 345 41 344 c 1
 36 373 l 1
 88 381.884615385 124 387.538461538 167 415 c 1xd8
 187 399 l 1
 181 385 174.184346429 357.982026431 173 347 c 0
 171 328.454705882 168 273.908529412 167 227 c 1
 201.5858 255.29682906 250.733796152 297.620653704 285 330 c 0
 291.596571429 336.233333333 301 348.518518519 301 355 c 3
 301 373 277 372 267 374 c 1
 269 401 l 1
 295 399 330 399 357 399 c 3
 388.166666667 399 428.777777778 399 459 403 c 1
 461 371 l 1
 400.820895522 364.000222222 364.689666047 341.369176033 333 319 c 2
 231 247 l 1
 297.824402928 186.179636497 367.532605558 122.858938129 446 52 c 1
 462 37 490 29 504 28 c 1
 501 -6 l 1
 467 0 449 4 407 4 c 3
 377 4 345 -3 315 -5 c 1
 312 28 l 1
 348 33 348 37 359 38 c 1
 296.777686305 99.8038948798 205.773756239 186.901875399 179 211 c 1xe8
EndSplineSet
Validated: 1
MultipleSubs2: "case-2" K quoteleft
EndChar

StartChar: OE
Encoding: 338 338 346
GlifName: O_E_
Width: 1081
VWidth: 1159
Flags: HW
LayerCount: 2
Fore
SplineSet
394.918 655.22 m 3
 240.085 655.22 111.991 530.947142778 111.991 366.299 c 3
 111.991 194.19402316 256.777140575 35.475 438.041 35.475 c 3
 489.64248 35.475 542.657 53.28949158 542.657 77.384 c 1
 543.707939725 104.545871899 543.870073986 169.057236072 543.870073986 244.683938689 c 1
 543.870073986 376.532401964 542.604043187 543.732531332 540.657 595.27 c 0
 538.463887363 646.788769969 458.446229027 655.22 394.918 655.22 c 3
424 -7 m 3
 210 -7 37 145.659140762 37 336 c 3
 37 527.127628169 212 694 422 694 c 3
 507.490017004 694 461.789007914 684.96875 696.956054688 684.96875 c 3
 838.863027557 684.96875 966.475003159 689.186881304 983 693 c 1
 994.145145837 683.247997393 998.133414459 677.741599913 998.133414459 669.087387512 c 0
 998.133414459 652.893580795 984.168856119 625.677987617 977 539 c 1
 949.088 536.522 l 1
 940.036069336 574.821042969 960.742 628.657 931.267 638.613 c 0
 882.049365858 653.608130817 773.691116918 654.789422112 642.689 647.698 c 0
 627.466706061 646.22805921 616.387 635.124688877 615.648 618.918 c 0
 612.692 532.94679661 608.997 448.036966102 608.519 368.434 c 1
 676.659907563 369.651 847.802927317 369.564122219 861.918 370.39 c 0
 895.3 374.2242 897.06 396.77204 912.61 447.478 c 1
 944 441 l 1
 935.800908316 410.132831309 932.486685813 379.498275435 932.486685813 348.871954284 c 0
 932.486685813 315.997648821 936.305294619 283.132831309 942 250 c 1
 909.393 241.783 l 1
 891.22 314.257056818 898.182105582 328.555530927 862.44 331.61 c 0
 815.496621849 335.566 707.740231092 334.7748 608.519 335.566 c 1
 607.6756 237.187904382 610.680080669 137.494138636 619.865 69.777 c 0
 622.867643555 54.4831855469 631.049305727 43.736 646.211 42.997 c 0
 693.391241452 39.7193314724 745.319410107 36.7182469089 783.696242072 36.7182469089 c 0
 829.809135059 36.7182469089 887.268985522 38.4411295003 918.314 50.431 c 0
 964.609441176 67.5744 972.93725 95.977394958 1008.305 176.478 c 1
 1035 170 l 1
 1019 104 1008 62 996 0 c 1
 886.301 -0.545565 771.508 3.06988 667.928 3.06988 c 3
 487.932 3.06988 491.022 -7.00000739 424 -7 c 3
EndSplineSet
Position2: "cpsp-1" dx=0 dy=0 dh=50 dv=100
Substitution2: "c2pc-1" oe.pcap
Substitution2: "c2sc-1" oe.smcp
EndChar

StartChar: uni2605
Encoding: 9733 9733 347
GlifName: uni2605
Width: 821
VWidth: 0
Flags: W
LayerCount: 2
Fore
SplineSet
796.5 438.6 m 1
 558 264.9 l 1
 648.9 -15 l 1
 410.4 158.7 l 1
 171.9 -15 l 1
 262.8 265.8 l 1
 24.2998 438.6 l 1
 318.6 437.7 l 1
 410.4 718.5 l 1
 501.3 438.6 l 1
 796.5 438.6 l 1
EndSplineSet
Validated: 1
EndChar

StartChar: uni2606
Encoding: 9734 9734 348
GlifName: uni2606
Width: 821
VWidth: 30
Flags: HW
LayerCount: 2
Fore
SplineSet
696.635303 407.2012 m 1
 470.861319 396.942402 l 1
 410.30299 614.910211 l 1
 349.729881 396.107199 l 1
 124.602788 407.155382 l 1
 312.827104 281.890436 l 1
 233.564818 70.3823147 l 1
 410.400101953 211.541883774 l 1
 587.267429 70.396873 l 1
 508.025096 281.055233 l 1
 696.635303 407.2012 l 1
796.5 438.6 m 1
 558 264.9 l 1
 648.9 -15 l 1
 410.4 158.7 l 1
 171.9 -15 l 1
 262.8 265.8 l 1
 24.2998 438.6 l 1
 318.6 437.7 l 1
 410.4 718.5 l 1
 501.3 438.6 l 1
 796.5 438.6 l 1
EndSplineSet
EndChar

StartChar: uni261C
Encoding: 9756 9756 349
GlifName: uni261C_
Width: 2241
Flags: W
HStem: -39.8809 34.5928<702.366 803.644>
VStem: 65.4062 47.9922<389.495 407.811>
LayerCount: 2
Fore
SplineSet
65.4062 488.98 m 1
 133.471 493.169 171.866 495.579 238.634 514.306 c 1
 246.596 504.546 534.656 534.515 542.911 561.332 c 1
 564.898 551.482 577.512 547.037 605.929 570.229 c 1
 773.769 556.794 986.458 616.839 1106 648 c 1
 1329.25 569.701 1572.25 468.729 1696.18 430.638 c 1
 1739.57 483.052 1793.53 507.924 1848.05 516.793 c 1
 2110.43 547.303 l 1
 2163.02 255.056 2175.68 -29.6611 2148.35 -306.85 c 1
 1892.24 -297.519 l 1
 1875.45 -261.822 1858.65 -226.126 1841.85 -190.43 c 1
 1814.48 -179.761 1789.09 -165.358 1754.94 -149.172 c 1
 1614.8 -241.059 1469.34 -206.779 1327.96 -171.926 c 1
 1302.89 -235.181 1261.64 -288.312 1185.82 -267.69 c 1
 1164.81 -330.418 1107.45 -355.95 1072.25 -326.185 c 0
 999.4 -264.557 891.756 -230.288 835.198 -172.483 c 1
 682.232 -206.512 560.41 -112.538 687.913 48.1104 c 1
 660.334 112.992 745.543 185.467 777.889 271.683 c 1
 695.375 282.243 590.004 307.018 566.297 298.763 c 0
 515.511 281.073 363.284 309.172 334.218 317.119 c 1
 176.398 304.119 59.9014 331.849 65.4062 488.98 c 1
227.493 480.275 m 1
 178.401 472.663 150.689 468.371 101.594 460.757 c 1
 93.8691 413.082 244.447 408.912 227.493 480.275 c 1
1084.38 592.183 m 0
 825.397 554.269 996.286 546.32 636.788 522.399 c 0
 585.692 519 590.137 488.802 569.033 486.987 c 0
 550.55 485.4 544.591 511.314 526.415 507.695 c 0
 434.1 489.321 365.902 488.599 263.3 476.39 c 1
 250.997 394.928 192.292 410.334 113.398 407.811 c 1
 114.412 376.567 264.124 347.652 350.099 377.665 c 1
 407.623 368.682 461.089 357.379 523.575 380.384 c 1
 604.456 372.626 651.254 355.211 727.339 401.371 c 1
 807.605 356.047 974.055 358.16 1064.13 421.6 c 1
 1070.94 421.779 1071.33 413.38 1077.52 410.565 c 1
 1051.33 362.256 1084.46 312.087 1114.36 315.387 c 0
 1130.39 317.154 1149.22 354.088 1163.9 376.21 c 0
 1172.19 388.706 1208.8 379.251 1202.08 365.563 c 0
 1164.56 289.234 1183.03 221.194 1302.92 308.083 c 0
 1330.21 327.857 1391.28 329.565 1389.06 296.334 c 0
 1387.54 273.576 1345.13 302.372 1303.25 264.596 c 0
 1210.07 180.539 1123.04 118.563 1008.84 107.013 c 1
 996.464 98.4824 989.483 93.6709 977.105 85.1396 c 1
 876.257 142.62 705.042 54.8047 694.435 -5.28809 c 1
 757.921 -1.57617 796.29 11.3975 834.737 -28.0469 c 1
 861.688 11.0107 922.306 3.84277 985.483 11.0127 c 1
 998.435 5.33398 1005.74 2.13281 1018.69 -3.54395 c 1
 1031.07 4.98828 1038.05 9.79883 1050.42 18.3291 c 1
 1063.43 11.9795 1070.77 8.39844 1083.78 2.04883 c 1
 1093.29 11.6924 1098.66 17.1289 1108.17 26.7725 c 1
 1169 0.666992 1265.6 3.79102 1298.85 55.3369 c 0
 1307.77 69.1582 1331.21 74.7871 1353.92 73.9941 c 0
 1497.96 68.9609 1697.02 60.1641 1760.13 150.666 c 0
 1796.28 202.51 1766.13 361.801 1721.3 387.54 c 1
 1551.99 437.4 1391.01 515.096 1175.49 584.343 c 0
 1141.59 595.234 1119.66 597.348 1084.38 592.183 c 0
823.456 -100.385 m 1
 821.674 -60.501 792.91 -39.6387 757.787 -39.8809 c 0
 715.507 -40.1699 663.499 -75.8311 669.326 -101.442 c 0
 672.815 -116.764 791.04 -134.5 823.456 -100.385 c 1
1825.2 474.796 m 1
 1793.57 452.477 1775.72 439.887 1744.09 417.571 c 1
 1790.28 409.132 l 1
 1834.35 392.028 1910.85 90.5078 1840.19 -91.3711 c 1
 1844.61 -94.3838 1847.1 -96.085 1851.52 -99.1006 c 1
 1989.62 -17.6104 1923.24 389.222 1825.2 474.796 c 1
EndSplineSet
Validated: 33
EndChar

StartChar: uni261E
Encoding: 9758 9758 350
GlifName: uni261E_
Width: 2241
Flags: HMW
LayerCount: 2
Fore
SplineSet
2162.17 488.98 m 1
 2167.68 331.849 2051.18 304.119 1893.36 317.119 c 1
 1864.29 309.172 1712.07 281.073 1661.28 298.763 c 0
 1637.57 307.018 1532.2 282.243 1449.69 271.683 c 1
 1482.03 185.467 1567.24 112.992 1539.66 48.1104 c 1
 1667.17 -112.538 1545.34 -206.512 1392.38 -172.483 c 1
 1335.82 -230.288 1228.18 -264.557 1155.32 -326.185 c 0
 1120.13 -355.95 1062.77 -330.418 1041.76 -267.69 c 1
 965.937 -288.312 924.688 -235.181 899.613 -171.926 c 1
 758.235 -206.779 612.779 -241.059 472.641 -149.172 c 1
 438.485 -165.358 413.094 -179.761 385.725 -190.43 c 1
 368.927 -226.126 352.131 -261.822 335.333 -297.519 c 1
 79.2285 -306.85 l 1
 51.9014 -29.6611 64.5586 255.056 117.149 547.303 c 1
 379.524 516.793 l 1
 434.047 507.924 488.01 483.052 531.394 430.638 c 1
 655.332 468.729 898.328 569.701 1121.58 648 c 1
 1241.12 616.839 1453.81 556.794 1621.65 570.229 c 1
 1650.07 547.037 1662.68 551.482 1684.67 561.332 c 1
 1692.92 534.515 1980.98 504.546 1988.94 514.306 c 1
 2055.71 495.579 2094.11 493.169 2162.17 488.98 c 1
2000.08 480.275 m 1
 1983.13 408.912 2133.71 413.082 2125.98 460.757 c 1
 2076.89 468.371 2049.18 472.663 2000.08 480.275 c 1
1143.19 592.183 m 0
 1107.92 597.348 1085.99 595.234 1052.09 584.343 c 0
 836.569 515.096 675.586 437.4 506.281 387.54 c 1
 461.443 361.801 431.295 202.51 467.448 150.666 c 0
 530.558 60.1641 729.622 68.9609 873.661 73.9941 c 0
 896.366 74.7871 919.808 69.1582 928.726 55.3369 c 0
 961.981 3.79102 1058.58 0.666992 1119.41 26.7725 c 1
 1128.92 17.1289 1134.29 11.6924 1143.8 2.04883 c 1
 1156.8 8.39844 1164.14 11.9795 1177.15 18.3291 c 1
 1189.53 9.79883 1196.51 4.98828 1208.89 -3.54395 c 1
 1221.83 2.13281 1229.14 5.33398 1242.09 11.0127 c 1
 1305.27 3.84277 1365.89 11.0107 1392.84 -28.0469 c 1
 1431.29 11.3975 1469.66 -1.57617 1533.14 -5.28809 c 1
 1522.54 54.8047 1351.32 142.62 1250.47 85.1396 c 1
 1238.09 93.6709 1231.11 98.4824 1218.74 107.013 c 1
 1104.54 118.563 1017.5 180.539 924.325 264.596 c 0
 882.445 302.372 840.035 273.576 838.518 296.334 c 0
 836.301 329.565 897.366 327.857 924.653 308.083 c 0
 1044.55 221.194 1063.02 289.234 1025.5 365.563 c 0
 1018.77 379.251 1055.38 388.706 1063.68 376.21 c 0
 1078.36 354.088 1097.19 317.154 1113.21 315.387 c 0
 1143.12 312.087 1176.25 362.256 1150.06 410.565 c 1
 1156.25 413.38 1156.63 421.779 1163.45 421.6 c 1
 1253.52 358.16 1419.97 356.047 1500.24 401.371 c 1
 1576.32 355.211 1623.12 372.626 1704 380.384 c 1
 1766.49 357.379 1819.95 368.682 1877.48 377.665 c 1
 1963.45 347.652 2113.17 376.567 2114.18 407.811 c 1
 2035.29 410.334 1976.58 394.928 1964.28 476.39 c 1
 1861.67 488.599 1793.48 489.321 1701.16 507.695 c 0
 1682.99 511.314 1677.03 485.4 1658.54 486.987 c 0
 1637.44 488.802 1641.88 519 1590.79 522.399 c 0
 1231.29 546.32 1402.18 554.269 1143.19 592.183 c 0
1404.12 -100.385 m 1
 1436.54 -134.5 1554.76 -116.764 1558.25 -101.442 c 0
 1564.08 -75.8311 1512.07 -40.1699 1469.79 -39.8809 c 0
 1434.67 -39.6387 1405.9 -60.501 1404.12 -100.385 c 1
402.373 474.796 m 1
 304.342 389.222 237.955 -17.6104 376.058 -99.1006 c 1
 380.473 -96.085 382.967 -94.3838 387.383 -91.3711 c 1
 316.725 90.5078 393.227 392.028 437.294 409.132 c 1
 483.483 417.571 l 1
 451.853 439.887 434.009 452.477 402.373 474.796 c 1
EndSplineSet
Validated: 33
EndChar

StartChar: uni211F
Encoding: 8479 8479 429
GlifName: uni211F_
Width: 831
UnlinkRmOvrlpSave: 1
Flags: HW
LayerCount: 2
Fore
SplineSet
493.352 -75.654 m 1
 592.827 97.1546967509 747.835714286 474.816462094 748.484 494.921 c 1
 641.66 532.833 l 1
 635.3675 551.859204819 670.040387849 577.159418158 692 596 c 1
 739.19 579.23 765.81 569.77 813 553 c 1
 773 475 572.146067416 -19.3583460949 537 -97 c 1
 493.352 -75.654 l 1
EndSplineSet
Refer: 43 82 N 1 0 0 1 0 0 2
EndChar

StartChar: uni2123
Encoding: 8483 8483 430
GlifName: uni2123
Width: 841
UnlinkRmOvrlpSave: 1
Flags: HW
LayerCount: 2
Fore
SplineSet
209.352 -75.654 m 1
 308.827 97.1546967509 463.835714286 474.816462094 464.484 494.921 c 1
 357.66 532.833 l 1
 351.3675 551.859204819 386.040387849 577.159418158 408 596 c 1
 455.19 579.23 481.81 569.77 529 553 c 1
 489 475 288.146067416 -19.3583460949 253 -97 c 1
 209.352 -75.654 l 1
EndSplineSet
Refer: 54 86 N 1 0 0 1 0 0 2
EndChar

StartChar: estimated
Encoding: 8494 8494 431
GlifName: estimated
Width: 752
VWidth: 0
Flags: W
HStem: -9 50.917<266.135 484.333> 310.923 51.15<191.384 562.454> 632.006 50.917<264.706 485.147>
VStem: 30.1973 161.187<217.349 310.923 362.073 455.702> 562.454 159.576<362.073 456.3>
LayerCount: 2
Fore
SplineSet
632.777 191.846 m 1
 676.861 166.441 l 1
 673.98 161.581 l 2
 613.377 59.3301 501.767 -9 376 -9 c 0
 189.553 -9 30.1973 142.604 30.1973 338.341 c 0
 30.1973 525.945 184.438 682.615 375.52 682.923 c 2
 376.044 682.923 l 2
 564.48 682.923 722.035 529.016 722.03 336.942 c 0
 722.03 329.967 721.813 323.039 721.4 316.168 c 2
 721.084 310.923 l 1
 191.384 310.923 l 1
 191.384 107.399 l 1
 242.467 66.2236 307.069 41.917 376 41.917 c 0
 483.087 41.917 578.216 100.053 629.964 187.113 c 2
 632.777 191.846 l 1
191.384 566.668 m 1
 191.384 362.073 l 1
 562.454 362.073 l 1
 562.454 565.158 l 1
 511.302 606.997 446.18 632.006 376.044 632.006 c 2
 375.598 632.006 l 2
 305.803 631.894 241.805 607.323 191.384 566.668 c 1
EndSplineSet
Validated: 33
EndChar

StartChar: uni2023
Encoding: 8227 8227 436
GlifName: uni2023
Width: 614
Flags: HW
LayerCount: 2
Back
Fore
SplineSet
551.868 305.857902125 m 1
 551.868 276.783 l 1
 517.418971 261.88641393 406.170686023 267.436848803 356 253.926124383 c 0
 132.732763626 224.365270522 164.660489 149.3508151 74.3148583 13.53561953 c 1
 52.0887539 26.2162017 l 1
 90.5923078 175.71662 111.58579 346.603972 37.3201939 559.0205 c 1
 67.36044 566.405519 l 1
 129.06076 432.456439 145.117381389 328.578624586 325.639908242 324.571902125 c 0
 414.423634252 322.197504125 514.781371958 316.551225125 551.868 305.857902125 c 1
EndSplineSet
EndChar

StartChar: dagger
Encoding: 8224 8224 437
GlifName: dagger
Width: 442
Flags: HW
LayerCount: 2
Fore
SplineSet
264.299 370 m 1
 243.607 262 242.868 250 234 -18 c 1
 209.261 -18 l 1
 198.915 266 198.501477539 282.899414062 178.962 370 c 1
 199.654 441.121117647 203.349 460.153529412 209.261 523.261 c 1
 135.566 515.871 l 2
 82.3128917614 508.481 85.7760909091 499.613 60.393 499.613 c 3
 41.3583568547 499.613 20.132 520.871 20.132 535.261 c 3
 20.132 549.470526311 42.8369677734 571.648 61.132 571.648 c 3
 85.6168684211 571.648 86.8129961621 563.519 135.566 556.868 c 2
 209.261 549.478 l 1
 201.132 619.217 l 2
 195.959 655.755054082 185.613 680.022841463 185.613 700.956 c 3
 185.613 721.146097818 207.675980762 739.433998706 222 739.434 c 1
 236.35405427 739.434001316 258.387 721.146488829 258.387 702.434 c 3
 258.387 679.648392857 248.041 654.04311055 242.868 619.217 c 2
 234.739 549.478 l 1
 308.434 556.868 l 2
 362.065828671 564.258 357.403736842 572.387 382.868 572.387 c 3
 401.21296 572.387 423.868 551.042282809 423.868 536.739 c 3
 423.868 522.258267117 401.349889317 500.352 382.129 500.352 c 3
 357.564 500.352 357.273976089 509.22 308.434 515.871 c 2
 234 523.261 l 1
 239.912 461.155235294 243.607 442.122823529 264.299 370 c 1
EndSplineSet
EndChar

StartChar: daggerdbl
Encoding: 8225 8225 438
GlifName: daggerdbl
Width: 442
Flags: HW
LayerCount: 2
Fore
SplineSet
184.874 369 m 1
 201.528536585 440.120331169 204.502560976 460.154227273 209.261 523.261 c 1
 134 515.871 l 2
 78.932496324 508.481 83 499.613 57 499.613 c 3
 40.8067961914 499.613 20.132 521.487909091 20.132 535.261 c 3
 20.132 549.0072 42.1798985328 571.648 58 571.648 c 3
 83 571.648 83.9704799619 563.519 134 556.868 c 2
 209.261 549.478 l 1
 201.132 620 l 2
 195.959 658.267663975 185.613 681.388317073 185.613 702.522 c 3
 185.613 721.580384615 208.2538 739.434 222 739.434 c 3
 235.7462 739.434 258.387 721.32245946 258.387 704 c 3
 258.387 681 248.041 657.031847702 242.868 620 c 2
 234.739 549.478 l 1
 310 556.868 l 2
 365.035878167 564.258 360 572.387 386 572.387 c 3
 401.933748761 572.387 423.868 550.512090909 423.868 536.739 c 3
 423.868 522.9928 401.763817244 500.352 385 500.352 c 3
 360 500.352 360.091224414 509.22 310 515.871 c 2
 234 523.261 l 1
 238.758439024 461.155922078 241.732463415 441.122025974 258.387 369 c 1
 241.732463415 297.881968153 238.758439024 274.843732484 234 211.739 c 1
 309 219.129 l 2
 364.063523632 226.519 360 235.387 386 235.387 c 3
 402.454203809 235.387 422.868 213.512090909 422.868 199.739 c 3
 422.868 185.9928 400.743443908 163.352 385.261 163.352 c 3
 360.175144737 163.352 359.197201156 171.481 309 178.132 c 2
 234 185.522 l 1
 242.129 115 l 2
 247.302 76.9236012066 257.648 54 257.648 33 c 3
 257.648 13.2857692308 235.0072 -4.434 221.261 -4.434 c 3
 207.5148 -4.434 184.874 13.346 184.874 32.566 c 3
 184.874 55.1372142857 195.22 78.6486986141 200.393 115 c 2
 208.522 185.522 l 1
 133 178.132 l 2
 77.9582990644 170.742 83 162.613 57 162.613 c 3
 41.0662512386 162.613 19.132 184.487909091 19.132 198.261 c 3
 19.132 212.0072 41.2361827567 234.648 58 234.648 c 3
 83 234.648 82.9392861012 225.78 133 219.129 c 2
 209.261 211.739 l 1
 204.502560976 273.842070064 201.528536585 296.880305733 184.874 369 c 1
EndSplineSet
EndChar

StartChar: longs
Encoding: 383 383 445
GlifName: longs
Width: 357
VWidth: 1159
Flags: W
HStem: -6 36<34 97.3708 215.17 284.568> 1 32<191.619 282.018> 356 25<46 67.3182> 701 55<273.459 377.117>
VStem: 113 72<42.1466 356 403 602.768>
AnchorPoint: "Top" 262 748 basechar 0
AnchorPoint: "Bottom" 156 -15 basechar 0
LayerCount: 2
Fore
SplineSet
359 756 m 3x78
 391 756 441 745 466 723 c 1
 465 696 466 696 417 659 c 1
 378 677 347 701 309 701 c 3
 206 701 201 609 191 498 c 0
 187.339 461.394 185 339.326 185 293 c 3
 185 211 186 134 191 54 c 0
 192 39 198 34 214 33 c 0x78
 239 32 262 32 287 31 c 1
 284 -6 l 1xb8
 242 -1 182 1 140 1 c 3x78
 110 1 64 -2 34 -6 c 1
 33 30 l 1xb8
 44 31 58 31 69 33 c 0
 100 40 104 53 106 81 c 0
 111 133 114 201 114 266 c 3
 114 285.149 113 320.574 113 356 c 1
 46 356 l 1
 46 381 l 1
 113 403 l 1
 113 439.562 113 481.75 113 493 c 3
 113 601 156 657 224 704 c 0
 263 731 300 756 359 756 c 3x78
EndSplineSet
Validated: 1
Substitution2: "case-1" S
Substitution2: "pcap-1" s.pcap
Substitution2: "smcp-1" s.smcp
EndChar

StartChar: ohorn
Encoding: 417 417 448
GlifName: ohorn
Width: 505
VWidth: 0
UnlinkRmOvrlpSave: 1
Flags: HW
HStem: -11 39<199.926 327.747> 365.36 24.3843<349.604 421.731> 374 45<168.903 305.133> 382.741 20G<338.441 342.053>
VStem: 32 76<130.211 291.037> 395 78<107.641 276.826> 442.501 86.0273<403.736 481.559>
AnchorPoint: "Top" 251 465 basechar 0
AnchorPoint: "Bottom" 249 -15 basechar 0
AnchorPoint: "Middle" 255 206 basechar 0
LayerCount: 2
Fore
SplineSet
334.482421875 402.741210938 m 5x9a
 349.62424831 396.926343349 372.471667174 389.744140625 386.686523438 389.744140625 c 7
 411.796269819 389.744140625 442.501138157 408.271731058 442.501138157 441.560602678 c 7
 442.501138157 449.63955766 438.983530489 459.025418514 428.6640625 470.818359375 c 5
 444.576416165 489.781030223 464.379979468 500.219391987 482.796821553 500.219391987 c 7
 512.365850716 500.219391987 528.528388939 475.09191665 528.528388939 445.9790134 c 7
 528.528388939 396.089685559 450.426516037 365.359813167 388.72825766 365.359813167 c 7xca
 357.132622939 365.359813167 342.400200021 377.606700862 334.482421875 402.741210938 c 5x9a
EndSplineSet
Refer: 14 111 N 1 0 0 1 0 0 2
Substitution2: "smcp-1" ohorn.smcp
Substitution2: "case-1" Ohorn
Substitution2: "pcap-1" ohorn.pcap
EndChar

StartChar: uhorn
Encoding: 432 432 449
GlifName: uhorn
Width: 526
VWidth: 0
UnlinkRmOvrlpSave: 1
Flags: W
HStem: -11 55<175.733 263.795> 338 31<292 351.243> 402 20G<128 167>
VStem: 70 76<75.1633 330.249> 359 64<36.0058 52 76.9705 331.63> 493.501 86.0273<404.739 481.559>
AnchorPoint: "Top" 265 465 basechar 0
AnchorPoint: "Bottom" 256 -15 basechar 0
LayerCount: 2
Fore
SplineSet
410 375 m 5
 418.121414362 381.745491074 430.375771951 388.077148438 438 390.077148438 c 5
 462.968647592 396.077148438 493.500976562 408.485648026 493.500976562 441.560546875 c 7
 493.500976562 449.639517266 489.983409974 459.025396022 479.6640625 470.818359375 c 5
 495.576431876 489.781246013 515.380014732 500.219726562 533.796875 500.219726562 c 7
 563.365825233 500.219726562 579.528320312 475.092318034 579.528320312 445.979492188 c 7
 579.528320312 396.08959691 501.426629866 370.359375 439.728515625 365.359375 c 5
 422.413060772 365.359375 414.339204806 368.517835056 410 375 c 5
285 369 m 1
 339.422818792 375.199161305 395.899328859 382.557301496 438 390.077148438 c 1
 445 378 l 1
 431 335.584 423 173.632 423 137 c 3
 423 107 426.284077022 81.1592297825 429 54 c 0
 430 44 433 36 443 36 c 3
 447 36 473 43 493 48 c 1
 499 17 l 1
 463 8 419.410107664 -9.647473084 386 -18 c 0
 382 -19 381 -22 376 -22 c 3
 359 -22 359 0 354 52 c 1
 313 34 236 -11 178 -11 c 3
 140 -11 102.934188969 5.51320688895 86 44 c 0
 75 69 70 95 70 143 c 3
 70 198 73 255 73 312 c 0
 73 322 69 331 59 331 c 3
 49 331 28 319 22 317 c 1
 12 348 l 1
 53 359 107 394 149 422 c 1
 167 406 l 1
 152 336 146 254 146 177 c 3
 146 106 161 44 232 44 c 3
 269 44 322 69 353 85 c 1
 354 154 359 291 359 298 c 3
 359 337 329 337 292 338 c 1
 285 369 l 1
EndSplineSet
Substitution2: "smcp-1" uhorn.smcp
Substitution2: "case-1" Uhorn
Substitution2: "pcap-1" uhorn.pcap
EndChar

StartChar: yen
Encoding: 165 165 451
GlifName: yen
Width: 463
VWidth: 1159
UnlinkRmOvrlpSave: 1
Flags: HW
LayerCount: 2
Fore
SplineSet
274.890625 169.708984375 m 1
 274.314622807 115.248982948 272.283654214 50.1171047102 283.09765625 -128.499023438 c 0
 285.015173967 -160.170886375 292.119204273 -161.0586431 320.783203125 -167.310546875 c 1
 317.580078125 -195.142578125 l 1
 274.689595576 -186.83690152 222.038207283 -183.218788643 178.485351562 -198.678710938 c 1
 171.08984375 -171.665039062 l 1
 195.610467016 -162.26863286 206.390990071 -155.268664903 207.260742188 -117.220703125 c 0
 207.787638441 -104.621204106 205.843021338 150.767976016 205.118164062 143.750976562 c 1
 204.034116885 150.049303618 155.095264654 248.178623374 87.2695828038 343.999997223 c 0
 76.0701508093 359.82210075 59.2291043945 378.720580661 49 385 c 1
 139 433 l 1
 144.933661013 402.938576204 168.652866704 351.939024868 181.091541944 327.999991964 c 0
 221.31584563 250.585724695 252.239236655 211.848881796 255.486328125 207.837890625 c 1
 299.730787717 303.031969433 321.320964056 356.628741888 331 433 c 1
 345.5 424.066173481 396.25 400.848034565 418 391 c 1
 345.004852928 317.965777551 314.263107929 249.458544383 274.890625 169.708984375 c 1
EndSplineSet
Refer: 1970 58113 N 0.29 0 0 1.125 93 -2 2
Refer: 1970 58113 N 0.29 0 0 1.125 93 98 2
Position2: "'lnum-2' vertical adjustment" dx=0 dy=190 dh=0 dv=0
EndChar

StartChar: eth
Encoding: 240 240 453
GlifName: eth
Width: 471
VWidth: 1159
UnlinkRmOvrlpSave: 1
Flags: HW
LayerCount: 2
Fore
SplineSet
368.094 315.525 m 1
 333.816181818 348.41984 248.418241474 363.959 226.698 363.959 c 3
 199.120292308 363.959 81.56 329.549486621 81.56 211.645 c 3
 81.56 119.55788387 138.616230957 37.214 236.34 37.214 c 3
 336.035515651 37.214 377.745 129.70486605 377.745 210.874 c 3
 377.745 387.319765312 227.437 628.962 65.522 701.305 c 1
 69.4439298671 707.57415063 77.2373046875 727.453125 77.2373046875 727.453125 c 1
 260.283740169 675.166289781 435 439.719447105 435 235 c 3
 435 113.962890625 360.284179688 -5 193 -5 c 3
 102.911132812 -5 28 65.923828125 28 171 c 3
 28 325.869690768 174.06240678 404.217 257.997 404.217 c 3
 279.916441556 404.217 324.064841639 394.958942771 346.487 384.692 c 1
 368.094 315.525 l 1
EndSplineSet
Refer: 1970 58113 N 0.284488 0.177084 -0.547233 0.872389 109.715 489.958 2
Substitution2: "pcap-1" eth.pcap
Substitution2: "case-1" Eth
Substitution2: "smcp-1" eth.smcp
EndChar

StartChar: quotereversed
Encoding: 8219 8219 462
GlifName: quotereversed
Width: 200
VWidth: 1159
Flags: HW
LayerCount: 2
Fore
SplineSet
150.786976563 460.135 m 1
 54.1889765625 517.566 35.5759765625 625.956 35.5759765625 632.739 c 1
 35.5759765625 638.217 37.7929765625 642.956 42.2709765625 644.695 c 0
 62.1145732422 654.265617187 77.953421875 668.824 88.8779765625 689.302 c 0
 90.6666787109 693.548056641 95.8339765625 696.736 101.311976563 696.736 c 3
 106.674004883 696.736 112.036033203 693.519 113.745976563 689.041 c 0
 123.301300781 668.708538086 138.657976563 654.912 158.352976563 644.695 c 0
 162.599797851 642.940961914 164.047976562 638.179787109 164.047976562 632.739 c 3
 164.047976562 627.217415039 162.569976562 620.957084961 158.091976563 619.044 c 0
 138.79637793 608.816804688 119.267976562 595.393 110.050976562 575.742 c 0
 98.3214726562 550.26378125 133.308976562 507.701 167.308976562 482.786 c 1
 150.786976563 460.135 l 1
EndSplineSet
Position2: "cpsp-1" dx=0 dy=0 dh=7 dv=14
EndChar

StartChar: uni20B9
Encoding: 8377 8377 466
GlifName: uni20B_9
Width: 426
VWidth: 1159
UnlinkRmOvrlpSave: 1
Flags: W
HStem: -42 23<381.506 409> 283 31<32 113.386> 460.095 28.999<33.25 411.25>
VStem: 248 79<400.509 544.149>
LayerCount: 2
Fore
SplineSet
33.25 666.09375 m 1
 411.25 666.09375 l 1
 411.25 637.094726562 l 1
 33.25 637.094726562 l 1
 33.25 666.09375 l 1
33.25 489.09375 m 1
 411.25 489.09375 l 1
 411.25 460.094726562 l 1
 33.25 460.094726562 l 1
 33.25 489.09375 l 1
32.5 666 m 1
 57.25390625 666 67.658203125 666 96 666 c 0
 222.431640625 666 327 583 327 480 c 0
 327 393 262.599609375 334 189 304 c 1
 265.474609375 110.581054688 332.772460938 -13.0947265625 412 -19 c 1
 409 -42 l 1
 258 -39 178 134 114 284 c 1
 100.875 283 89.2080078125 283 79 283 c 0
 60.6474609375 283 50.3525390625 285.400390625 32 286 c 1
 32 316 l 1
 49.912109375 315.5 59.087890625 314 77 314 c 3
 219.663085938 314 248 410.737304688 248 469 c 3
 248 534.418945312 188.37890625 638 75 638 c 3
 61.8720703125 638 35.193359375 638 33.5 638 c 1
 32.5 666 l 1
EndSplineSet
EndChar

StartChar: eng
Encoding: 331 331 467
GlifName: eng
Width: 499
VWidth: 1159
Flags: W
HStem: -319 60<162.258 279.828> -5 33<20.3636 69> 335 29<32 79.6511> 338 61<245.574 353.747> 396 20G<129 175>
VStem: 95 75<72.7464 318.176 330 331.265> 379 69<-89.8607 313.154>
LayerCount: 2
Fore
SplineSet
329 -267 m 4xd6
 284.360294118 -296 253 -319 194 -319 c 7
 162 -319 112 -308 87 -286 c 5
 88 -259 87 -259 136 -222 c 5
 165.972222222 -237.857142857 189.796296296 -259 219 -259 c 7
 247.822033898 -259 296.27809609 -258.437912348 316 -237 c 4
 342.595265849 -208.090672547 360.595200234 -175.050461911 367 -146 c 4
 373.749647059 -115.385402827 379 -41.9109823322 379 143 c 7
 379 192.5 376.549026451 266.820841347 374 287 c 4
 369 328.328358209 348 358 293 358 c 7xd6
 245 358 203 344.4 170 324 c 5
 168 234.329113924 161 109.430379747 161 71 c 7
 161 27.80589946 195.795590225 30.6204409775 232 27 c 5
 228 -7 l 5
 189 -1 159 4 117 4 c 7
 87 4 51 -1 21 -5 c 5
 18 28 l 5
 55.449092135 34.8089258427 78.318284601 37.5524032329 87 76 c 4
 94 107 95 167 95 199 c 7
 95 219 92.9313485794 287.976104104 86 308 c 4
 77 334 72 336 54 336 c 7
 44 336 41 335 32 335 c 5
 30 364 l 5
 67 371 104 375 154 416 c 5xee
 175 401 l 5
 170 387.056338028 167 366.915492958 167 346 c 5
 215 377 267 415 330 415 c 7
 403 415 448 375 448 304 c 7
 448 213.433607383 445 119.425469455 445 -84 c 7
 445 -134 432.819094368 -164.880515375 419 -186 c 4
 396.752808989 -220 368.44138087 -241.377070309 329 -267 c 4xd6
EndSplineSet
Validated: 1
Substitution2: "smcp-1" eng.smcp
Substitution2: "case-1" Eng
Substitution2: "pcap-1" eng.pcap
EndChar

StartChar: Eng
Encoding: 330 330 468
GlifName: E_ng
Width: 836
VWidth: 1159
Flags: W
HStem: -241 62<483.653 578.44> -10 44<23.3182 86.8179 186.794 270.067> 655 39<771.217 833> 663 38<601.079 678.507>
VStem: 97 55<66.5393 314.07> 105 56<351.62 550> 676.266 70.7344<-86.2532 70.0219>
LayerCount: 2
Fore
SplineSet
628 -189 m 0xe6
 589 -216 552 -241 493 -241 c 3
 461 -241 411 -230 386 -208 c 1
 387.224489796 -178.046875 386 -178.046875 446 -137 c 1
 485 -155 508.349151158 -179 554 -179 c 3
 640.616503398 -179 676.265625 -76.9678502479 676.265625 -13.4755859375 c 3
 676.265625 48.2626834417 640.03404243 103.097021502 604 139.090820312 c 0
 459.896 279.614068929 313.026 416.065410818 161 550 c 1xe6
 152 154 l 2
 149.672574689 52.4216563039 186 44.674796748 277 35 c 1
 269 -11 l 1
 229.225006617 -2.55029543162 191.72886241 0.193359375 156.584960938 0.193359375 c 0
 107.789937357 0.193359375 63.5294692282 -6.59829339283 24 -10 c 1
 19 34 l 1
 77 34 94.2505340003 45.0370931165 97 93 c 0xea
 106 246.782786885 108.836453881 409.412965035 105 571 c 0
 104 614 69 649 12 648 c 1
 14 692 l 1
 53 688 104.987806691 684 146 684 c 0
 161 684 162.224003945 680.217054625 169 673 c 0
 318.792 516.927864326 473.300161891 367.004316767 636 223.227539062 c 0
 659.155 202.310678333 682.86 176.9488472 699 154 c 1
 708 281.98180798 710.135155394 409.964631854 709 545 c 0
 708 667 656 656 597 663 c 1
 602 701 l 1xd6
 658.737273127 693.806776525 706.285370634 691.3984375 751.0625 691.3984375 c 0
 778.931628397 691.3984375 805.747514379 692.483615703 833 694 c 1
 837 655 l 1
 788 649 766.708243919 651.026764413 763 609 c 0
 748 442.189493433 745 264.596148366 745 86 c 0
 745 63 747 43 747 0 c 3
 747 -86.94 692.388915009 -144.42305884 628 -189 c 0xe6
EndSplineSet
Validated: 33
Position2: "cpsp-1" dx=0 dy=0 dh=50 dv=100
Substitution2: "c2pc-1" eng.pcap
Substitution2: "c2sc-1" eng.smcp
EndChar

StartChar: circumcombhigh
Encoding: 58081 58081 471
GlifName: circumcombhigh
Width: 0
VWidth: 1159
Flags: HW
LayerCount: 2
Fore
SplineSet
-71.2197 465.56 m 5
 -92.3515020391 450.31908768 l 5
 -106.3422745 464.851741 -194.068108914 529.336673 -197.3695 529.336673 c 5
 -200.670388417 529.336673 -293.671705624 459.572320479 -302.908873578 450.31908768 c 5
 -323.78 465.56 l 5
 -215.364 583.681 l 5
 -179.636 583.681 l 5
 -71.2197 465.56 l 5
EndSplineSet
EndChar

StartChar: a.pcap
Encoding: 57347 57347 643
GlifName: a.pcap
Width: 472
VWidth: 1159
Flags: HW
AnchorPoint: "Top" 250 465 basechar 0
AnchorPoint: "Bottom" 239 -15 basechar 0
LayerCount: 2
Fore
SplineSet
171.607 167.478 m 1
 206.443176471 163.45675 257.536235294 164.261 290.05 164.261 c 1
 264.347666667 227.847680672 256.425 240.951168067 229.525 304.663 c 1
 202.97925 237.859869565 195.7395 224.737826087 171.607 167.478 c 1
313.27 -6.478 m 1
 313.27 -6.478 308.748 10.77032 306.487 17.478 c 1
 323.07103125 23.3413076923 340.396445926 33.5379757094 337.704 39.824 c 0
 324.13478125 80.6416136364 314.930875 97.8279772727 301.267 134.349 c 1
 277.763866142 139.522 193.824102362 142.478 159.129 139.044 c 1
 143.505 102.188 131.790165383 79.7292436425 118.953 44.736 c 0
 115.415441812 33.0799041699 134.420218182 18.638 168.994 20.695 c 1
 165.906 -7 l 1
 150.256388223 -2.9169921875 120.343238055 -0.875 92.8076171875 -0.875 c 3
 70.7012164054 -0.875 49.9567384955 -1.9169921875 37.393 -4 c 1
 37.393 -2.04015384615 34.58875 12.6586923077 33.654 21.478 c 1
 63.0617307692 25.7472 77.8708509628 38.4949518665 79.651 42.824 c 0
 136.5645 163.353058461 185.838827159 273.64624756 226 372 c 0
 233.969037065 391.35786812 231.71775 392.088 235.566 415 c 1
 263.173 415 l 1
 267.8255 395 264.227498062 395.459801856 272.478 373 c 0
 316.950507463 244 347.476526509 159.859891115 407 37 c 0
 412.671371492 26.0311315315 430.322142857 21 439.651 21 c 1
 439.651 19 438.607 5 436.563 -3 c 1
 422.366823174 -0.380859375 402.768900083 1.0947265625 382.831382812 1.0947265625 c 3
 356.510071782 1.0947265625 329.609117264 -1.20660028162 313.27 -6.478 c 1
EndSplineSet
EndChar

StartChar: b.pcap
Encoding: 57348 57348 644
GlifName: b.pcap
Width: 444
VWidth: 1159
Flags: HW
AnchorPoint: "Bottom" 218 -15 basechar 0
AnchorPoint: "Top" 213 465 basechar 0
LayerCount: 2
Fore
SplineSet
61 22 m 1
 75.7042953692 23.3400909091 111.742 24.0320888302 113.22 48.997 c 0
 114.698 50.0501238938 116.176 102.706318584 116.176 168 c 3
 116.176 259.329433133 112.47017573 338.701712247 112.481 339.786 c 0
 111.884769231 362.386909091 111.020534485 373.467801854 98.698 377.522 c 0
 92.987194202 378.433664302 65.690882353 381.522 60 382.522 c 1
 64 407 l 1
 72 407 104 401 136 401 c 3
 166 401 207 407 236 407 c 3
 312.829578947 407 346.868 342 346.868 305 c 3
 346.868 264.748433735 301.910514286 228.522024096 281.305 221.478 c 1
 340.593181818 209.207796442 390 166.261597967 390 109 c 1
 390 41.5927734375 330 -3 239 -3 c 3
 209 -3 171 1 138 1 c 3
 103 1 69 -2 63 -2 c 1
 61 22 l 1
226 226 m 0
 258.195913043 230.2446875 282.962 260.44515625 282.962 293.915 c 3
 282.962 319.0102 266.162964286 380.783 221.22 380.783 c 3
 217.2625 380.783 193.557700342 378.876675977 189.56 378.739 c 0
 177.987815297 376.414622658 178.604 363.286532666 177.126 354.654 c 0
 173.431 289.6965 173.431 226.801142857 172.692 224.739 c 1
 220.205652174 224.739 224.664038034 225.201740827 226 226 c 0
215 205 m 3
 211.617908265 205 173.123 205.739 171.953 205.739 c 1
 171.953 150.666815643 171.875653535 97.8425129579 173.431 64.126 c 0
 174.188743482 40.9344464642 176.556811178 34.269416343 189.343 30.173 c 0
 193.146605263 28.434 227.379052632 23.217 237.522 23.217 c 3
 295.38904 23.217 326.094 55.6517990506 326.094 104.305 c 3
 326.094 155.161528033 295.170927835 205 215 205 c 3
EndSplineSet
EndChar

StartChar: c.pcap
Encoding: 57349 57349 645
GlifName: c.pcap
Width: 500
VWidth: 1159
Flags: HW
AnchorPoint: "Bottom" 287 -15 basechar 0
AnchorPoint: "Top" 298 465 basechar 0
LayerCount: 2
Fore
SplineSet
56 200 m 3
 56 304.921875 136 414 307 414 c 3
 333 414 360.089137134 413.082006389 387 405 c 0
 416.719819615 396.586060128 424.800411765 400.695 438.783 401.478 c 1
 457 391 l 1
 430 357 418 338 417 319 c 0
 416 300 412 301 393 301 c 1
 391 324.047 396.481 350.264 379.047 362.915 c 0
 351.524017813 379.710837933 330.20695 387.783 295.915 387.783 c 3
 200.66068 387.783 125.818 323.26036349 125.818 210.346 c 3
 125.818 93.7972146597 216.843555556 21.695 299.302 21.695 c 3
 371.502463274 21.695 401.698 63.003 422 111 c 1
 443 105 l 1
 438 73 435 60 429 27 c 1
 392 9 339 -6 286 -6 c 3
 174 -6 56 73 56 200 c 3
EndSplineSet
EndChar

StartChar: d.pcap
Encoding: 57350 57350 646
GlifName: d.pcap
Width: 560
VWidth: 1159
Flags: HW
AnchorPoint: "Bottom" 258 -15 basechar 0
AnchorPoint: "Top" 269 465 basechar 0
LayerCount: 2
Fore
SplineSet
243.566 22.695 m 3
 372.839519553 22.695 436.399 90.0158442628 436.399 203.261 c 3
 436.399 311.860609375 354.421830508 384.261 249.22 384.261 c 3
 232.6525 384.261 211.328667007 379.628832465 182.95 374.044 c 0
 169.177069129 370.578420176 168.024265153 364.391943213 167.95 352.044 c 0
 166.217575016 282.442125106 164.621971373 224.604376744 164.621971373 163.376104723 c 3
 164.621971373 130.480406332 165.203788932 96.6443075856 166.472 59.607 c 0
 166.472 45.692 170.047743901 37.4190193682 183.472 32.607 c 0
 199.148695652 28.173 218.740990127 22.695 243.566 22.695 c 3
60 404 m 1
 85 403 111 401 136 401 c 3
 186 401 213 409 263 409 c 3
 426 409 504 303.909179688 504 205 c 3
 504 42.3525390625 365 -5 249 -5 c 3
 207 -5 183 -1 140 -1 c 3
 96 -1 81 -4 62 -7 c 1
 61 18 l 1
 90.7208571429 21.073 102.114622365 18.4819329927 104.044 49.824 c 0
 106.09671417 88.7654435459 106.984157786 135.529114792 106.984157786 181.330678414 c 3
 106.984157786 248.584835938 105.277873237 313.45982574 102.088 347 c 0
 99.0612611314 378.624106625 99.9836 376.488322581 60 378.522 c 1
 60 404 l 1
EndSplineSet
EndChar

StartChar: e.pcap
Encoding: 57351 57351 647
GlifName: e.pcap
Width: 468
VWidth: 1159
Flags: HW
AnchorPoint: "Bottom" 243 -15 basechar 0
AnchorPoint: "Top" 243 465 basechar 0
LayerCount: 2
Fore
SplineSet
63 404 m 1
 103.716719432 402.132260577 156.294170747 401.38082533 207.075831097 401.38082533 c 3
 292.238349339 401.38082533 372.35031404 403.494191539 383 406 c 1
 390.208111566 399.821618658 392.821397686 394.350133538 392.821397686 386.87609291 c 3
 392.821397686 372.575379949 383.254052737 350.943231223 378 303 c 1
 358 301 l 1
 353.261 320.874 364.897719337 351.134983784 345.525 363.698 c 0
 320.96097042 371.38803576 287.647162336 375.585724802 247.623828975 375.585724802 c 3
 227.411755297 375.585724802 207.075073356 374.370536993 189.689 371.827 c 0
 180.674587523 371.104516351 173.689 360.373684211 173.689 352.044 c 0
 169.994 304.273109896 167.038 259.616942448 166.038 216 c 1
 207.373016949 216 286.481 217 301.525 219.217 c 0
 327.529695226 222.912 329.994326087 237.51687234 341 267 c 1
 362 263 l 1
 357.43132713 246.552777669 355.576114593 226.348456416 355.576114593 205.820027424 c 3
 355.576114593 181.41543193 358.198071009 156.552777669 362 137 c 1
 339 131 l 1
 327.5046 189.622945454 328.923717579 183.132 300.786 187.566 c 0
 270.842 192.739 225.926 192 166.038 192 c 1
 165.777 134.556434176 165.682806351 86.3780372521 174.645 47.868 c 0
 176.142174624 39.8038242791 181.58811025 34.3904916909 190.645 32.868 c 0
 222.424357664 28.7967351317 248.070160153 25.6359124789 272.921600609 25.6359124789 c 3
 295.007266236 25.6359124789 323.094828347 29.0448992388 342.874 43.041 c 0
 373.783 66.475 378.61 87.61 397 120 c 1
 416 115 l 1
 407 75 398 33 391 -4 c 1
 327.763113226 -2.83969015085 258.690885532 -0.384671863407 194.928927487 -0.384671863407 c 3
 147.722224945 -0.384671863407 103.918409428 -1.74165738677 69 -6 c 1
 63 17 l 1
 95.5297142858 23.739 103.333872569 25.2872403716 106.305 53 c 1
 109.023822736 76.0324893992 110.133582353 141.57388693 110.133582353 207.545044419 c 3
 110.133582353 267.721717716 109.556527763 326.218439309 108.044 347 c 0
 106.432306382 375.020698923 102.132 375.739 60 385 c 1
 63 404 l 1
EndSplineSet
EndChar

StartChar: f.pcap
Encoding: 57352 57352 648
GlifName: f.pcap
Width: 439
VWidth: 1159
Flags: HW
AnchorPoint: "Bottom" 168 -15 basechar 0
AnchorPoint: "Top" 231 465 basechar 0
LayerCount: 2
Fore
SplineSet
250.214 -9 m 1
 218.54214887 -1.08203721742 192.806443106 2.39529773936 161.969623164 2.39529773936 c 3
 134.388416374 2.39529773936 108.93806067 -0.334368540005 74 -6 c 1
 68 17 l 1
 96.3177391304 24.44668 112.291255351 31.7299342096 114.522 58.648 c 1
 115.584706642 77.1818065204 116.138438763 132.818363621 116.138438763 192.542328907 c 3
 116.138438763 259.157962825 115.429400239 330.066390662 113.783 352.698 c 0
 112.270395823 371.764896461 94.9073962264 373.094909091 60 381 c 1
 64 402 l 1
 97.6728004421 400.426504652 139.664583252 399.546257835 181.498092776 399.546257835 c 3
 272.596369746 399.546257835 362.944097209 403.720486043 365 414 c 1
 380.774414062 406.60546875 385 398 385 383 c 3
 385 367 380.521484375 343.536132812 379 305 c 1
 358 303 l 1
 352.1566 321.7748 355.871 353.83 335.308 363.742 c 0
 305.877 378.088 253.777798354 376.217 187.211 372.305 c 0
 178.196789243 371.600013535 176.211 363.305 176.211 353.305 c 0
 173.255 306.303381445 172.516 259.301762891 172.516 216.478 c 1
 206.933029412 216.478 283.790580309 218.994685654 293.569 219.956 c 0
 317.045492241 223.811104857 321.261 246.434 332 271 c 1
 354 267 l 1
 348.852299546 247.953508322 346.619469288 223.342264451 346.619469288 198.895403866 c 3
 346.619469288 175.851426929 348.603390318 152.953508322 352 135 c 1
 329 129 l 1
 318.825488372 179.603 317.414215412 185.349 293.308 188.305 c 0
 261.450359223 192 236.672194175 191.261 171.777 189.522 c 1
 173.994 125.324 173.255 97.5278265267 176.95 61.126 c 0
 180.645 35.2285101835 186.541648437 28.871 254.214 22.868 c 1
 250.214 -9 l 1
EndSplineSet
EndChar

StartChar: g.pcap
Encoding: 57353 57353 649
GlifName: g.pcap
Width: 543
VWidth: 1159
Flags: HW
AnchorPoint: "Bottom" 288 -15 basechar 0
AnchorPoint: "Top" 285 465 basechar 0
LayerCount: 2
Fore
SplineSet
56 205 m 3
 56 368 235 412 318 412 c 1
 354 412 381.057249451 400.246687637 409 394 c 0
 417 392 424.044 393.39 428 407 c 1
 446 406 l 1
 458 301 l 1
 437 297 l 1
 412.742 369.091 331.746688186 385.044 301.742 385.044 c 3
 196.693122337 385.044 123.601 295.877981189 123.601 209.434 c 1
 123.601 106.736 206.653289017 20.956 305.475 20.956 c 1
 332.32966077 20.956 362.83 26.783 394.311 42.173 c 0
 401.589246227 45.3615525492 405.006 59.3547 405.006 69.302 c 0
 405.006 92.1228688525 407.528 118.654 408.267 142.569 c 0
 407.528 164.375426924 403.528 176.739 365 181 c 0
 345.983945567 182.814152327 333 183 314 183 c 1
 315 205 l 1
 374 199 458 200 487 204 c 1
 489 187 l 1
 472.956 182.217 469.176914776 174.091358045 468 151 c 0
 466.793629294 120.009294325 465.682457901 93.0176528233 464 68 c 0
 463 47.085 466.217 43.956 480 33 c 1
 478 19 l 1
 432 12 320 -6 288 -6 c 1
 158 -6 56 78 56 205 c 3
EndSplineSet
EndChar

StartChar: h.pcap
Encoding: 57354 57354 650
GlifName: h.pcap
Width: 603
VWidth: 1159
Flags: HW
AnchorPoint: "Bottom" 307 -15 basechar 0
AnchorPoint: "Top" 311 465 basechar 0
LayerCount: 2
Fore
SplineSet
65 409 m 1
 97.9225071636 406.029577907 126.972697188 403.059155815 158.045183424 403.059155815 c 3
 178.92022726 403.059155815 200.362454347 404.149971687 224.387 407 c 1
 226.387 383 l 1
 203.008085106 378.434 179.31789622 380.766808005 176.95 367.044 c 1
 173.050646157 346.38626793 172.695714286 275.41938181 170.994 216.739 c 1
 441.44 217.478 l 1
 441.962 254.205110875 441.962 296.198864165 440.484 349.264 c 0
 439.006 379.691819874 416.204586956 374.434 387.786 385 c 1
 390.786 408 l 1
 413.687974318 403.327915659 436.799748994 401.19828391 460.313517891 401.19828391 c 3
 485.926536995 401.19828391 512.057666555 404.591618273 539 412 c 1
 543 388 l 1
 514.044351351 380.13725 505.933730148 379.517853838 503.651 356.959 c 0
 498.838558456 301.958346361 494.907565532 211.469947489 494.907565532 142.805180582 c 3
 494.907565532 97.4738949091 495.695637835 61.8449765237 499.39 49.78 c 0
 504.52360301 25.007394064 519.997 26.088 542 21 c 1
 542 21 539 5 539 -2 c 1
 519.170662458 2.39262005119 494.732785729 4.879579782 469.397631711 4.879579782 c 3
 443.430021109 4.879579782 416.497740663 2.14333842339 392.786 -4 c 1
 392.786 -2 387.786 12 386.786 20 c 1
 417.213613636 29.305 432.410163035 28.340995599 435.484 52.997 c 0
 439.738285714 104.420192382 440.589142857 135.274107813 441.44 189.783 c 1
 170.255 189.783 l 1
 169.3635 141.637660185 169.3635 92.4562287888 170.472 52.519 c 0
 171.211 25.2217966368 196.276768421 28.827 222.387 21 c 1
 222.387 21 219.387 4 219.387 -3 c 1
 192.471379439 2.24925748729 163.693689126 5.01867601585 136.039009928 5.01867601585 c 3
 110.041005433 5.01867601585 85.1627666871 2.75059289086 64 -2 c 1
 64 -2 61 15.478 60 24.217 c 1
 83.988 29.7927352941 103.995105132 28.3305450892 106.305 53.258 c 0
 111.207648033 113.872192605 114.144139522 205.407662343 114.144139522 272.663590411 c 3
 114.144139522 317.937498554 113.638906518 352.332033628 111.566 359.915 c 0
 107.846914323 381.161032438 89.6480212765 380.528192308 63 384.261 c 1
 65 409 l 1
EndSplineSet
EndChar

StartChar: i.pcap
Encoding: 57355 57355 651
GlifName: i.pcap
Width: 329
VWidth: 1159
Flags: HW
AnchorPoint: "Bottom" 167 -15 basechar 0
AnchorPoint: "Top" 170 465 basechar 0
LayerCount: 2
Fore
SplineSet
66 409 m 1
 99.7879540824 402.856735621 132.527583242 400.120527242 165.828921767 400.120527242 c 3
 197.577048425 400.120527242 229.835708875 402.607448284 264 407 c 1
 265 380.044 l 1
 224.777 376.434 207.535407716 384.01540598 201.648 352.393 c 0
 197.234800566 309.398715294 193.149495745 256.471072031 193.149495745 184.084683465 c 3
 193.149495745 146.895603416 194.04485225 103.21690095 196.475 56.648 c 0
 198.692 30.7500393161 221.906 22.566 269 19.217 c 1
 268 -6 l 1
 239.001113587 -2.61679658516 202.293652553 -0.868745362637 166.232145135 -0.868745362637 c 3
 127.680772104 -0.868745362637 89.8676317755 -2.86651818838 63 -7 c 1
 60 19 l 1
 103.089608696 21.1223 132.241188564 28.7678190554 135.264 59.865 c 0
 138.17517171 99.0245987368 139.644614121 150.087077316 139.644614121 200.63198189 c 3
 139.644614121 258.417094579 137.66516891 313.834313983 134.047 351.654 c 0
 128.135 379.679414567 101.657 375.956 64 382.044 c 1
 66 409 l 1
EndSplineSet
EndChar

StartChar: j.pcap
Encoding: 57356 57356 652
GlifName: j.pcap
Width: 310
VWidth: 1355
Flags: HW
AnchorPoint: "Bottom" 166 -77 basechar 0
AnchorPoint: "Top" 159 465 basechar 0
LayerCount: 2
Fore
SplineSet
127.135 347.047 m 0
 122.02294168 382.812616066 97.366754446 376.165046836 59.915 382.522 c 1
 62.915 408 l 1
 92.1026382409 402.076942811 120.099369131 399.682905207 148.261695043 399.682905207 c 0
 183.453918107 399.682905207 218.893384864 403.100578054 257 408 c 1
 258 380.783 l 1
 218.102094327 377.852973684 198.431 384.521742673 194.736 348.786 c 0
 189.563 279.808666329 191.041 214.065432534 191.041 130 c 1
 191.041 56 196.258 27.0009587051 196.997 2 c 1
 196.997 -52 161.602049389 -88.6308755083 122.173 -115 c 0
 99.2513 -130 76.3997 -142 54 -151 c 1
 47.837375 -151 32.871 -126.827 32.871 -126.827 c 1
 43.8348920979 -118.734482138 64.754312769 -109.236612951 78.8709996985 -101.545032984 c 0
 82.819697065 -99.390865559 86.2686218041 -97.3800802199 88.871 -95.566 c 1
 138.840635945 -62.593148052 135.786 -2.50796303155 135.047 29.126 c 1
 135.047 55.1674193495 130.953666213 284.679069907 127.135 347.047 c 0
EndSplineSet
EndChar

StartChar: k.pcap
Encoding: 57357 57357 653
GlifName: k.pcap
Width: 495
VWidth: 1159
Flags: HW
AnchorPoint: "Bottom" 268 -15 basechar 0
AnchorPoint: "Top" 255 465 basechar 0
LayerCount: 2
Fore
SplineSet
278 402 m 1
 291.774408961 400.510874707 309.568026048 399.714716332 328.491490478 399.714716332 c 0
 360.399113313 399.714716332 395.518971607 401.978250586 420 407 c 1
 425 383 l 1
 400.526209677 377.332181818 383.661608359 370.930312161 364.305 354.698 c 0
 304.3885 303.745871094 259.1685 266.084782227 203.774 219.563 c 1
 203.774 219.563 371.381 74.575491018 396.176 57.909 c 1
 414.796633055 42.2677014248 439.217 29.044 461 18 c 1
 458 1.217 l 1
 442 2.6085 409 4 395 4 c 0
 376.32625 4 338.97875 2 320.305 -1 c 1
 317.305 16 l 1
 322.12687234 24.4235714286 348.181421369 24.6536773323 331.223 41.912 c 1
 300.933182834 69.5141637555 230.0909375 131.03761413 165.56 184.088 c 1
 165.56 132.718995787 167.038 88.0208121438 168.516 53.431 c 0
 169.994 22.8918054215 188.955438775 27.349 230.607 13 c 1
 228.607 -7 l 1
 202.422466414 -2.78159804316 168.523483527 -0.0158422144385 133.460844124 -0.0158422144385 c 0
 109.516187757 -0.0158422144385 85.0475266433 -1.21840195684 62 -4 c 1
 60 19 l 1
 90.1774 22.7801538462 103.863099587 23.5717475774 106.827 51.997 c 0
 110.512214769 101.580185371 112.18163074 153.112678958 112.18163074 205.521569478 c 0
 112.18163074 249.571355609 111.3180754 294.279659123 109.044 338.874 c 0
 106.000476031 375.685497134 98.4313120851 373.873948971 61 384 c 1
 65 404 l 1
 85.8460981586 400.895261976 111.413534209 399.561025662 137.426907279 399.561025662 c 0
 168.203348167 399.561025662 199.641711281 401.66120402 223.78 405 c 1
 225.78 383 l 1
 186.059894737 376.39 174.428 382.126934153 170.733 346.22 c 1
 167.777 298.368451918 165.56 266.009192856 165.56 215.349 c 1
 218.198862903 263.2434627 258.178797565 298.278629582 304.437 342.003 c 0
 309.515653324 348.171079353 313.437 348.7942 313.437 359.915 c 1
 313.437 375.305 298.349 377.651 277 383 c 1
 278 402 l 1
EndSplineSet
EndChar

StartChar: l.pcap
Encoding: 57358 57358 654
GlifName: l.pcap
Width: 456
VWidth: 1159
Flags: HW
AnchorPoint: "Top" 159 465 basechar 0
AnchorPoint: "Bottom" 232 -15 basechar 0
LayerCount: 2
Fore
SplineSet
231.387 406 m 1
 233.387 380.261 l 1
 178.5488 371.594 176.34 381.704064058 171.167 333.918 c 0
 169.529913547 313.557555236 168.211 89.6322456651 168.211 86.73 c 1
 168.95 51.6021464339 172.338082727 33.5427917499 200.598 32.868 c 0
 224.558127895 33.5463688197 297.088570979 32.6407331118 311.314 31.824 c 0
 353.345757756 32.3555770265 387.687631068 77.1261538462 395 114 c 1
 418 110 l 1
 417 68 409 64 391 -19 c 1
 370 -9 368.020047311 -4.478 342 -3 c 0
 336 -3 286 1 228 1 c 1
 103 1 76 -5 67 -5 c 1
 64 21.956 l 1
 98.2562857142 27.8348863636 104.305 31.1569543989 106.522 58.909 c 0
 106.863154573 64.3746896132 108 106.267528302 108 173 c 1
 108.739 262.643128725 105.833586896 347.912421967 105.783 349.003 c 0
 104.2702 378.065628571 95.609 375.455628571 60 379.827 c 1
 63 408 l 1
 86.4824983081 402.156714915 117.511824333 399.870097514 148.070104706 399.870097514 c 1
 179.392314356 399.870097514 210.20580528 402.40858995 231.387 406 c 1
EndSplineSet
EndChar

StartChar: m.pcap
Encoding: 57359 57359 655
GlifName: m.pcap
Width: 654
VWidth: 1159
Flags: HW
AnchorPoint: "Top" 344 465 basechar 0
AnchorPoint: "Bottom" 316 -15 basechar 0
LayerCount: 2
Fore
SplineSet
597 0 m 1
 575.094169811 3.89436981129 546.316193208 6.12994566024 515.857107168 6.12994566024 c 0
 484.969750435 6.12994566024 452.285168498 3.64524150948 423.654 -2 c 1
 419.654 23 l 1
 484.5884 30.1153139535 490.580643415 32.0461102815 488.006 91.513 c 0
 485.396 174.0963198 485.918 223.646083777 481.006 305.05 c 1
 434.271504673 233.313440862 399.037415343 175.137290211 358.868 89.862 c 0
 346.621475429 63.3518741408 334.857636364 28.6534455446 329.522 4 c 1
 301.61 4 l 1
 300.222709677 34.5928679245 288.029934751 66.8478130838 274.786 94.079 c 1
 263.480333333 121.567630593 174.566 290.232899414 168.868 298.572 c 1
 157.7636 212.631201133 150.525772474 165.399293276 146.78 71.689 c 0
 146.484816246 26.3753484754 169.57704918 26.3617230769 213 20 c 1
 209 -6 l 1
 187.386048398 -2.39767473296 159.680970498 -0.119507356688 130.791100797 -0.119507356688 c 0
 103.542484128 -0.119507356688 75.2398694448 -2.14617895292 50 -7 c 1
 48 18.956 l 1
 93.72590625 25.9026779661 106.418095079 27.0163841891 110.434 66.733 c 1
 114.077961539 96.656231745 129.851342281 272.752212181 133.827 304.141 c 1
 134.74 329.26075 132.877071574 347.506175486 120.132 361.003 c 0
 108.618485458 372.298124717 91.920796875 378.31059 53.261 381.305 c 1
 58 408 l 1
 89.4845354331 404 141.341417323 400 175.604 401 c 1
 189.604 401 191.627307192 389.009202587 195.604 379 c 0
 239.883267175 274.238482909 281.826496183 201.457314541 332.085 111.032 c 1
 339.871 120.136081054 490.715929444 395.167632326 490.874 394.739 c 0
 493.874 400.739 499.847696797 403.589839415 503.874 402.739 c 0
 530.30054 400 568.57346 400.739 595 404 c 1
 598 378.261 l 1
 553.434 377.880153846 539.713135178 372.819318542 539 327.616 c 0
 540.011524998 236.961051271 537.639637996 151.818414806 544.522 87.035 c 0
 549.387913152 31.9866622603 562.348 30.0989473684 598 26.695 c 1
 597 0 l 1
EndSplineSet
EndChar

StartChar: n.pcap
Encoding: 57360 57360 656
GlifName: n.pcap
Width: 587
VWidth: 1159
Flags: HW
AnchorPoint: "Top" 311 465 basechar 0
AnchorPoint: "Bottom" 295 -15 basechar 0
LayerCount: 2
Fore
SplineSet
63 406 m 1
 93.8122524272 401 130.050440866 399.522 156.343 401 c 0
 165.343 401 167.351453028 398.008385134 171.343 394 c 0
 273.651 285.712658203 355.783 199.266772461 452.871 107.642 c 1
 457.8699684 173.737585441 455.846977792 218.481925633 457.522191002 283.789 c 0
 457.764566355 293.41718427 458.094700743 303.511309611 458.393 314.226 c 0
 458.393 380.6965 437.44 381.173 392 385 c 1
 394 410 l 1
 426.30942523 405.123105626 456.389091204 403.590850136 484.465545845 403.590850136 c 0
 502.445376185 403.590850136 519.603695466 404.219223594 536 405 c 1
 539 380.261 l 1
 507.053731707 377.454447059 499.507699209 376.128624554 496.434 342.308 c 0
 488.356365385 253.123134021 484.261 139.337084591 485 44 c 0
 485 29.771625 489.510625 8.4290625 492.217 -4.783 c 1
 469 -11 l 1
 460.343756098 14 447.187425682 26.2285414949 429.566 46 c 0
 341.8202 140.718240967 248.4746 233.332428477 154.085 322.789 c 1
 154.085 329.732136231 149.2334 90.267863769 149.607 92.513 c 1
 149.607 37.908 168.214 30.088 224 18.173 c 1
 219 -10 l 1
 196.614088118 -2.12347544897 173.197046502 0.425545475769 150.529953807 0.425545475769 c 0
 118.518773309 0.425545475769 88.0032891267 -4.65821569495 64 -7 c 1
 60 20.434 l 1
 101.22 23.522 112.247108304 28.3277768651 113.044 65.082 c 0
 115.804211325 123.897746567 116.783521202 179.664580784 116.783521202 241.159367081 c 0
 116.783521202 270.918812141 116.899534878 302.718014691 116.522 335.006 c 0
 113.524747113 363.9030872 89.437 371.044 62 378.566 c 1
 63 406 l 1
EndSplineSet
EndChar

